<svg width="55" height="55" viewBox="0 0 55 55" fill="none" xmlns="http://www.w3.org/2000/svg">
<path d="M35.7447 2.70763C32.8989 1.7165 29.906 1.21203 26.8922 1.21559C12.0639 1.21559 2.34286e-05 13.2789 2.34286e-05 28.1078C-0.00413101 31.2503 0.544253 34.3691 1.62025 37.3217C1.82144 37.8737 2.43214 38.1579 2.98409 37.9562C3.53603 37.755 3.81972 37.1443 3.61853 36.5923C2.628 33.8735 2.12353 31.0016 2.12709 28.1078C2.12709 14.4522 13.2366 3.34266 26.8922 3.34266C29.6674 3.3391 32.4235 3.80321 35.0444 4.716C35.4035 4.8436 35.8041 4.76882 36.0931 4.52014C36.3821 4.27207 36.5162 3.88748 36.4444 3.51299C36.3726 3.1385 36.1055 2.83107 35.7447 2.70763Z" fill="#C32925"/>
<path d="M12.8224 48.4907L16.1904 43.9196C16.4433 43.5766 16.467 43.116 16.2504 42.7486C16.0343 42.3819 15.6201 42.1795 15.1975 42.2341L6.8495 43.3178C6.56225 43.3552 6.3023 43.5083 6.13019 43.7416C5.95808 43.9748 5.88864 44.2686 5.9379 44.554L7.37592 52.8486C7.44892 53.2682 7.76525 53.6042 8.17951 53.7015C8.59436 53.7994 9.02761 53.6404 9.27984 53.2979L11.5588 50.2041C16.0551 53.3424 21.4096 55.0173 26.8922 55C41.7212 55 53.7844 42.9368 53.7844 28.1079C53.7915 24.5511 53.0877 21.0287 51.7149 17.7473C51.5707 17.3936 51.2473 17.1437 50.8686 17.0939C50.4894 17.0446 50.1125 17.2019 49.8822 17.5064C49.6514 17.8114 49.6015 18.2168 49.7523 18.5681C51.0164 21.5896 51.6639 24.833 51.6574 28.1079C51.6574 41.7635 40.5478 52.873 26.8922 52.873C21.8642 52.8884 16.9525 51.359 12.8224 48.4907Z" fill="#C32925"/>
<path d="M47.2584 0C46.6708 0 46.1949 0.475978 46.1949 1.06353V6.67794H40.2623C39.6748 6.67794 39.1988 7.15392 39.1988 7.74148C39.1988 8.32903 39.6748 8.80501 40.2623 8.80501H46.1949V14.7375C46.1949 15.3251 46.6708 15.8011 47.2584 15.8011C47.8459 15.8011 48.3219 15.3251 48.3219 14.7375V8.80501H53.9363C54.5239 8.80501 54.9999 8.32903 54.9999 7.74148C54.9999 7.15392 54.5239 6.67794 53.9363 6.67794H48.3219V1.06353C48.3219 0.475978 47.8459 0 47.2584 0Z" fill="#C32925"/>
<path d="M26.9451 38.1381C26.9273 38.1369 26.9101 38.1351 26.8923 38.1351C26.8745 38.1351 26.8572 38.1369 26.8394 38.1381C24.3497 38.1067 22.3473 36.0811 22.3443 33.5914C22.3443 33.0038 21.8684 32.5279 21.2808 32.5279C20.6933 32.5279 20.2173 33.0038 20.2173 33.5914C20.222 36.8657 22.5972 39.6545 25.8287 40.1803V42.5412C25.8287 43.1288 26.3047 43.6047 26.8923 43.6047C27.4798 43.6047 27.9558 43.1288 27.9558 42.5412V40.1803C31.3903 39.626 33.823 36.5256 33.5447 33.0578C33.2669 29.5901 30.3713 26.917 26.8923 26.9164C24.3806 26.9164 22.3443 24.8807 22.3443 22.3685C22.3443 19.8569 24.3806 17.8206 26.8923 17.8206C29.4045 17.8206 31.4402 19.8569 31.4402 22.3691C31.4402 22.9561 31.9167 23.4326 32.5037 23.4326C33.0913 23.4326 33.5672 22.9561 33.5672 22.3691C33.5631 19.0942 31.1879 16.3048 27.9558 15.779V13.6739C27.9558 13.0863 27.4798 12.6104 26.8923 12.6104C26.3047 12.6104 25.8287 13.0863 25.8287 13.6739V15.779C22.3948 16.3351 19.9633 19.4343 20.2416 22.9021C20.5194 26.3692 23.4138 29.0417 26.8923 29.0429C29.3938 29.0429 31.4253 31.0625 31.4402 33.5641C31.4544 36.0651 29.446 38.1084 26.9451 38.1375V38.1381Z" fill="#C32925"/>
</svg>
