<svg width="61" height="61" viewBox="0 0 61 61" fill="none" xmlns="http://www.w3.org/2000/svg">
<path d="M58.0264 55.0532H54.5973L54.9134 54.6767C56.5324 52.7487 57.0357 50.1675 56.26 47.7724L53.162 38.2072C52.3847 35.8075 50.4608 34.0056 48.0155 33.387L46.4759 32.9977C45.8711 32.1484 44.9203 31.5618 43.8305 31.4468L43.8315 27.6372C43.8316 27.1439 43.4319 26.7441 42.9388 26.744C42.9387 26.744 42.9387 26.744 42.9385 26.744C42.4454 26.744 42.0457 27.1436 42.0456 27.6367L42.0446 31.4257H40.2616L38.0528 30.8671C37.4938 30.7255 37.0777 30.2657 36.9928 29.6953L36.4854 26.2873C38.5322 24.676 40.0485 22.5055 40.5064 19.9122H41.2431C41.5239 19.9122 41.7942 19.8667 42.0476 19.7838L42.0467 23.4549C42.0465 23.9481 42.4463 24.3479 42.9394 24.3481H42.9396C43.4327 24.3481 43.8325 23.9485 43.8326 23.4553C43.833 22.7432 43.8355 14.4003 43.8355 11.651C43.8411 5.21359 38.6333 0 32.1947 0H28.935L28.8967 0.000119141C28.8897 0.000119141 28.8828 0.000714844 28.8757 0.000714844C22.4591 0.0325254 17.2885 5.23838 17.294 11.6505C17.294 14.6494 17.2922 11.5681 17.2991 31.4467C16.2093 31.5618 15.2586 32.1483 14.6537 32.9975L13.1142 33.3869C10.6688 34.0055 8.74494 35.8074 7.96767 38.2071L4.86965 47.7723C4.09393 50.1675 4.5973 52.7486 6.21618 54.6765L6.53238 55.0531H3.10328C1.46378 55.0531 0.129883 56.387 0.129883 58.0265C0.129883 59.6661 1.46366 61 3.10328 61H58.0265C59.666 61 60.9999 59.6661 60.9999 58.0266C60.9998 56.3871 59.666 55.0532 58.0264 55.0532V55.0532ZM51.4629 38.7573L54.5609 48.3225C55.1459 50.1284 54.7663 52.0745 53.5456 53.5282L52.2653 55.0532H50.6201C50.8018 54.5652 50.8978 54.0448 50.8978 53.5113C50.8978 52.4903 50.0672 51.6596 49.0462 51.6596H47.1668V35.1563C47.1668 35.1085 47.1651 35.0611 47.1633 35.0136C47.2815 35.0752 50.3933 35.4547 51.4629 38.7573V38.7573ZM49.0463 53.4455C49.0825 53.4455 49.1119 53.475 49.1119 53.5112C49.1119 54.0709 48.9339 54.606 48.6096 55.0531H12.52C12.1957 54.6058 12.0177 54.0708 12.0177 53.5112C12.0177 53.4748 12.0472 53.4455 12.0834 53.4455H49.0463ZM42.0482 17.3484C42.0328 17.7798 41.678 18.1262 41.2431 18.1262H40.6468L40.6558 14.5066H41.2444C41.6822 14.5066 42.0389 14.858 42.0488 15.2935L42.0482 17.3484ZM26.4502 4.2812C26.4502 2.91573 27.5408 1.80117 28.8908 1.78711C28.9056 1.78711 28.9202 1.78604 28.935 1.78604H32.1947C37.6443 1.78604 42.0544 6.19841 42.0496 11.65L42.0494 12.7206C40.8215 12.7206 38.4907 12.7206 34.8365 12.7206C30.2123 12.7206 26.4503 8.95854 26.4503 4.33434V4.2812H26.4502ZM26.7262 10.4657C28.5852 12.9185 31.5284 14.5066 34.8364 14.5066H38.8696L38.8601 18.3145C38.8601 21.3451 37.0855 23.6481 35.0848 25.1189C35.0717 25.1263 32.6867 26.9412 30.5647 27.0002C28.6045 26.9456 26.1478 25.1775 26.0467 25.12C24.0451 23.6487 22.2693 21.3443 22.2693 18.3104C22.2491 13.842 22.2687 18.1681 22.2476 13.5165C22.2456 13.0597 22.6146 12.6888 23.0716 12.6888C24.6594 12.689 26.0393 11.7853 26.7262 10.4657V10.4657ZM35.8432 31.4257H25.2864C25.6049 31.0053 25.8222 30.5048 25.9036 29.9584L26.2855 27.3928C27.9055 28.3167 29.4821 28.7636 30.5458 28.7864C30.5522 28.7865 30.5585 28.7866 30.565 28.7866C30.5714 28.7866 30.5777 28.7865 30.5841 28.7864C31.6478 28.7636 33.2244 28.3169 34.8444 27.3928L35.2263 29.9584C35.3075 30.5048 35.5248 31.0053 35.8432 31.4257ZM19.8867 19.9122H20.6236C21.0811 22.5029 22.5948 24.6738 24.6444 26.2873L24.137 29.6953C24.0521 30.2657 23.636 30.7255 23.0771 30.867L20.8681 31.4256H19.085L19.0821 19.7838C19.3356 19.8668 19.6058 19.9122 19.8867 19.9122V19.9122ZM19.0815 17.3484L19.081 15.2935C19.0909 14.858 19.4476 14.5066 19.8854 14.5066H20.4662L20.4827 18.1262H19.8867C19.4516 18.1263 19.0968 17.7798 19.0815 17.3484ZM25.0067 2.59977C24.7866 3.11648 24.6643 3.68478 24.6643 4.28108C24.6763 4.40344 24.58 6.09869 25.404 8.13576V8.57062C25.404 9.85662 24.3577 10.9029 23.0717 10.9029C21.8975 10.9029 20.9183 11.6722 20.5854 12.7205H19.8854C19.6044 12.7205 19.3339 12.766 19.0804 12.8492L19.08 11.6495C19.0765 7.55888 21.5473 4.1038 25.0067 2.59977V2.59977ZM6.56884 48.3226L9.66685 38.7574C10.736 35.4563 13.8461 35.0764 13.9665 35.0138C13.9647 35.0612 13.9629 35.1085 13.9629 35.1564V40.4487C13.9629 40.942 14.3628 41.3417 14.8559 41.3417C15.3491 41.3417 15.7489 40.942 15.7489 40.4487V35.1564C15.7489 34.0841 16.6212 33.2118 17.6935 33.2118H43.4364C44.5087 33.2118 45.381 34.0841 45.381 35.1564V51.6596H15.7487V44.6234C15.7487 44.1302 15.3489 43.7304 14.8558 43.7304C14.3625 43.7304 13.9628 44.1302 13.9628 44.6234V51.6596H12.0835C11.0625 51.6596 10.2318 52.4903 10.2318 53.5113C10.2318 54.0448 10.328 54.5653 10.5095 55.0532H8.86444L7.58403 53.5281C6.36344 52.0746 5.98386 50.1284 6.56884 48.3226V48.3226ZM58.0264 59.214H3.10328C2.44848 59.214 1.91592 58.6813 1.91592 58.0266C1.91592 57.3718 2.4486 56.8393 3.10328 56.8393H58.0265C58.6813 56.8393 59.2139 57.3719 59.2139 58.0266C59.2139 58.6813 58.6812 59.214 58.0264 59.214Z" fill="#C32925"/>
<path d="M30.5646 46.6232C32.8193 46.6232 34.6536 44.7888 34.6536 42.5342C34.6536 40.2795 32.8193 38.445 30.5646 38.445C28.3099 38.445 26.4756 40.2794 26.4756 42.534C26.4756 44.7886 28.3099 46.6232 30.5646 46.6232V46.6232ZM30.5646 40.231C31.8345 40.231 32.8677 41.2641 32.8677 42.5342C32.8677 43.8042 31.8345 44.8373 30.5646 44.8373C29.2947 44.8373 28.2615 43.8042 28.2615 42.5342C28.2615 41.2641 29.2947 40.231 30.5646 40.231Z" fill="#C32925"/>
</svg>
