<svg width="24" height="32" viewBox="0 0 24 32" fill="none" xmlns="http://www.w3.org/2000/svg">
<path d="M21.2309 0C20.721 0 20.3078 0.502477 20.3078 1.12234V5.22212C15.5554 -0.371942 7.97301 -0.222666 3.37201 5.55539C1.20367 8.27847 -0.00598139 11.9222 2.2241e-05 15.7124C2.2241e-05 16.3322 0.413299 16.8347 0.923121 16.8347C1.43294 16.8347 1.84617 16.3322 1.84617 15.7124C1.8473 8.89419 6.39421 3.368 12.0021 3.36938C14.8501 3.37003 17.567 4.82499 19.49 7.3792L15.4007 9.03682C14.9165 9.23272 14.6544 9.86883 14.8155 10.4576C14.9766 11.0465 15.4998 11.3651 15.9841 11.1692L21.5226 8.92457C21.9007 8.77148 22.1553 8.34062 22.154 7.85616V1.12227C22.154 0.502477 21.7407 0 21.2309 0Z" fill="#C32925"/>
<path d="M23.0767 14.5901C22.5668 14.5901 22.1536 15.0926 22.1536 15.7124C22.1524 22.5306 17.6055 28.0569 11.9976 28.0555C9.14958 28.0548 6.43275 26.5999 4.50975 24.0456L8.59898 22.388C9.08327 22.1921 9.34532 21.556 9.1842 20.9672C9.02307 20.3784 8.49989 20.0597 8.0156 20.2556L2.47712 22.5003C2.09905 22.6534 1.84446 23.0842 1.84571 23.5687V30.3026C1.84571 30.9224 2.25898 31.4249 2.76881 31.4249C3.27863 31.4249 3.6919 30.9224 3.6919 30.3026V26.2027C8.44429 31.7968 16.0267 31.6476 20.6277 25.8695C22.796 23.1464 24.0056 19.5026 23.9996 15.7124C23.9998 15.0926 23.5865 14.5901 23.0767 14.5901Z" fill="#C32925"/>
</svg>
