<svg width="375" height="730" viewBox="0 0 375 730" fill="none" xmlns="http://www.w3.org/2000/svg">
<g opacity="0.98">
<path d="M13.6576 659.922H-39.4659C-46.5166 659.922 -52.2319 665.153 -52.2319 671.602C-52.2319 678.052 -46.5166 683.282 -39.4659 683.282H13.6576C20.7083 683.282 26.4236 678.052 26.4236 671.602C26.4236 665.153 20.7083 659.922 13.6576 659.922Z" fill="#C32925" fill-opacity="0.2"/>
<path d="M242.408 225.439H165.812V200.069C180.67 195.248 191.344 182.266 191.344 167.039C191.344 147.719 174.163 132 153.046 132H-178.872C-199.989 132 -217.17 147.719 -217.17 167.04C-217.17 182.266 -206.496 195.248 -191.638 200.069V225.439H-268.234C-275.285 225.439 -281 230.669 -281 237.118V318.876C-281 370.398 -235.185 412.314 -178.872 412.314H-168.078C-165.624 416.226 -163.002 420.069 -160.18 423.817C-142.109 447.814 -117.721 466.788 -89.2385 479.169C-89.4109 480.515 -89.5092 481.881 -89.5092 483.269C-89.5092 499.633 -77.181 513.411 -60.5775 517.244C-75.9172 564.004 -103.177 613.203 -135.467 613.203H-166.106C-172.543 613.203 -177.974 617.589 -178.773 623.435L-191.539 716.872C-191.994 720.196 -190.865 723.539 -188.442 726.05C-186.019 728.561 -182.533 730 -178.872 730H153.046C156.707 730 160.194 728.562 162.617 726.05C165.04 723.539 166.168 720.195 165.714 716.872L152.948 623.435C152.15 617.589 146.719 613.203 140.28 613.203H109.641C90.0977 613.203 73.5848 594.428 63.1741 578.676C49.7953 558.435 40.4518 534.592 34.7543 517.242C51.3578 513.408 63.6835 499.631 63.6835 483.268C63.6835 481.88 63.5851 480.515 63.4128 479.168C91.9002 466.785 116.291 447.807 134.363 423.805C137.181 420.061 139.801 416.223 142.252 412.314H153.046C209.359 412.314 255.174 370.398 255.174 318.876V237.118C255.174 230.669 249.459 225.439 242.408 225.439ZM-255.468 318.876V248.798H-191.638V331.432C-191.638 351.264 -187.706 370.669 -180.152 388.925C-221.797 388.294 -255.468 357.125 -255.468 318.876ZM138.584 706.641H-164.41L-154.836 636.562H129.01L138.584 706.641ZM59.3149 613.203H-85.1394C-78.9363 606.983 -72.9542 599.532 -67.2094 590.852C-50.8919 566.196 -40.1799 537.147 -34.3215 518.307H8.49707C14.3605 537.167 25.0508 566.142 41.3263 590.764C47.0889 599.482 53.0902 606.961 59.3149 613.203ZM25.3853 494.947H-51.211C-58.2502 494.947 -63.9771 489.708 -63.9771 483.268C-63.9771 476.828 -58.2502 471.588 -51.211 471.588H25.3853C32.4245 471.588 38.1513 476.828 38.1513 483.268C38.1513 489.708 32.4245 494.947 25.3853 494.947ZM52.1276 458.218C45.2199 452.044 35.782 448.229 25.3853 448.229H-51.211C-61.6077 448.229 -71.0444 452.044 -77.9534 458.218C-131.775 435.032 -166.106 386.104 -166.106 331.432V202.078H-70.3639C-63.3133 202.078 -57.5979 196.848 -57.5979 190.398C-57.5979 183.949 -63.3133 178.719 -70.3639 178.719H-178.872C-185.911 178.719 -191.638 173.479 -191.638 167.039C-191.638 160.599 -185.911 155.359 -178.872 155.359H153.046C160.085 155.359 165.812 160.599 165.812 167.04C165.812 173.48 160.085 178.719 153.046 178.719H44.5305C37.4799 178.719 31.7645 183.949 31.7645 190.398C31.7645 196.848 37.4799 202.078 44.5305 202.078H140.28V331.432C140.28 386.102 105.948 435.032 52.1276 458.218ZM229.642 318.876C229.642 357.125 195.972 388.294 154.326 388.925C161.88 370.67 165.812 351.264 165.812 331.432V248.798H229.642V318.876Z" fill="#C32925" fill-opacity="0.2"/>
<path d="M52.3043 284.302L23.6726 279.661L9.45377 255.731C9.45377 255.73 9.45251 255.727 9.45124 255.726C7.06526 251.714 3.47161 248.457 -0.939067 246.305C-6.9455 243.375 -13.8392 242.761 -20.3499 244.572C-26.8618 246.386 -32.2121 250.411 -35.4176 255.91L-49.0875 279.387L-77.8022 284.27C-82.9469 285.026 -87.6512 287.173 -91.421 290.488C-96.3296 294.809 -99.1049 300.618 -99.2377 306.849C-99.3705 313.079 -96.8428 318.985 -92.1104 323.482L-71.9145 342.648L-75.6192 368.492C-76.6137 373.425 -75.872 378.406 -73.463 382.932C-70.4783 388.541 -65.2851 392.749 -58.8395 394.782C-56.1114 395.643 -53.2965 396.072 -50.4931 396.072C-46.6747 396.072 -42.8756 395.277 -39.3419 393.704L-13.2162 382.069L13.673 393.789C18.1615 395.749 23.1684 396.452 28.151 395.821C34.8991 394.968 40.8787 391.759 44.9906 386.791C49.1013 381.822 50.8515 375.685 49.9158 369.496L45.8894 343.136L65.6334 324.083C69.5372 320.633 72.0904 316.227 73.0275 311.316C75.4453 298.632 66.1363 286.512 52.3043 284.302V284.302ZM47.3294 307.793L23.1301 331.145C20.4568 333.724 19.2134 337.277 19.7509 340.798L24.6594 372.703L-7.78804 358.561C-11.2962 357.033 -15.3724 357.047 -18.8664 358.604L-50.5097 372.716C-50.4471 372.439 -50.396 372.16 -50.3565 371.881L-45.8015 340.11C-45.296 336.585 -46.5726 333.042 -49.2688 330.484L-73.7515 307.333C-73.6073 307.313 -73.463 307.291 -73.32 307.266L-38.3819 301.326C-34.5623 300.675 -31.2738 298.472 -29.4469 295.334L-12.9545 266.933L4.17503 295.762C6.02994 298.884 9.33889 301.064 13.1649 301.683L47.8835 307.289C47.6945 307.451 47.5081 307.619 47.3294 307.793V307.793Z" fill="#C32925" fill-opacity="0.2"/>
</g>
<path opacity="0.5" d="M42.791 84.3535C42.7259 84.3861 42.6608 84.4512 42.5957 84.5488C42.6283 84.5814 42.6445 84.5977 42.6445 84.5977C42.6771 84.6302 42.7259 84.679 42.791 84.7441C42.8887 84.7767 42.9538 84.8092 42.9863 84.8418L43.3281 84.4023C43.1979 84.3372 43.0352 84.321 42.8398 84.3535L42.6445 84.5977L42.791 84.3535ZM73.2109 28.8359C73.862 34.3047 72.9505 39.513 70.4766 44.4609C68.0352 49.4089 64.8125 53.8685 60.8086 57.8398C56.8047 61.8112 52.4915 65.2617 47.8691 68.1914C43.2142 71.1862 38.2826 73.6764 33.0742 75.6621C32.8138 75.7923 32.5208 75.9225 32.1953 76.0527C32.5859 76.4434 32.9603 76.834 33.3184 77.2246C34.2298 78.2663 35.1087 79.3405 35.9551 80.4473C36.0853 80.61 36.2155 80.7728 36.3457 80.9355C36.8014 81.5215 37.2734 82.0911 37.7617 82.6445C37.957 82.9049 38.1523 83.1491 38.3477 83.377C38.4128 83.4421 38.4616 83.4909 38.4941 83.5234C38.4941 83.556 38.5104 83.5885 38.543 83.6211C38.6081 83.6536 38.6569 83.7025 38.6895 83.7676C38.7546 83.8001 38.8034 83.8327 38.8359 83.8652C38.901 83.9629 38.9824 84.0605 39.0801 84.1582C39.1777 84.2559 39.2754 84.3535 39.373 84.4512C39.373 84.4512 39.3893 84.4674 39.4219 84.5C39.487 84.5326 39.5358 84.5814 39.5684 84.6465C39.6335 84.679 39.6823 84.7116 39.7148 84.7441C39.7474 84.7767 39.7637 84.793 39.7637 84.793C39.7637 84.793 39.7474 84.7767 39.7148 84.7441C39.8125 84.8418 39.9753 84.972 40.2031 85.1348C40.4635 85.265 40.6914 85.3789 40.8867 85.4766C41.9609 85.9974 43.1003 86.2578 44.3047 86.2578C47.0716 86.3229 49.2689 85.265 50.8965 83.084C51.1895 82.7259 51.7754 82.7747 52.6543 83.2305C53.5332 83.6862 54.4609 84.3535 55.4375 85.2324C56.4141 86.1113 57.179 87.0228 57.7324 87.9668C58.3184 88.8783 58.4323 89.627 58.0742 90.2129C56.707 92.1009 55.0143 93.2077 52.9961 93.5332C51.0104 93.8587 48.9596 93.696 46.8438 93.0449C44.7604 92.3613 42.9212 91.4499 41.3262 90.3105C37.9082 87.7715 34.9297 84.8092 32.3906 81.4238C32.1628 81.1634 31.9349 80.8867 31.707 80.5938C30.8607 79.5195 29.9818 78.4616 29.0703 77.4199C29.0703 77.4199 29.054 77.4036 29.0215 77.3711C28.9889 77.3385 28.9564 77.306 28.9238 77.2734C28.7611 77.3385 28.5983 77.3874 28.4355 77.4199C27.5241 83.6048 26.7428 89.806 26.0918 96.0234C26.0267 96.4466 25.8151 96.6582 25.457 96.6582C25.1315 96.6582 24.7246 96.5443 24.2363 96.3164C23.7806 96.056 23.3574 95.7956 22.9668 95.5352C22.5762 95.2422 22.3158 95.0469 22.1855 94.9492C21.4368 94.3633 20.6393 93.5983 19.793 92.6543C18.9466 91.7103 18.5234 90.75 18.5234 89.7734C19.0768 84.5326 19.7116 79.3079 20.4277 74.0996C19.8418 73.5137 19.3047 72.8464 18.8164 72.0977C18.3281 71.3164 18.1003 70.5189 18.1328 69.7051C18.1979 69.2819 18.377 69.0703 18.6699 69.0703C18.9954 69.0378 19.3698 69.1191 19.793 69.3145C20.2161 69.5098 20.623 69.7376 21.0137 69.998C22.9017 57.5306 25.3268 45.1771 28.2891 32.9375C22.3971 37.7878 17.2539 43.3053 12.8594 49.4902C12.5339 49.8483 11.9154 49.8158 11.0039 49.3926C10.125 48.9368 9.19727 48.2695 8.2207 47.3906C7.27669 46.4792 6.52799 45.5677 5.97461 44.6562C5.42122 43.7448 5.30729 42.9961 5.63281 42.4102C12.7292 32.4492 21.5833 24.36 32.1953 18.1426C32.7812 16.0267 33.3997 13.9271 34.0508 11.8438C34.3112 11.2253 34.9948 11.209 36.1016 11.7949C37.2409 12.3809 38.3639 13.2272 39.4707 14.334C42.0423 13.1296 44.679 12.1042 47.3809 11.2578C53.6309 9.27214 59.3112 10.2975 64.4219 14.334C66.7005 16.1895 68.6211 18.3542 70.1836 20.8281C71.7461 23.3021 72.7552 25.9714 73.2109 28.8359ZM63.8848 18.1426C63.8522 18.0775 63.8197 18.0449 63.7871 18.0449C63.7871 18.0124 63.7871 18.0124 63.7871 18.0449C63.8197 18.0449 63.8522 18.0775 63.8848 18.1426ZM64.0312 18.3867C63.901 18.2891 63.8197 18.2402 63.7871 18.2402C63.7546 18.2077 63.7383 18.2077 63.7383 18.2402C63.7708 18.2402 63.8034 18.2565 63.8359 18.2891C63.901 18.3216 63.9661 18.3542 64.0312 18.3867ZM64.8125 33.3281C65.431 31.2773 65.7891 29.1777 65.8867 27.0293C65.9844 24.8809 65.724 22.7812 65.1055 20.7305C64.9753 20.3398 64.8125 19.9329 64.6172 19.5098C64.4219 19.0866 64.2428 18.7448 64.0801 18.4844C62.4525 17.8008 60.6133 17.5404 58.5625 17.7031C56.0885 17.9635 53.6634 18.5658 51.2871 19.5098C48.9434 20.4212 46.681 21.4303 44.5 22.5371C42.8073 23.3509 41.1471 24.2298 39.5195 25.1738C35.6784 38.9108 32.5371 52.7943 30.0957 66.8242C31.4954 66.2057 32.8626 65.5384 34.1973 64.8223C38.9824 62.3483 43.4583 59.4186 47.625 56.0332C51.3685 53.0384 54.8027 49.653 57.9277 45.877C61.0527 42.0684 63.3477 37.8854 64.8125 33.3281ZM71.8926 91.6777C71.8926 91.7754 71.9251 91.873 71.9902 91.9707C72.0553 92.0358 72.1204 92.1009 72.1855 92.166C72.2507 92.1986 72.2832 92.2148 72.2832 92.2148C72.3158 92.2148 72.2995 92.1823 72.2344 92.1172C72.1693 92.0195 72.0553 91.873 71.8926 91.6777ZM105.584 78.7871C105.91 78.429 106.495 78.4779 107.342 78.9336C108.221 79.3893 109.116 80.0566 110.027 80.9355C110.971 81.8145 111.704 82.7096 112.225 83.6211C112.778 84.5326 112.892 85.2487 112.566 85.7695C110.939 87.9831 109.409 89.6758 107.977 90.8477C106.577 91.987 104.607 93.0938 102.068 94.168C100.05 94.8516 98.2272 94.6888 96.5996 93.6797C95.0046 92.638 93.6374 91.2708 92.498 89.5781C91.2936 87.5924 90.8053 85.4603 91.0332 83.1816C89.6009 84.972 88.1035 86.7135 86.541 88.4062C85.1087 90.0339 83.4648 91.6615 81.6094 93.2891C79.7865 94.9167 77.8171 96.056 75.7012 96.707C73.6178 97.3255 71.4531 96.9349 69.207 95.5352C64.8776 92.638 62.5664 88.6016 62.2734 83.4258C62.2409 81.0169 62.5501 78.6406 63.2012 76.2969C63.8522 73.9206 64.6335 71.6419 65.5449 69.4609C66.6517 66.5964 68.1979 63.5527 70.1836 60.3301C72.1693 57.1074 74.4805 54.2428 77.1172 51.7363C79.7865 49.1973 82.6999 47.5859 85.8574 46.9023C89.0475 46.1862 92.3841 46.9349 95.8672 49.1484C96.7135 49.7018 97.5924 50.4505 98.5039 51.3945C99.4154 52.3385 100.001 53.3151 100.262 54.3242C100.294 54.5195 100.294 54.6986 100.262 54.8613C101.499 55.6751 102.638 56.6842 103.68 57.8887C104.721 59.0605 105.193 60.0208 105.096 60.7695C103.208 66.7266 101.531 72.7487 100.066 78.8359C99.5781 80.9518 99.1387 83.1003 98.748 85.2812C100.506 84.1094 101.775 83.1491 102.557 82.4004C103.37 81.6191 104.38 80.4147 105.584 78.7871ZM84.1973 76.0039C89.373 69.3633 93.8652 62.2669 97.6738 54.7148C97.5762 54.6823 97.5111 54.6497 97.4785 54.6172C97.446 54.5846 97.4134 54.5684 97.3809 54.5684C97.2181 54.4707 97.0553 54.3893 96.8926 54.3242C96.8275 54.2917 96.7624 54.2754 96.6973 54.2754C96.209 54.1126 95.7207 53.9987 95.2324 53.9336C94.028 53.8034 92.8561 53.901 91.7168 54.2266C88.8197 55.0729 86.2969 56.554 84.1484 58.6699C81.4466 61.1113 79.1191 63.8945 77.166 67.0195C75.2454 70.1445 73.6667 73.3997 72.4297 76.7852C71.6484 78.7708 70.9811 80.8216 70.4277 82.9375C69.8743 85.0208 69.5977 87.1367 69.5977 89.2852C69.5977 89.2852 69.5977 89.3014 69.5977 89.334C69.5977 89.3665 69.5977 89.3991 69.5977 89.4316C70.9323 88.9759 72.153 88.3086 73.2598 87.4297C74.3991 86.5508 75.4408 85.623 76.3848 84.6465C79.1842 81.9447 81.7884 79.0638 84.1973 76.0039ZM98.4551 91.8242C98.4551 91.8893 98.4714 91.9544 98.5039 92.0195C98.5365 92.1172 98.5527 92.1986 98.5527 92.2637C98.5527 92.1335 98.5202 91.987 98.4551 91.8242ZM148.309 82.6445C148.96 82.3516 149.741 82.498 150.652 83.084C151.564 83.6699 152.426 84.4512 153.24 85.4277C154.054 86.3717 154.673 87.2669 155.096 88.1133C155.519 88.9271 155.73 89.4479 155.73 89.6758C155.73 89.8711 155.258 90.2454 154.314 90.7988C153.989 90.9941 153.663 91.1895 153.338 91.3848C150.701 93.1426 147.934 94.5098 145.037 95.4863C143.702 95.7793 142.433 95.4863 141.229 94.6074C140.057 93.696 139.08 92.752 138.299 91.7754C136.639 89.8223 135.548 87.5924 135.027 85.0859C134.116 79.9753 134.49 74.9622 136.15 70.0469C136.313 69.526 136.492 68.9889 136.688 68.4355C137.241 66.6777 137.811 64.9362 138.396 63.2109C138.299 63.3086 138.217 63.39 138.152 63.4551C138.022 63.5853 137.908 63.6992 137.811 63.7969C134.686 67.1172 131.723 70.5514 128.924 74.0996C123.195 81.2936 118.1 88.9108 113.641 96.9512C113.51 97.0163 113.38 97.0814 113.25 97.1465C111.557 96.8535 110.011 96.1211 108.611 94.9492C107.244 93.7448 106.17 92.3939 105.389 90.8965C104.412 88.9434 104.152 86.8763 104.607 84.6953C104.673 84.5 104.721 84.2884 104.754 84.0605C105.503 79.7962 106.316 75.5482 107.195 71.3164C108.074 67.4427 109.165 63.6504 110.467 59.9395C111.801 56.2285 113.217 52.5339 114.715 48.8555C114.65 48.8555 114.715 48.6764 114.91 48.3184C115.008 48.0905 115.138 47.944 115.301 47.8789C115.691 47.7487 116.229 47.8464 116.912 48.1719C117.596 48.4974 118.296 48.9531 119.012 49.5391C120.021 50.3529 120.851 51.2318 121.502 52.1758C122.186 53.0872 122.43 53.8359 122.234 54.4219C122.169 54.7148 122.088 55.0078 121.99 55.3008C121.99 55.3008 121.99 55.3171 121.99 55.3496C121.958 55.3496 121.941 55.3659 121.941 55.3984C121.941 55.431 121.925 55.4635 121.893 55.4961C121.86 55.5938 121.827 55.7077 121.795 55.8379C121.762 55.903 121.714 55.9518 121.648 55.9844C119.598 60.8997 117.775 65.8802 116.18 70.9258C115.594 72.944 115.073 74.9622 114.617 76.9805C117.384 72.944 120.314 69.054 123.406 65.3105C127.671 60.0697 132.26 55.1217 137.176 50.4668C138.087 49.4251 139.194 48.6764 140.496 48.2207C141.31 48.0254 142.091 48.0905 142.84 48.416C143.621 48.7415 144.337 49.1484 144.988 49.6367C145.932 50.3529 146.827 51.2155 147.674 52.2246C148.553 53.2012 149.155 54.2754 149.48 55.4473C149.708 56.7168 149.562 57.9538 149.041 59.1582C148.976 59.321 148.911 59.4837 148.846 59.6465C148.064 62.0553 147.283 64.4479 146.502 66.8242C146.111 68.0286 145.721 69.2331 145.33 70.4375C145.07 71.2513 144.809 72.0488 144.549 72.8301C143.605 75.3691 142.889 77.9408 142.4 80.5449C142.01 82.6934 141.814 84.8255 141.814 86.9414C145.005 85.4115 147.169 83.9792 148.309 82.6445ZM186.15 79.0312C188.559 80.0404 190.48 81.6517 191.912 83.8652C192.042 84.0605 192.205 84.3698 192.4 84.793C192.596 85.1836 192.726 85.5905 192.791 86.0137C192.889 86.4043 192.856 86.7135 192.693 86.9414C192.531 87.1367 192.173 87.1367 191.619 86.9414C185.76 84.8581 180.291 83.6699 175.213 83.377C170.135 83.084 164.487 83.1003 158.27 83.4258C158.139 83.4258 158.009 83.4258 157.879 83.4258C157.618 84.793 157.374 86.1602 157.146 87.5273C156.626 90.5221 156.105 93.5007 155.584 96.4629C155.454 97.0488 155.079 97.2604 154.461 97.0977C153.875 96.9674 153.273 96.6908 152.654 96.2676C152.036 95.8444 151.613 95.5189 151.385 95.291C150.604 94.7051 149.741 93.875 148.797 92.8008C147.82 91.7266 147.381 90.6849 147.479 89.6758C147.706 88.276 147.934 86.8763 148.162 85.4766C148.65 82.7096 149.139 79.9264 149.627 77.127C149.497 76.6387 149.562 76.248 149.822 75.9551C151.808 64.5293 153.81 53.0872 155.828 41.6289C157.684 30.8216 159.23 23.2695 160.467 18.9727C160.597 18.3542 160.955 18.1263 161.541 18.2891C162.16 18.4518 162.778 18.7448 163.396 19.168C164.048 19.5911 164.487 19.9167 164.715 20.1445C165.464 20.7305 166.31 21.5605 167.254 22.6348C168.23 23.709 168.686 24.7507 168.621 25.7598C166.44 35.5579 163.934 48.5951 161.102 64.8711C162.697 63.4062 164.357 61.9902 166.082 60.623C171.941 56.0658 177.166 52.6966 181.756 50.5156C182.635 50.2227 183.546 50.418 184.49 51.1016C185.434 51.7852 186.215 52.4525 186.834 53.1035C186.834 53.1361 186.834 53.1523 186.834 53.1523C186.964 53.2826 187.225 53.5918 187.615 54.0801C188.038 54.5358 188.445 55.0729 188.836 55.6914C189.259 56.2773 189.552 56.8145 189.715 57.3027C189.91 57.791 189.845 58.1165 189.52 58.2793C182.618 61.1113 177.378 64.4805 173.797 68.3867C171.03 70.6328 168.377 72.9928 165.838 75.4668C174.041 76.0853 180.812 77.2734 186.15 79.0312ZM205.193 34.9883C205.389 34.6628 205.926 34.679 206.805 35.0371C207.684 35.3952 208.644 35.9486 209.686 36.6973C210.727 37.4134 211.574 38.1947 212.225 39.041C212.908 39.8548 213.136 40.6035 212.908 41.2871C211.899 43.7936 211.281 46.3815 211.053 49.0508C211.02 49.474 210.825 49.7018 210.467 49.7344C210.109 49.7344 209.686 49.653 209.197 49.4902C208.742 49.2949 208.302 49.0833 207.879 48.8555C207.488 48.5951 207.212 48.416 207.049 48.3184C206.3 47.8301 205.454 47.1628 204.51 46.3164C203.566 45.4375 203.094 44.526 203.094 43.582C203.354 40.6198 204.054 37.7552 205.193 34.9883ZM197.674 63.9922L201.385 48.6113C201.417 48.5788 201.45 48.5625 201.482 48.5625C201.613 48.5625 201.84 48.5951 202.166 48.6602C202.524 48.7253 203.029 48.9368 203.68 49.2949C204.786 49.9134 205.861 50.6947 206.902 51.6387C207.944 52.5827 208.709 53.6406 209.197 54.8125C209.425 55.4961 209.49 56.1634 209.393 56.8145C209.327 57.4329 209.197 58.0677 209.002 58.7188C208.969 58.9141 208.921 59.0931 208.855 59.2559C207.911 63.097 206.967 66.9382 206.023 70.7793C205.796 71.6257 205.568 72.4883 205.34 73.3672C204.526 76.069 203.973 78.8034 203.68 81.5703C203.452 83.8164 203.452 86.0462 203.68 88.2598C205.145 87.3483 206.284 86.6322 207.098 86.1113C208.074 85.5254 208.823 85.0697 209.344 84.7441C209.832 84.4186 210.418 84.0768 211.102 83.7188C211.818 83.3281 212.518 83.377 213.201 83.8652C213.917 84.3535 215.057 85.2487 216.619 86.5508C218.182 87.8203 219.142 88.5853 219.5 88.8457C214.943 92.8171 211.102 95.4701 207.977 96.8047C206.544 97.2279 205.128 97.0488 203.729 96.2676C202.361 95.4538 201.189 94.5749 200.213 93.6309C198.227 91.7428 196.844 89.5293 196.062 86.9902C194.565 81.7819 194.5 76.5573 195.867 71.3164C196.16 70.1445 196.453 68.9889 196.746 67.8496C197.072 66.5475 197.381 65.2617 197.674 63.9922ZM254.266 82.6445C254.917 82.3516 255.698 82.498 256.609 83.084C257.521 83.6699 258.383 84.4512 259.197 85.4277C260.011 86.3717 260.63 87.2669 261.053 88.1133C261.476 88.9271 261.688 89.4479 261.688 89.6758C261.688 89.8711 261.215 90.2454 260.271 90.7988C259.946 90.9941 259.62 91.1895 259.295 91.3848C256.658 93.1426 253.891 94.5098 250.994 95.4863C249.66 95.7793 248.39 95.4863 247.186 94.6074C246.014 93.696 245.037 92.752 244.256 91.7754C242.596 89.8223 241.505 87.5924 240.984 85.0859C240.073 79.9753 240.447 74.9622 242.107 70.0469C242.27 69.526 242.449 68.9889 242.645 68.4355C243.198 66.6777 243.768 64.9362 244.354 63.2109C244.256 63.3086 244.174 63.39 244.109 63.4551C243.979 63.5853 243.865 63.6992 243.768 63.7969C240.643 67.1172 237.68 70.5514 234.881 74.0996C229.152 81.2936 224.057 88.9108 219.598 96.9512C219.467 97.0163 219.337 97.0814 219.207 97.1465C217.514 96.8535 215.968 96.1211 214.568 94.9492C213.201 93.7448 212.127 92.3939 211.346 90.8965C210.369 88.9434 210.109 86.8763 210.564 84.6953C210.63 84.5 210.678 84.2884 210.711 84.0605C211.46 79.7962 212.273 75.5482 213.152 71.3164C214.031 67.4427 215.122 63.6504 216.424 59.9395C217.758 56.2285 219.174 52.5339 220.672 48.8555C220.607 48.8555 220.672 48.6764 220.867 48.3184C220.965 48.0905 221.095 47.944 221.258 47.8789C221.648 47.7487 222.186 47.8464 222.869 48.1719C223.553 48.4974 224.253 48.9531 224.969 49.5391C225.978 50.3529 226.808 51.2318 227.459 52.1758C228.143 53.0872 228.387 53.8359 228.191 54.4219C228.126 54.7148 228.045 55.0078 227.947 55.3008C227.947 55.3008 227.947 55.3171 227.947 55.3496C227.915 55.3496 227.898 55.3659 227.898 55.3984C227.898 55.431 227.882 55.4635 227.85 55.4961C227.817 55.5938 227.785 55.7077 227.752 55.8379C227.719 55.903 227.671 55.9518 227.605 55.9844C225.555 60.8997 223.732 65.8802 222.137 70.9258C221.551 72.944 221.03 74.9622 220.574 76.9805C223.341 72.944 226.271 69.054 229.363 65.3105C233.628 60.0697 238.217 55.1217 243.133 50.4668C244.044 49.4251 245.151 48.6764 246.453 48.2207C247.267 48.0254 248.048 48.0905 248.797 48.416C249.578 48.7415 250.294 49.1484 250.945 49.6367C251.889 50.3529 252.785 51.2155 253.631 52.2246C254.51 53.2012 255.112 54.2754 255.438 55.4473C255.665 56.7168 255.519 57.9538 254.998 59.1582C254.933 59.321 254.868 59.4837 254.803 59.6465C254.021 62.0553 253.24 64.4479 252.459 66.8242C252.068 68.0286 251.678 69.2331 251.287 70.4375C251.027 71.2513 250.766 72.0488 250.506 72.8301C249.562 75.3691 248.846 77.9408 248.357 80.5449C247.967 82.6934 247.771 84.8255 247.771 86.9414C250.962 85.4115 253.126 83.9792 254.266 82.6445ZM302.459 71.9512C303.012 71.5931 303.745 71.6908 304.656 72.2441C305.6 72.765 306.512 73.4974 307.391 74.4414C308.27 75.3854 308.937 76.2969 309.393 77.1758C309.848 78.0547 309.897 78.6569 309.539 78.9824C305.47 82.0098 301.515 85.1673 297.674 88.4551C296.827 94.2168 295.737 99.946 294.402 105.643C293.133 111.469 291.538 117.264 289.617 123.025C287.697 128.82 285.109 134.223 281.854 139.236C280.291 141.613 278.501 143.794 276.482 145.779C276.352 145.91 276.238 146.023 276.141 146.121C275.229 147.163 274.188 147.928 273.016 148.416C272.332 148.611 271.648 148.579 270.965 148.318C270.314 148.09 269.695 147.781 269.109 147.391C265.854 145.242 263.82 142.296 263.006 138.553C262.518 135.59 262.339 132.612 262.469 129.617C262.794 123.009 264.243 116.857 266.814 111.16C269.419 105.464 272.755 100.174 276.824 95.291C280.926 90.4082 285.418 85.8835 290.301 81.7168C290.691 79.0801 291.033 76.4271 291.326 73.7578C287.876 79.0312 284.002 83.9629 279.705 88.5527C278.175 90.2454 276.434 91.9219 274.48 93.582C272.56 95.2096 270.493 96.3164 268.279 96.9023C266.098 97.4557 263.852 96.9837 261.541 95.4863C257.277 92.5241 254.982 88.5039 254.656 83.4258C254.624 80.9193 254.949 78.4453 255.633 76.0039C256.349 73.5299 257.195 71.1699 258.172 68.9238C259.344 65.9616 260.955 62.8854 263.006 59.6953C265.057 56.4727 267.449 53.6569 270.184 51.248C272.918 48.8066 275.896 47.2767 279.119 46.6582C282.374 46.0072 285.776 46.7721 289.324 48.9531C290.008 49.4089 290.74 50.0273 291.521 50.8086C292.335 51.5573 292.954 52.3711 293.377 53.25C293.735 53.3477 294.126 53.5104 294.549 53.7383C294.972 53.9661 295.346 54.194 295.672 54.4219C295.997 54.6497 296.209 54.7962 296.307 54.8613C297.055 55.4798 297.82 56.2448 298.602 57.1562C299.383 58.0677 299.806 59.028 299.871 60.0371C299.806 64.8223 299.594 69.6074 299.236 74.3926C300.311 73.5788 301.385 72.765 302.459 71.9512ZM259.588 89.7734C259.49 89.7734 259.441 89.7897 259.441 89.8223C259.474 89.8223 259.539 89.8223 259.637 89.8223C259.604 89.7897 259.588 89.7734 259.588 89.7734ZM277.41 76.0527C282.749 69.3796 287.355 62.2507 291.229 54.666C291.131 54.6009 291.033 54.5358 290.936 54.4707C291.066 54.5684 291.131 54.6335 291.131 54.666C291.163 54.666 291.131 54.6497 291.033 54.6172C290.968 54.5521 290.887 54.487 290.789 54.4219C290.691 54.3893 290.594 54.3568 290.496 54.3242C290.431 54.2591 290.382 54.2266 290.35 54.2266C290.285 54.194 290.203 54.1615 290.105 54.1289C289.617 53.9661 289.113 53.8522 288.592 53.7871C287.29 53.6569 286.02 53.7546 284.783 54.0801C281.919 54.8939 279.396 56.3099 277.215 58.3281C274.448 60.737 272.055 63.5039 270.037 66.6289C268.019 69.7539 266.359 73.0254 265.057 76.4434C264.243 78.429 263.543 80.4798 262.957 82.5957C262.404 84.7116 262.111 86.8438 262.078 88.9922C262.078 89.1549 262.078 89.334 262.078 89.5293C262.078 89.5293 262.078 89.5456 262.078 89.5781C263.51 89.1549 264.812 88.5039 265.984 87.625C267.189 86.7135 268.312 85.7533 269.354 84.7441C272.251 82.0098 274.936 79.1126 277.41 76.0527ZM278.973 124.686C280.861 120.519 282.472 116.222 283.807 111.795C285.174 107.368 286.329 102.892 287.273 98.3672C285.32 100.516 283.465 102.745 281.707 105.057C278.354 109.516 275.62 114.318 273.504 119.461C271.421 124.604 270.216 129.959 269.891 135.525C269.858 136.437 269.842 137.365 269.842 138.309C270.135 138.016 270.411 137.723 270.672 137.43C274.09 133.621 276.857 129.373 278.973 124.686Z" fill="#C32925" fill-opacity="0.3"/>
</svg>
