<svg width="50" height="59" viewBox="0 0 50 59" fill="none" xmlns="http://www.w3.org/2000/svg">
<path d="M49.13 3.54556e-06H0.866003C0.636102 0.000397849 0.415759 0.092036 0.253381 0.254787C0.0910021 0.417537 -0.000131643 0.638089 1.42729e-07 0.86799V57.9071C-6.50583e-05 58.0211 0.0223416 58.134 0.0659389 58.2394C0.109536 58.3447 0.173469 58.4404 0.254082 58.521C0.334695 58.6016 0.430407 58.6656 0.535745 58.7092C0.641084 58.7528 0.753983 58.7752 0.867987 58.7751H49.132C49.246 58.7752 49.3589 58.7528 49.4643 58.7092C49.5696 58.6656 49.6653 58.6016 49.7459 58.521C49.8265 58.4404 49.8905 58.3447 49.9341 58.2394C49.9777 58.134 50.0001 58.0211 50 57.9071V0.86799C50.0001 0.753819 49.9776 0.640758 49.9339 0.53529C49.8902 0.429822 49.826 0.334021 49.7452 0.253382C49.6644 0.172743 49.5685 0.108852 49.4629 0.0653714C49.3573 0.0218911 49.2442 -0.000322863 49.13 3.54556e-06ZM48.262 1.73598V16.8637H1.73597V1.73598H48.262ZM1.73597 57.0391V18.5997H48.2601V57.0391H1.73597Z" fill="#C32925"/>
<path d="M5.32999 14.1358H44.6662C44.7802 14.1359 44.8931 14.1135 44.9984 14.0699C45.1037 14.0263 45.1994 13.9624 45.2801 13.8818C45.3607 13.8011 45.4246 13.7054 45.4682 13.6001C45.5118 13.4948 45.5342 13.3819 45.5341 13.2679V5.33198C45.5342 5.21797 45.5118 5.10507 45.4682 4.99973C45.4246 4.8944 45.3607 4.79868 45.2801 4.71807C45.1994 4.63746 45.1037 4.57353 44.9984 4.52993C44.8931 4.48633 44.7802 4.46392 44.6662 4.46399H5.32999C5.10009 4.46438 4.87975 4.55602 4.71737 4.71877C4.55499 4.88152 4.46386 5.10207 4.46399 5.33198V13.2679C4.46386 13.4978 4.55499 13.7183 4.71737 13.8811C4.87975 14.0438 5.10009 14.1354 5.32999 14.1358ZM6.19798 6.19996H43.7962V12.3999H6.19996L6.19798 6.19996Z" fill="#C32925"/>
<path d="M11.9772 21.4104H5.33088C5.21687 21.4103 5.10397 21.4327 4.99864 21.4763C4.8933 21.5199 4.79759 21.5839 4.71697 21.6645C4.63636 21.7451 4.57243 21.8408 4.52883 21.9461C4.48523 22.0515 4.46283 22.1644 4.46289 22.2784V27.5686C4.46283 27.6826 4.48523 27.7955 4.52883 27.9009C4.57243 28.0062 4.63636 28.1019 4.71697 28.1825C4.79759 28.2632 4.8933 28.3271 4.99864 28.3707C5.10397 28.4143 5.21687 28.4367 5.33088 28.4366H11.9772C12.0912 28.4367 12.2041 28.4143 12.3094 28.3707C12.4148 28.3271 12.5105 28.2632 12.5911 28.1825C12.6717 28.1019 12.7356 28.0062 12.7792 27.9009C12.8228 27.7955 12.8452 27.6826 12.8452 27.5686V22.2784C12.8452 22.1644 12.8228 22.0515 12.7792 21.9461C12.7356 21.8408 12.6717 21.7451 12.5911 21.6645C12.5105 21.5839 12.4148 21.5199 12.3094 21.4763C12.2041 21.4327 12.0912 21.4103 11.9772 21.4104ZM11.1102 26.7007H6.19986V23.1464H11.1102V26.7007Z" fill="#C32925"/>
<path d="M22.8737 21.4104H16.2274C15.9972 21.4104 15.7764 21.5018 15.6136 21.6646C15.4508 21.8274 15.3594 22.0482 15.3594 22.2784V27.5686C15.3594 27.7988 15.4508 28.0196 15.6136 28.1824C15.7764 28.3452 15.9972 28.4366 16.2274 28.4366H22.8737C22.9877 28.4367 23.1006 28.4143 23.2059 28.3707C23.3112 28.3271 23.407 28.2632 23.4876 28.1825C23.5682 28.1019 23.6321 28.0062 23.6757 27.9009C23.7193 27.7955 23.7417 27.6826 23.7416 27.5686V22.2784C23.7417 22.1644 23.7193 22.0515 23.6757 21.9461C23.6321 21.8408 23.5682 21.7451 23.4876 21.6645C23.407 21.5839 23.3112 21.5199 23.2059 21.4763C23.1006 21.4327 22.9877 21.4103 22.8737 21.4104ZM22.0057 26.7007H17.0953V23.1464H22.0057V26.7007Z" fill="#C32925"/>
<path d="M33.7701 21.4104H27.1238C27.0098 21.4103 26.8969 21.4327 26.7916 21.4763C26.6863 21.5199 26.5906 21.5839 26.5099 21.6645C26.4293 21.7451 26.3654 21.8408 26.3218 21.9461C26.2782 22.0515 26.2558 22.1644 26.2559 22.2784V27.5686C26.2558 27.6826 26.2782 27.7955 26.3218 27.9009C26.3654 28.0062 26.4293 28.1019 26.5099 28.1825C26.5906 28.2632 26.6863 28.3271 26.7916 28.3707C26.8969 28.4143 27.0098 28.4367 27.1238 28.4366H33.7701C34.0003 28.4366 34.2211 28.3452 34.3839 28.1824C34.5467 28.0196 34.6381 27.7988 34.6381 27.5686V22.2784C34.6381 22.0482 34.5467 21.8274 34.3839 21.6646C34.2211 21.5018 34.0003 21.4104 33.7701 21.4104ZM32.9022 26.7007H27.9918V23.1464H32.9022V26.7007Z" fill="#C32925"/>
<path d="M44.6661 21.4104H38.0198C37.9058 21.4103 37.7929 21.4327 37.6876 21.4763C37.5823 21.5199 37.4866 21.5839 37.4059 21.6645C37.3253 21.7451 37.2614 21.8408 37.2178 21.9461C37.1742 22.0515 37.1518 22.1644 37.1519 22.2784V27.5686C37.1518 27.6826 37.1742 27.7955 37.2178 27.9009C37.2614 28.0062 37.3253 28.1019 37.4059 28.1825C37.4866 28.2632 37.5823 28.3271 37.6876 28.3707C37.7929 28.4143 37.9058 28.4367 38.0198 28.4366H44.6661C44.7801 28.4367 44.893 28.4143 44.9984 28.3707C45.1037 28.3271 45.1994 28.2632 45.28 28.1825C45.3607 28.1019 45.4246 28.0062 45.4682 27.9009C45.5118 27.7955 45.5342 27.6826 45.5341 27.5686V22.2784C45.5342 22.1644 45.5118 22.0515 45.4682 21.9461C45.4246 21.8408 45.3607 21.7451 45.28 21.6645C45.1994 21.5839 45.1037 21.5199 44.9984 21.4763C44.893 21.4327 44.7801 21.4103 44.6661 21.4104ZM43.7962 26.7007H38.8858V23.1464H43.7962V26.7007Z" fill="#C32925"/>
<path d="M11.9773 30.0074H5.33098C5.21706 30.0075 5.10427 30.03 4.99905 30.0737C4.89382 30.1173 4.79823 30.1813 4.71772 30.2619C4.63721 30.3425 4.57337 30.4381 4.52983 30.5434C4.4863 30.6487 4.46392 30.7615 4.46399 30.8754V36.1662C4.46392 36.2802 4.48633 36.3931 4.52993 36.4984C4.57353 36.6038 4.63746 36.6995 4.71807 36.7801C4.79868 36.8607 4.8944 36.9246 4.99973 36.9682C5.10507 37.0118 5.21797 37.0342 5.33198 37.0342H11.9783C12.0923 37.0342 12.2052 37.0118 12.3105 36.9682C12.4159 36.9246 12.5116 36.8607 12.5922 36.7801C12.6728 36.6995 12.7367 36.6038 12.7803 36.4984C12.8239 36.3931 12.8463 36.2802 12.8463 36.1662V30.8754C12.8463 30.7613 12.8239 30.6484 12.7802 30.543C12.7366 30.4376 12.6725 30.3418 12.5918 30.2612C12.5111 30.1806 12.4153 30.1166 12.3098 30.0731C12.2044 30.0296 12.0914 30.0073 11.9773 30.0074ZM11.1103 35.2982H6.19996V31.7434H11.1103V35.2982Z" fill="#C32925"/>
<path d="M22.8737 30.0074H16.2274C16.1133 30.0073 16.0002 30.0296 15.8948 30.0731C15.7893 30.1166 15.6934 30.1805 15.6127 30.2611C15.5319 30.3418 15.4678 30.4375 15.4241 30.5429C15.3804 30.6483 15.3579 30.7613 15.3579 30.8754V36.1662C15.3579 36.3964 15.4494 36.6172 15.6121 36.7799C15.7749 36.9427 15.9957 37.0342 16.2259 37.0342H22.8722C22.9862 37.0342 23.0991 37.0118 23.2044 36.9682C23.3098 36.9246 23.4055 36.8607 23.4861 36.7801C23.5667 36.6995 23.6306 36.6038 23.6742 36.4984C23.7178 36.3931 23.7402 36.2802 23.7402 36.1662V30.8754C23.7403 30.6454 23.6491 30.4248 23.4866 30.2621C23.3241 30.0993 23.1037 30.0077 22.8737 30.0074ZM22.0057 35.2982H17.0954V31.7434H22.0057V35.2982Z" fill="#C32925"/>
<path d="M33.7702 30.0074H27.1239C27.0097 30.0072 26.8967 30.0294 26.7912 30.073C26.6857 30.1165 26.5898 30.1804 26.509 30.261C26.4282 30.3416 26.3642 30.4374 26.3205 30.5428C26.2768 30.6483 26.2543 30.7613 26.2544 30.8754V36.1662C26.2543 36.2802 26.2767 36.3931 26.3203 36.4984C26.3639 36.6038 26.4279 36.6995 26.5085 36.7801C26.5891 36.8607 26.6848 36.9246 26.7901 36.9682C26.8955 37.0118 27.0084 37.0342 27.1224 37.0342H33.7687C33.9989 37.0342 34.2197 36.9427 34.3824 36.7799C34.5452 36.6172 34.6367 36.3964 34.6367 36.1662V30.8754C34.6367 30.6455 34.5454 30.4249 34.383 30.2622C34.2205 30.0995 34.0001 30.0078 33.7702 30.0074ZM32.9022 35.2982H27.9919V31.7434H32.9022V35.2982Z" fill="#C32925"/>
<path d="M44.666 30.0074H38.0197C37.9056 30.0071 37.7925 30.0293 37.6869 30.0728C37.5813 30.1163 37.4854 30.1802 37.4046 30.2608C37.3237 30.3415 37.2596 30.4373 37.2159 30.5427C37.1722 30.6482 37.1497 30.7613 37.1498 30.8754V36.1662C37.1497 36.2802 37.1721 36.3931 37.2157 36.4984C37.2593 36.6038 37.3232 36.6995 37.4039 36.7801C37.4845 36.8607 37.5802 36.9246 37.6855 36.9682C37.7909 37.0118 37.9038 37.0342 38.0178 37.0342H44.6641C44.7781 37.0342 44.891 37.0118 44.9963 36.9682C45.1016 36.9246 45.1974 36.8607 45.278 36.7801C45.3586 36.6995 45.4225 36.6038 45.4661 36.4984C45.5097 36.3931 45.5321 36.2802 45.5321 36.1662V30.8754C45.5322 30.6455 45.441 30.425 45.2787 30.2622C45.1163 30.0995 44.8959 30.0078 44.666 30.0074ZM43.7961 35.2982H38.8858V31.7434H43.7961V35.2982Z" fill="#C32925"/>
<path d="M11.9772 38.6046H5.33088C5.21687 38.6046 5.10397 38.627 4.99864 38.6706C4.8933 38.7142 4.79759 38.7781 4.71697 38.8587C4.63636 38.9393 4.57243 39.035 4.52883 39.1404C4.48523 39.2457 4.46283 39.3586 4.46289 39.4726V44.7634C4.46283 44.8774 4.48523 44.9903 4.52883 45.0956C4.57243 45.2009 4.63636 45.2966 4.71697 45.3773C4.79759 45.4579 4.8933 45.5218 4.99864 45.5654C5.10397 45.609 5.21687 45.6314 5.33088 45.6313H11.9772C12.0913 45.6315 12.2043 45.6092 12.3097 45.5657C12.4152 45.5221 12.511 45.4582 12.5917 45.3776C12.6724 45.297 12.7365 45.2012 12.7801 45.0958C12.8238 44.9904 12.8462 44.8774 12.8462 44.7634V39.4726C12.8462 39.3585 12.8238 39.2455 12.7801 39.1401C12.7365 39.0347 12.6724 38.939 12.5917 38.8583C12.511 38.7777 12.4152 38.7138 12.3097 38.6703C12.2043 38.6267 12.0913 38.6044 11.9772 38.6046ZM11.1102 43.8954H6.19986V40.3406H11.1102V43.8954Z" fill="#C32925"/>
<path d="M22.8737 38.6046H16.2274C15.9972 38.6046 15.7764 38.6961 15.6136 38.8588C15.4508 39.0216 15.3594 39.2424 15.3594 39.4726V44.7634C15.3594 44.9936 15.4508 45.2143 15.6136 45.3771C15.7764 45.5399 15.9972 45.6313 16.2274 45.6313H22.8737C22.9877 45.6314 23.1006 45.609 23.2059 45.5654C23.3112 45.5218 23.407 45.4579 23.4876 45.3773C23.5682 45.2966 23.6321 45.2009 23.6757 45.0956C23.7193 44.9903 23.7417 44.8774 23.7416 44.7634V39.4726C23.7417 39.3586 23.7193 39.2457 23.6757 39.1404C23.6321 39.035 23.5682 38.9393 23.4876 38.8587C23.407 38.7781 23.3112 38.7142 23.2059 38.6706C23.1006 38.627 22.9877 38.6045 22.8737 38.6046ZM22.0057 43.8954H17.0953V40.3406H22.0057V43.8954Z" fill="#C32925"/>
<path d="M33.7701 38.6046H27.1238C27.0098 38.6045 26.8969 38.627 26.7916 38.6706C26.6863 38.7142 26.5906 38.7781 26.5099 38.8587C26.4293 38.9393 26.3654 39.035 26.3218 39.1404C26.2782 39.2457 26.2558 39.3586 26.2559 39.4726V44.7634C26.2558 44.8774 26.2782 44.9903 26.3218 45.0956C26.3654 45.2009 26.4293 45.2966 26.5099 45.3773C26.5906 45.4579 26.6863 45.5218 26.7916 45.5654C26.8969 45.609 27.0098 45.6314 27.1238 45.6313H33.7701C34.0003 45.6313 34.2211 45.5399 34.3839 45.3771C34.5467 45.2143 34.6381 44.9936 34.6381 44.7634V39.4726C34.6381 39.2424 34.5467 39.0216 34.3839 38.8588C34.2211 38.6961 34.0003 38.6046 33.7701 38.6046ZM32.9022 43.8954H27.9918V40.3406H32.9022V43.8954Z" fill="#C32925"/>
<path d="M11.9772 47.2021H5.33088C5.21687 47.2021 5.10397 47.2245 4.99864 47.2681C4.8933 47.3117 4.79759 47.3756 4.71697 47.4562C4.63636 47.5368 4.57243 47.6326 4.52883 47.7379C4.48523 47.8432 4.46283 47.9561 4.46289 48.0701V53.3604C4.46283 53.4744 4.48523 53.5873 4.52883 53.6926C4.57243 53.798 4.63636 53.8937 4.71697 53.9743C4.79759 54.0549 4.8933 54.1188 4.99864 54.1624C5.10397 54.206 5.21687 54.2284 5.33088 54.2284H11.9772C12.0912 54.2284 12.2041 54.206 12.3094 54.1624C12.4148 54.1188 12.5105 54.0549 12.5911 53.9743C12.6717 53.8937 12.7356 53.798 12.7792 53.6926C12.8228 53.5873 12.8452 53.4744 12.8452 53.3604V48.0701C12.8452 47.9561 12.8228 47.8432 12.7792 47.7379C12.7356 47.6326 12.6717 47.5368 12.5911 47.4562C12.5105 47.3756 12.4148 47.3117 12.3094 47.2681C12.2041 47.2245 12.0912 47.2021 11.9772 47.2021ZM11.1102 52.4924H6.19986V48.9381H11.1102V52.4924Z" fill="#C32925"/>
<path d="M22.8737 47.2021H16.2274C15.9972 47.2021 15.7764 47.2936 15.6136 47.4564C15.4508 47.6192 15.3594 47.8399 15.3594 48.0701V53.3604C15.3594 53.5906 15.4508 53.8114 15.6136 53.9741C15.7764 54.1369 15.9972 54.2284 16.2274 54.2284H22.8737C22.9877 54.2284 23.1006 54.206 23.2059 54.1624C23.3112 54.1188 23.407 54.0549 23.4876 53.9743C23.5682 53.8937 23.6321 53.798 23.6757 53.6926C23.7193 53.5873 23.7417 53.4744 23.7416 53.3604V48.0701C23.7417 47.9561 23.7193 47.8432 23.6757 47.7379C23.6321 47.6326 23.5682 47.5368 23.4876 47.4562C23.407 47.3756 23.3112 47.3117 23.2059 47.2681C23.1006 47.2245 22.9877 47.2021 22.8737 47.2021ZM22.0057 52.4924H17.0953V48.9381H22.0057V52.4924Z" fill="#C32925"/>
<path d="M33.7701 47.2021H27.1238C27.0098 47.2021 26.8969 47.2245 26.7916 47.2681C26.6863 47.3117 26.5906 47.3756 26.5099 47.4562C26.4293 47.5368 26.3654 47.6326 26.3218 47.7379C26.2782 47.8432 26.2558 47.9561 26.2559 48.0701V53.3604C26.2558 53.4744 26.2782 53.5873 26.3218 53.6926C26.3654 53.798 26.4293 53.8937 26.5099 53.9743C26.5906 54.0549 26.6863 54.1188 26.7916 54.1624C26.8969 54.206 27.0098 54.2284 27.1238 54.2284H33.7701C34.0003 54.2284 34.2211 54.1369 34.3839 53.9741C34.5467 53.8114 34.6381 53.5906 34.6381 53.3604V48.0701C34.6381 47.8399 34.5467 47.6192 34.3839 47.4564C34.2211 47.2936 34.0003 47.2021 33.7701 47.2021ZM32.9022 52.4924H27.9918V48.9381H32.9022V52.4924Z" fill="#C32925"/>
<path d="M44.6661 38.6046H38.0198C37.9058 38.6045 37.7929 38.627 37.6876 38.6706C37.5823 38.7142 37.4866 38.7781 37.4059 38.8587C37.3253 38.9393 37.2614 39.035 37.2178 39.1404C37.1742 39.2457 37.1518 39.3586 37.1519 39.4726V53.3604C37.1518 53.4744 37.1742 53.5873 37.2178 53.6926C37.2614 53.798 37.3253 53.8937 37.4059 53.9743C37.4866 54.0549 37.5823 54.1188 37.6876 54.1624C37.7929 54.206 37.9058 54.2284 38.0198 54.2284H44.6661C44.7801 54.2284 44.893 54.206 44.9984 54.1624C45.1037 54.1188 45.1994 54.0549 45.28 53.9743C45.3607 53.8937 45.4246 53.798 45.4682 53.6926C45.5118 53.5873 45.5342 53.4744 45.5341 53.3604V39.4726C45.5342 39.3586 45.5118 39.2457 45.4682 39.1404C45.4246 39.035 45.3607 38.9393 45.28 38.8587C45.1994 38.7781 45.1037 38.7142 44.9984 38.6706C44.893 38.627 44.7801 38.6045 44.6661 38.6046ZM43.7982 52.4924H38.8858V40.3406H43.7962L43.7982 52.4924Z" fill="#C32925"/>
<path d="M15.0737 9.84277C15.0379 10.222 14.8979 10.5182 14.6538 10.7314C14.4097 10.943 14.085 11.0488 13.6797 11.0488C13.3965 11.0488 13.1466 10.9821 12.9302 10.8486C12.7153 10.7135 12.5493 10.5223 12.4321 10.2749C12.3149 10.0275 12.2539 9.74023 12.249 9.41309V9.08105C12.249 8.74577 12.3084 8.45036 12.4272 8.19482C12.5461 7.93929 12.7161 7.74235 12.9375 7.604C13.1605 7.46566 13.4176 7.39648 13.709 7.39648C14.1012 7.39648 14.417 7.50309 14.6562 7.71631C14.8955 7.92952 15.0347 8.23063 15.0737 8.61963H14.4585C14.4292 8.3641 14.3543 8.18018 14.2339 8.06787C14.1151 7.95394 13.9401 7.89697 13.709 7.89697C13.4404 7.89697 13.2337 7.99544 13.0889 8.19238C12.9456 8.3877 12.8724 8.67497 12.8691 9.0542V9.36914C12.8691 9.75326 12.9375 10.0462 13.0742 10.248C13.2126 10.4499 13.4144 10.5508 13.6797 10.5508C13.9222 10.5508 14.1045 10.4963 14.2266 10.3872C14.3486 10.2782 14.4259 10.0967 14.4585 9.84277H15.0737ZM17.1489 11C17.1229 10.9495 17.1001 10.8674 17.0806 10.7534C16.8918 10.9504 16.6606 11.0488 16.3872 11.0488C16.1219 11.0488 15.9054 10.9731 15.7378 10.8218C15.5701 10.6704 15.4863 10.4832 15.4863 10.2603C15.4863 9.97868 15.5905 9.76302 15.7988 9.61328C16.0088 9.46191 16.3083 9.38623 16.6973 9.38623H17.061V9.21289C17.061 9.07617 17.0228 8.96712 16.9463 8.88574C16.8698 8.80273 16.7534 8.76123 16.5972 8.76123C16.4621 8.76123 16.3514 8.79541 16.2651 8.86377C16.1789 8.9305 16.1357 9.01595 16.1357 9.12012H15.5425C15.5425 8.97526 15.5905 8.84017 15.6865 8.71484C15.7826 8.58789 15.9128 8.48861 16.0771 8.41699C16.2432 8.34538 16.4279 8.30957 16.6313 8.30957C16.9406 8.30957 17.1872 8.3877 17.3711 8.54395C17.555 8.69857 17.6494 8.91667 17.6543 9.19824V10.3896C17.6543 10.6273 17.6877 10.8169 17.7544 10.9585V11H17.1489ZM16.4971 10.5728C16.6143 10.5728 16.7241 10.5443 16.8267 10.4873C16.9308 10.4303 17.009 10.3538 17.061 10.2578V9.75977H16.7412C16.5215 9.75977 16.3563 9.79801 16.2456 9.87451C16.1349 9.95101 16.0796 10.0592 16.0796 10.1992C16.0796 10.3132 16.117 10.4043 16.1919 10.4727C16.2684 10.5394 16.3701 10.5728 16.4971 10.5728ZM18.9067 11H18.3135V7.25H18.9067V11ZM20.6401 10.5752C20.7882 10.5752 20.9111 10.5321 21.0088 10.4458C21.1064 10.3595 21.1585 10.2529 21.165 10.126H21.7241C21.7176 10.2904 21.6663 10.4442 21.5703 10.5874C21.4743 10.729 21.3441 10.8413 21.1797 10.9243C21.0153 11.0073 20.8379 11.0488 20.6475 11.0488C20.278 11.0488 19.985 10.9292 19.7686 10.6899C19.5521 10.4507 19.4438 10.1203 19.4438 9.69873V9.6377C19.4438 9.23568 19.5513 8.91423 19.7661 8.67334C19.981 8.43083 20.2739 8.30957 20.645 8.30957C20.9591 8.30957 21.2147 8.40153 21.4116 8.58545C21.6102 8.76774 21.7144 9.00781 21.7241 9.30566H21.165C21.1585 9.1543 21.1064 9.02979 21.0088 8.93213C20.9128 8.83447 20.7899 8.78564 20.6401 8.78564C20.4481 8.78564 20.3 8.85563 20.1958 8.99561C20.0916 9.13395 20.0387 9.34473 20.0371 9.62793V9.72314C20.0371 10.0096 20.0884 10.2236 20.1909 10.3652C20.2951 10.5052 20.4448 10.5752 20.6401 10.5752ZM23.7725 10.7412C23.5983 10.9463 23.3509 11.0488 23.0303 11.0488C22.7438 11.0488 22.5265 10.965 22.3784 10.7974C22.2319 10.6297 22.1587 10.3872 22.1587 10.0698V8.3584H22.752V10.0625C22.752 10.3978 22.8911 10.5654 23.1694 10.5654C23.4575 10.5654 23.652 10.4621 23.7529 10.2554V8.3584H24.3462V11H23.7871L23.7725 10.7412ZM25.5815 11H24.9883V7.25H25.5815V11ZM27.8081 11C27.7821 10.9495 27.7593 10.8674 27.7397 10.7534C27.5509 10.9504 27.3198 11.0488 27.0464 11.0488C26.7811 11.0488 26.5646 10.9731 26.397 10.8218C26.2293 10.6704 26.1455 10.4832 26.1455 10.2603C26.1455 9.97868 26.2497 9.76302 26.458 9.61328C26.668 9.46191 26.9674 9.38623 27.3564 9.38623H27.7202V9.21289C27.7202 9.07617 27.682 8.96712 27.6055 8.88574C27.529 8.80273 27.4126 8.76123 27.2563 8.76123C27.1213 8.76123 27.0106 8.79541 26.9243 8.86377C26.8381 8.9305 26.7949 9.01595 26.7949 9.12012H26.2017C26.2017 8.97526 26.2497 8.84017 26.3457 8.71484C26.4417 8.58789 26.5719 8.48861 26.7363 8.41699C26.9023 8.34538 27.0871 8.30957 27.2905 8.30957C27.5998 8.30957 27.8464 8.3877 28.0303 8.54395C28.2142 8.69857 28.3086 8.91667 28.3135 9.19824V10.3896C28.3135 10.6273 28.3468 10.8169 28.4136 10.9585V11H27.8081ZM27.1562 10.5728C27.2734 10.5728 27.3833 10.5443 27.4858 10.4873C27.59 10.4303 27.6681 10.3538 27.7202 10.2578V9.75977H27.4004C27.1807 9.75977 27.0155 9.79801 26.9048 9.87451C26.7941 9.95101 26.7388 10.0592 26.7388 10.1992C26.7388 10.3132 26.7762 10.4043 26.8511 10.4727C26.9276 10.5394 27.0293 10.5728 27.1562 10.5728ZM28.8237 9.65967C28.8237 9.25277 28.9181 8.92643 29.1069 8.68066C29.2957 8.43327 29.5488 8.30957 29.8662 8.30957C30.1462 8.30957 30.3724 8.40723 30.5449 8.60254V7.25H31.1382V11H30.6011L30.5718 10.7266C30.3944 10.9414 30.1576 11.0488 29.8613 11.0488C29.5521 11.0488 29.3014 10.9243 29.1094 10.6753C28.9189 10.4263 28.8237 10.0877 28.8237 9.65967ZM29.417 9.71094C29.417 9.97949 29.4683 10.1895 29.5708 10.3408C29.675 10.4906 29.8223 10.5654 30.0127 10.5654C30.2552 10.5654 30.4326 10.4572 30.5449 10.2407V9.11279C30.4359 8.9012 30.2601 8.79541 30.0176 8.79541C29.8255 8.79541 29.6774 8.87191 29.5732 9.0249C29.4691 9.17627 29.417 9.40495 29.417 9.71094ZM31.646 9.65479C31.646 9.396 31.6973 9.16325 31.7998 8.95654C31.9023 8.74821 32.0464 8.5887 32.2319 8.47803C32.4175 8.36572 32.6307 8.30957 32.8716 8.30957C33.228 8.30957 33.5169 8.42432 33.7383 8.65381C33.9613 8.8833 34.0817 9.18766 34.0996 9.56689L34.1021 9.70605C34.1021 9.96647 34.0516 10.1992 33.9507 10.4043C33.8514 10.6094 33.7082 10.7681 33.521 10.8804C33.3354 10.9927 33.1206 11.0488 32.8765 11.0488C32.5037 11.0488 32.2051 10.9251 31.9805 10.6777C31.7575 10.4287 31.646 10.0975 31.646 9.68408V9.65479ZM32.2393 9.70605C32.2393 9.97786 32.2954 10.1911 32.4077 10.3457C32.52 10.4987 32.6763 10.5752 32.8765 10.5752C33.0767 10.5752 33.2321 10.4971 33.3428 10.3408C33.4551 10.1846 33.5112 9.95589 33.5112 9.65479C33.5112 9.38786 33.4535 9.17627 33.3379 9.02002C33.224 8.86377 33.0685 8.78564 32.8716 8.78564C32.6779 8.78564 32.5241 8.86296 32.4102 9.01758C32.2962 9.17057 32.2393 9.40007 32.2393 9.70605ZM35.9868 8.90039C35.9087 8.88737 35.8281 8.88086 35.7451 8.88086C35.4733 8.88086 35.2902 8.98503 35.1958 9.19336V11H34.6025V8.3584H35.1689L35.1836 8.65381C35.3268 8.42432 35.5254 8.30957 35.7793 8.30957C35.8639 8.30957 35.9339 8.32096 35.9893 8.34375L35.9868 8.90039ZM37.8667 11C37.8407 10.9495 37.8179 10.8674 37.7983 10.7534C37.6095 10.9504 37.3784 11.0488 37.105 11.0488C36.8397 11.0488 36.6232 10.9731 36.4556 10.8218C36.2879 10.6704 36.2041 10.4832 36.2041 10.2603C36.2041 9.97868 36.3083 9.76302 36.5166 9.61328C36.7266 9.46191 37.026 9.38623 37.415 9.38623H37.7788V9.21289C37.7788 9.07617 37.7406 8.96712 37.6641 8.88574C37.5876 8.80273 37.4712 8.76123 37.3149 8.76123C37.1799 8.76123 37.0692 8.79541 36.9829 8.86377C36.8966 8.9305 36.8535 9.01595 36.8535 9.12012H36.2603C36.2603 8.97526 36.3083 8.84017 36.4043 8.71484C36.5003 8.58789 36.6305 8.48861 36.7949 8.41699C36.9609 8.34538 37.1457 8.30957 37.3491 8.30957C37.6584 8.30957 37.9049 8.3877 38.0889 8.54395C38.2728 8.69857 38.3672 8.91667 38.3721 9.19824V10.3896C38.3721 10.6273 38.4054 10.8169 38.4722 10.9585V11H37.8667ZM37.2148 10.5728C37.332 10.5728 37.4419 10.5443 37.5444 10.4873C37.6486 10.4303 37.7267 10.3538 37.7788 10.2578V9.75977H37.459C37.2393 9.75977 37.0741 9.79801 36.9634 9.87451C36.8527 9.95101 36.7974 10.0592 36.7974 10.1992C36.7974 10.3132 36.8348 10.4043 36.9097 10.4727C36.9862 10.5394 37.0879 10.5728 37.2148 10.5728Z" fill="#C32925"/>
</svg>
