<svg width="32" height="23" viewBox="0 0 32 23" fill="none" xmlns="http://www.w3.org/2000/svg">
<path d="M31.4631 2.19336H7.70087V0.533112C7.70087 0.238701 7.46047 0 7.16396 0H2.74591C2.4494 0 2.20899 0.238701 2.20899 0.533112V2.19336H0.536913C0.240403 2.19336 0 2.43206 0 2.72647V22.4669C0 22.7613 0.240403 23 0.536913 23H31.4631C31.7596 23 32 22.7613 32 22.4669V2.72647C32 2.43199 31.7596 2.19336 31.4631 2.19336ZM3.28282 1.06622H6.62705V2.02203H3.28282V1.06622ZM30.9262 21.9337H1.07383V3.25958H30.9262V21.9337ZM10.778 15.6453C11.3011 16.5254 12.0434 17.2623 12.9297 17.7817C12.9554 17.7997 12.9821 17.8151 13.0099 17.8281C13.8928 18.3275 14.9134 18.6132 16 18.6132C19.3412 18.6132 22.0595 15.9142 22.0595 12.5966C22.0595 11.5177 21.7717 10.5042 21.2687 9.62768C21.2556 9.60022 21.2402 9.57363 21.2221 9.54824C20.699 8.66801 19.9567 7.93098 19.0702 7.41153C19.0447 7.39367 19.018 7.37828 18.9903 7.36535C18.1075 6.86589 17.0868 6.58014 16.0001 6.58014C12.6589 6.58014 9.9406 9.27915 9.9406 12.5967C9.9406 13.6757 10.2283 14.689 10.7313 15.5655C10.7443 15.5931 10.7599 15.6197 10.778 15.6453ZM20.0979 9.78181L18.7471 11.123C18.5374 11.3312 18.5374 11.6687 18.7471 11.8769C18.8519 11.981 18.9893 12.033 19.1268 12.033C19.2642 12.033 19.4016 11.981 19.5064 11.8769L20.6293 10.7621C20.8583 11.3298 20.9856 11.9486 20.9856 12.5966C20.9856 15.3262 18.7491 17.547 16 17.547C15.3473 17.547 14.7242 17.4206 14.1523 17.1931L17.3907 13.9776C17.6005 13.7694 17.6005 13.4319 17.3907 13.2237C17.1811 13.0155 16.8411 13.0155 16.6315 13.2237L13.1651 16.6656C12.6723 16.326 12.2441 15.9008 11.9021 15.4115L18.8349 8.5278C19.3277 8.86732 19.7559 9.29248 20.0979 9.78181ZM16 7.6463C16.6527 7.6463 17.2758 7.77278 17.8477 8.00022L11.3708 14.4312C11.1417 13.8635 11.0144 13.2447 11.0144 12.5966C11.0144 9.86704 13.2509 7.6463 16 7.6463ZM16 20.8066C20.5593 20.8066 24.2685 17.1236 24.2685 12.5966C24.2685 8.06972 20.5592 4.38671 16 4.38671C11.4408 4.38671 7.73154 8.06965 7.73154 12.5966C7.73154 17.1236 11.4407 20.8066 16 20.8066ZM16 5.45294C19.9671 5.45294 23.1946 8.65761 23.1946 12.5966C23.1946 16.5357 19.9671 19.7404 16 19.7404C12.0329 19.7404 8.80537 16.5357 8.80537 12.5966C8.80537 8.65761 12.0329 5.45294 16 5.45294ZM24.836 8.62116H29.2541C29.5506 8.62116 29.791 8.38246 29.791 8.08805V4.91989C29.791 4.62548 29.5506 4.38678 29.2541 4.38678H24.836C24.5395 4.38678 24.2991 4.62548 24.2991 4.91989V8.08805C24.2991 8.38246 24.5395 8.62116 24.836 8.62116ZM25.373 5.45294H28.7172V7.55494H25.373V5.45294Z" fill="#C32925"/>
</svg>
