<svg width="22" height="20" viewBox="0 0 22 20" fill="none" xmlns="http://www.w3.org/2000/svg">
<path d="M13.5361 14.1631H12.3301C12.1521 14.1631 12.0078 14.3074 12.0078 14.4853C12.0078 14.6634 12.1521 14.8076 12.3301 14.8076H13.5361C13.714 14.8076 13.8583 14.6634 13.8583 14.4853C13.8583 14.3074 13.714 14.1631 13.5361 14.1631Z" fill="#C32925"/>
<path d="M20.6354 10.7132L18.8806 10.0363L17.9859 9.14159C17.9284 9.08415 17.8544 9.05304 17.7787 9.04818V8.33624C18.2004 7.88662 18.5006 7.31725 18.6217 6.67582C18.6969 6.67921 18.7729 6.67315 18.8478 6.65786C19.2765 6.57007 19.5878 6.17223 19.5878 5.71195V5.47696C19.5878 5.21068 19.4798 4.96628 19.3039 4.79153C19.5885 3.24381 19.3541 1.98252 18.6231 1.13832C17.9159 0.321795 16.7767 -0.0684862 15.3286 0.009845C13.9907 0.0821606 13.1271 0.697724 12.8535 0.922921C12.7037 0.94071 12.4485 0.993303 12.1903 1.14825C11.8324 1.363 11.4057 1.81413 11.4057 2.74366C11.4057 3.55456 11.5353 4.23157 11.6292 4.61566C11.3146 4.76888 11.1042 5.10094 11.1042 5.48057V5.71191C11.1042 6.17219 11.4154 6.57003 11.8442 6.65781C11.9191 6.67315 11.9951 6.67917 12.0702 6.67577C12.1914 7.3172 12.4916 7.88658 12.9132 8.3362V9.04814C12.8376 9.05299 12.7635 9.0841 12.7061 9.14155L11.8114 10.0363L10.0565 10.7132C9.90472 10.7717 9.7597 10.8476 9.62555 10.9387C9.47834 11.0388 9.4401 11.2392 9.54009 11.3864C9.60244 11.4782 9.7038 11.5276 9.80692 11.5276C9.86927 11.5276 9.93226 11.5095 9.98773 11.4719C10.0813 11.4083 10.1825 11.3554 10.2885 11.3145L11.9171 10.6863L13.1623 12.5541C13.3167 12.7857 13.5641 12.9342 13.841 12.9616C13.8718 12.9647 13.9026 12.9662 13.9332 12.9662C14.0935 12.9662 14.2491 12.9241 14.3867 12.8461L14.1195 18.9076C14.1117 19.0854 14.2495 19.2359 14.4273 19.2437C14.4321 19.244 14.4369 19.244 14.4417 19.244C14.6132 19.244 14.7558 19.1089 14.7634 18.936L15.0115 13.3096H15.6805L15.9285 18.936C15.9361 19.1089 16.0787 19.244 16.2502 19.244C16.255 19.244 16.2598 19.244 16.2646 19.2437C16.4424 19.2359 16.5802 19.0854 16.5724 18.9076L16.3052 12.8461C16.4429 12.9241 16.5984 12.9662 16.7587 12.9662C16.7893 12.9662 16.8201 12.9647 16.8509 12.9616C17.1279 12.9342 17.3752 12.7857 17.5296 12.5541L18.7748 10.6863L20.4035 11.3145C20.6319 11.4025 20.8285 11.5431 20.9831 11.7184L19.8689 12.8327C19.4663 13.2352 19.2447 13.7704 19.2447 14.3397V18.9218C19.2447 19.0998 19.3889 19.2441 19.5669 19.2441C19.7449 19.2441 19.8892 19.0998 19.8892 18.9218V14.3397C19.8892 13.9426 20.0438 13.5692 20.3246 13.2884L21.3025 12.3105C21.3418 12.4546 21.3601 12.6061 21.3539 12.7609L21.1043 18.9088C21.0971 19.0866 21.2354 19.2366 21.4132 19.2439C21.4177 19.244 21.4221 19.2441 21.4265 19.2441C21.5985 19.2441 21.7413 19.1083 21.7483 18.935L21.998 12.787C22.0345 11.875 21.487 11.0417 20.6354 10.7132ZM12.7011 6.54292C12.6442 6.2335 12.3577 6.00861 12.0485 6.03151C12.024 6.03327 11.9989 6.03155 11.9735 6.02639C11.8454 6.00018 11.7487 5.86496 11.7487 5.71195V5.48053C11.7487 5.33104 11.8486 5.19638 11.9761 5.17399C12.0837 5.15508 12.1868 5.19457 12.2519 5.27961C12.3111 5.35673 12.39 5.4119 12.4802 5.43906C12.6122 5.47894 12.7577 5.45552 12.8696 5.37654C13.0711 5.23427 13.2489 5.06047 13.398 4.85989C13.5043 4.71706 13.4745 4.5152 13.3317 4.40903C13.1889 4.30281 12.987 4.3325 12.8808 4.47533C12.8065 4.57536 12.7224 4.66615 12.6299 4.7465C12.5277 4.6591 12.4084 4.59594 12.2804 4.55989C12.1976 4.24269 12.0503 3.56315 12.0503 2.74357C12.0503 2.25 12.2024 1.9032 12.5025 1.71285C12.7366 1.56431 12.9844 1.55838 12.9842 1.55834C13.0666 1.55834 13.1468 1.5259 13.2066 1.46931C13.2144 1.46192 14.0066 0.726728 15.3633 0.653381C16.6052 0.586351 17.5639 0.899847 18.1358 1.56018C18.7121 2.22576 18.9041 3.24759 18.6959 4.52654C18.6095 4.52349 18.515 4.53002 18.421 4.54571L18.1182 3.8186C18.0564 3.67027 17.8946 3.59018 17.7392 3.6307C17.7092 3.63852 14.7332 4.39295 13.4854 2.83939C13.3739 2.70065 13.1711 2.67848 13.0323 2.78994C12.8935 2.9014 12.8714 3.10421 12.9829 3.24299C14.2571 4.82947 16.7856 4.48435 17.6272 4.31604L17.8614 4.87828C17.962 5.11998 18.2196 5.25198 18.4735 5.19212C18.5777 5.16759 18.6772 5.16703 18.7146 5.17442C18.8449 5.20037 18.9432 5.33035 18.9432 5.47687V5.71191C18.9432 5.86496 18.8465 6.00014 18.7184 6.02635C18.6931 6.03155 18.6678 6.03327 18.6434 6.03146C18.3342 6.00895 18.0477 6.23342 17.9908 6.54292C17.7564 7.81925 16.6441 8.74564 15.346 8.74564C14.0479 8.74564 12.9355 7.81925 12.7011 6.54292ZM14.1307 12.2395C14.049 12.3212 13.954 12.3252 13.9046 12.3203C13.8552 12.3154 13.7628 12.2928 13.6986 12.1967L12.4442 10.315L12.9487 9.81052L14.8745 11.4957L14.1307 12.2395ZM15.0399 12.6652L15.0594 12.2222L15.3459 11.9357L15.6325 12.2222L15.652 12.6652H15.0399ZM15.346 11.0517L13.5578 9.48702V8.87025C14.0777 9.20089 14.6928 9.39017 15.346 9.39017C15.9991 9.39017 16.6143 9.20089 17.1342 8.87025V9.48702L15.346 11.0517ZM16.9934 12.1967C16.9292 12.2929 16.8368 12.3154 16.7875 12.3203C16.738 12.3252 16.643 12.3212 16.5613 12.2394L15.8175 11.4956L17.7433 9.81048L18.2478 10.315L16.9934 12.1967Z" fill="#C32925"/>
<path d="M10.2198 12.4022L8.64619 11.7153L7.78601 10.8552C7.72839 10.7975 7.65431 10.7666 7.5789 10.7618V10.2548C8.31405 9.77168 8.85201 9.00336 9.02487 8.08783C9.10952 8.09162 9.19498 8.0835 9.2792 8.0636C9.69157 7.96602 9.99084 7.57084 9.99084 7.12397V6.88902C9.99084 6.56255 9.82885 6.26886 9.57787 6.09656C9.65169 5.80411 9.68933 5.50492 9.68933 5.20376C9.68933 3.86865 8.96764 2.69269 7.87981 2.01749C7.86821 0.903193 6.91711 0 5.7491 0C4.58109 0 3.62999 0.903193 3.61839 2.01749C2.5306 2.69269 1.80891 3.86869 1.80891 5.20376C1.80891 5.50402 1.84629 5.80235 1.91968 6.09398C1.66883 6.26542 1.5074 6.56048 1.5074 6.89254V7.12397C1.5074 7.57084 1.80667 7.96602 2.21904 8.0636C2.30326 8.08354 2.38868 8.09162 2.47337 8.08783C2.64623 9.00336 3.18424 9.77168 3.91938 10.2548V10.7618C3.84397 10.7666 3.76989 10.7975 3.71227 10.8552L2.85209 11.7153L1.27855 12.4022C0.477922 12.7517 -0.0351193 13.5729 0.00187636 14.4457L0.192183 18.9356C0.19953 19.1088 0.342228 19.2442 0.513929 19.2442C0.518527 19.2442 0.523168 19.2442 0.527808 19.2439C0.705654 19.2364 0.843668 19.0862 0.836149 18.9083L0.645799 14.4184C0.633553 14.1291 0.708748 13.8484 0.850113 13.6068L1.69594 14.6218C1.96325 14.9425 2.11042 15.3491 2.11042 15.7666V18.922C2.11042 19.1 2.2547 19.2442 2.43268 19.2442C2.61065 19.2442 2.75494 19.1 2.75494 18.922V15.7666C2.75494 15.1986 2.55467 14.6455 2.19107 14.2092L1.29187 13.1301C1.36831 13.0774 1.44956 13.0308 1.5364 12.9929L2.90778 12.3942L3.87689 13.9673C3.97258 14.1226 4.13078 14.2279 4.31099 14.2563C4.34339 14.2614 4.37588 14.2639 4.40823 14.2639C4.55557 14.2639 4.69908 14.2117 4.81286 14.1146L5.42697 13.5906V18.9219C5.42697 19.0999 5.57125 19.2442 5.74923 19.2442C5.9272 19.2442 6.07149 19.0999 6.07149 18.9219V13.5907L6.68555 14.1147C6.79933 14.2118 6.94284 14.264 7.09018 14.264C7.12249 14.264 7.15502 14.2614 7.18742 14.2564C7.36763 14.228 7.52584 14.1227 7.62153 13.9674L8.59063 12.3943L9.96201 12.9929C10.0488 13.0308 10.1301 13.0775 10.2065 13.1302L9.30735 14.2092C8.94375 14.6455 8.74347 15.1987 8.74347 15.7666V18.922C8.74347 19.1 8.88776 19.2443 9.06573 19.2443C9.24371 19.2443 9.388 19.1 9.388 18.922V15.7666C9.388 15.3491 9.53521 14.9426 9.80247 14.6218L10.6483 13.6068C10.7897 13.8484 10.8649 14.1291 10.8526 14.4184L10.6623 18.9084C10.6548 19.0862 10.7928 19.2364 10.9706 19.244C10.9753 19.2442 10.9799 19.2443 10.9845 19.2443C11.1562 19.2443 11.2989 19.1089 11.3063 18.9357L11.4966 14.4458C11.5335 13.573 11.0204 12.7517 10.2198 12.4022ZM5.74918 0.644524C6.43479 0.644524 7.01323 1.0819 7.18428 1.67452C6.73939 1.5066 6.25531 1.41426 5.74918 1.41426C5.24306 1.41426 4.75898 1.5066 4.31409 1.67452C4.48514 1.0819 5.06354 0.644524 5.74918 0.644524ZM3.10427 7.95502C3.04747 7.64552 2.76048 7.42071 2.45171 7.44357C2.42434 7.4455 2.39607 7.44318 2.36754 7.43639C2.24465 7.4073 2.15197 7.27298 2.15197 7.12397V6.89254C2.15197 6.74306 2.25187 6.60839 2.37935 6.58601C2.48695 6.5671 2.58994 6.60663 2.65508 6.69158C2.71425 6.76875 2.79318 6.82392 2.88337 6.85116C3.01533 6.89104 3.16095 6.86762 3.27275 6.7886C3.47122 6.64853 3.6467 6.47777 3.79434 6.28115C3.90121 6.13884 3.87246 5.9368 3.73015 5.82998C3.58779 5.72312 3.3858 5.75186 3.27894 5.89418C3.20585 5.9915 3.12357 6.07997 3.03307 6.15856C2.89519 6.04065 2.72611 5.96683 2.54676 5.94445C2.48501 5.70172 2.45343 5.45349 2.45343 5.2038C2.45343 3.46969 3.93188 2.05883 5.74918 2.05883C7.56644 2.05883 9.0449 3.46965 9.0449 5.2038C9.0449 5.45302 9.01349 5.70073 8.95195 5.94303C8.86714 5.94978 8.78094 5.96365 8.70115 5.98437L8.45889 5.78516C8.33716 5.68505 8.18394 5.63495 8.02887 5.64419C7.55518 5.67216 5.12928 5.73622 3.88466 4.24668C3.77054 4.11013 3.56734 4.09191 3.43075 4.20604C3.29415 4.32016 3.27597 4.5234 3.3901 4.65995C4.00394 5.39458 4.90426 5.89134 6.06599 6.13643C6.95548 6.32407 7.74618 6.30585 8.05598 6.28819L8.43393 6.59898C8.53796 6.68453 8.68383 6.69661 8.80032 6.6288C8.85498 6.59903 9.03802 6.57058 9.1179 6.58652C9.24822 6.61243 9.34645 6.74246 9.34645 6.88902V7.12397C9.34645 7.27303 9.25376 7.40735 9.13088 7.43639C9.10239 7.44314 9.07407 7.44559 9.0467 7.44353C8.7381 7.4211 8.45094 7.64552 8.3941 7.95498C8.15966 9.23135 7.04734 10.1577 5.74923 10.1577C4.45107 10.1577 3.33871 9.23135 3.10427 7.95502ZM4.41291 13.6086L3.44364 12.0353L3.94018 11.5387L5.27469 12.8733L4.41291 13.6086ZM5.74918 12.4362L4.56395 11.251V10.5843C4.93395 10.7251 5.33377 10.8023 5.74918 10.8023C6.1646 10.8023 6.56442 10.7251 6.93442 10.5843V11.251L5.74918 12.4362ZM7.08546 13.6086L6.22368 12.8733L7.55819 11.5387L8.05473 12.0353L7.08546 13.6086Z" fill="#C32925"/>
<path d="M4.54315 15.585H3.63867C3.46069 15.585 3.31641 15.7292 3.31641 15.9072C3.31641 16.0852 3.46069 16.2295 3.63867 16.2295H4.54315C4.72113 16.2295 4.86541 16.0852 4.86541 15.9072C4.86541 15.7292 4.72113 15.585 4.54315 15.585Z" fill="#C32925"/>
</svg>
