<?xml version="1.0"?>
<svg xmlns="http://www.w3.org/2000/svg" viewBox="0 0 64 64" width="30" height="30"><g id="Outline"><g><path d="M57,44a1,1,0,0,0-1,1v7H54V41a1,1,0,0,0-1-1H41a1,1,0,0,0-1,1v8a1,1,0,0,0,2,0V42H52V52H50a1,1,0,0,0,0,2h2v6H38V58h3a1,1,0,0,0,0-2H36V54h5a1,1,0,0,0,0-2H29V48h4a4,4,0,0,0,4-4V40a3,3,0,0,0-1.9-2.785A.491.491,0,0,1,35.5,37,2.5,2.5,0,0,0,38,34.5V34h2a1,1,0,0,0,.857-1.515l-3-5a1.039,1.039,0,0,0-1.714,0l-3,5A1,1,0,0,0,34,34h2v.5a.5.5,0,0,1-.5.5,2.5,2.5,0,0,0-2.467,2.174A3,3,0,0,0,31,40v2H26.444A3.959,3.959,0,0,0,27,40V38a1,1,0,0,0,1-1V36a5.009,5.009,0,0,0-4-4.9V31a1,1,0,0,0-2,0v.1A5.009,5.009,0,0,0,18,36v1a1,1,0,0,0,1,1v2a3.953,3.953,0,0,0,.58,2.042A4.991,4.991,0,0,0,15,47v1H11a1,1,0,0,0,0,2h1v2H8V44h3a1,1,0,0,0,1-1V31a1,1,0,0,0-1-1H8V27.741a1,1,0,0,0-2,0V61a1,1,0,0,0,1,1H57a1,1,0,0,0,1-1V45A1,1,0,0,0,57,44ZM37,29.944,38.234,32H35.766ZM56,56H54V54h2ZM34,56H30V54h4ZM24,56V54h4v2Zm-6,0V54h4v2Zm-6,0V54h4v2Zm8-6h4v2H20Zm2-6.142a3.592,3.592,0,0,0,2,0V44a1,1,0,0,1-2,0Zm0-10.674V34a1,1,0,0,0,2,0v-.816A3,3,0,0,1,26,36H20A3,3,0,0,1,22,33.184ZM25,38v2a2,2,0,0,1-4,0V38Zm-8,9a3,3,0,0,1,3-3,3,3,0,0,0,6,0h6a1,1,0,0,0,1-1V40a.972.972,0,0,1,.154-.5.966.966,0,0,0,1.692,0A.972.972,0,0,1,35,40v4a2,2,0,0,1-2,2H28a1,1,0,0,0-1,1v5H26V49a1,1,0,0,0-1-1H17Zm-3,3h4v2H14Zm-4,4v2H8V54Zm0-12H8V38h2Zm0-10v4H8V32ZM8,58h4v2H8Zm6,0h4v2H14Zm6,0h4v2H20Zm6,0h4v2H26Zm6,2V58h4v2Zm24,0H54V58h2Z"/><path d="M61.527,20.15l-10.959-6.8a1,1,0,1,0-1.055,1.7L59.7,21.369l-1.1,2.2L32.533,7.154a1,1,0,0,0-1.066,0L5.4,23.566l-1.1-2.2L32,4.177l14.113,8.76a1,1,0,0,0,1.054-1.7L32.527,2.15a1,1,0,0,0-1.054,0l-29,18a1,1,0,0,0-.368,1.3l2,4a1,1,0,0,0,1.428.4L8.465,24H49.824a1,1,0,0,0,0-2H38V15a1,1,0,0,0-1-1H27a1,1,0,0,0-1,1v7H11.641L32,9.182,56,24.293V41a1,1,0,0,0,2,0V25.552l.467.294a1,1,0,0,0,1.428-.4l2-4A1,1,0,0,0,61.527,20.15ZM33,22V20h3v2Zm3-4H33V16h3Zm-5-2v2H28V16Zm-3,4h3v2H28Z"/></g></g></svg>
