<svg width="64" height="68" viewBox="0 0 64 68" fill="none" xmlns="http://www.w3.org/2000/svg">
<g clip-path="url(#clip0)">
<path d="M11.3125 47.9453V59.8984H52.3341V47.9453H11.3125Z" fill="#FF9F00"/>
<path d="M31.8232 47.9453H52.334V59.8984H31.8232V47.9453Z" fill="#FF7816"/>
<path d="M52.5195 30.5733L49.4987 36.8684H14.1458L11.125 30.5733C15.5627 23.9991 23.2824 20.0547 31.8222 20.0547C40.3621 20.0547 48.0818 23.9991 52.5195 30.5733Z" fill="#FF4B00"/>
<path d="M52.5205 30.5733L49.4997 36.8684H31.8232V20.0547C40.3631 20.0547 48.0828 23.9991 52.5205 30.5733Z" fill="#CC1E0D"/>
<path d="M59.3072 26.5888L52.3333 51.9295H11.3117L4.33789 26.5888L9.03682 24.6765C11.1627 29.0193 15.2274 31.5692 18.5464 32.0076H20.4858C24.7744 31.2906 27.9811 24.278 29.2868 17.584H34.3587C35.6639 24.278 38.8712 31.2906 43.1593 32.0076H45.0987C48.4176 31.5692 52.4824 29.0193 54.6082 24.6765L59.3072 26.5888Z" fill="#FDBF00"/>
<path d="M59.3079 26.5888L52.334 51.9295H31.8232V17.584H34.3589C35.6646 24.278 38.8714 31.2906 43.16 32.0076H45.0994C48.4183 31.5692 52.4831 29.0193 54.6089 24.6765L59.3079 26.5888Z" fill="#FF9F00"/>
<path d="M5.71816 28.0234C2.63377 28.0234 0 25.3423 0 22.0469C0 18.7515 2.63377 16.0703 5.71816 16.0703C8.80254 16.0703 11.312 18.7515 11.312 22.0469C11.312 25.3423 8.80254 28.0234 5.71816 28.0234Z" fill="#FF9F00"/>
<path d="M57.9269 28.0234C54.8425 28.0234 52.333 25.3423 52.333 22.0469C52.333 18.7515 54.8425 16.0703 57.9269 16.0703C61.0112 16.0703 63.645 18.7515 63.645 22.0469C63.645 25.3423 61.0112 28.0234 57.9269 28.0234Z" fill="#FF7816"/>
<path d="M31.8224 8.10156C28.7268 8.10156 26.2285 10.7708 26.2285 14.0781C26.2285 17.3849 28.7268 20.0547 31.8224 20.0547C34.9179 20.0547 37.4162 17.3849 37.4162 14.0781C37.4162 10.7708 34.9179 8.10156 31.8224 8.10156Z" fill="#FF9F00"/>
<path d="M31.8234 31.1709L25.4463 37.9843L31.8234 44.7977L38.2005 37.9843L31.8234 31.1709Z" fill="#FF4B00"/>
<path d="M43.0107 39.1514L45.6474 41.9684L43.0107 44.7855L40.374 41.9684L43.0107 39.1514Z" fill="#CC1E0D"/>
<path d="M20.6347 39.1514L23.2714 41.9684L20.6347 44.7855L17.998 41.9684L20.6347 39.1514Z" fill="#FF4B00"/>
<path d="M31.8232 20.0547V8.10156C34.9188 8.10156 37.4171 10.7708 37.4171 14.0781C37.4171 17.3849 34.9188 20.0547 31.8232 20.0547Z" fill="#FF7816"/>
<path d="M38.2003 37.9843L31.8232 44.7977V31.1709L38.2003 37.9843Z" fill="#CC1E0D"/>
</g>
<defs>
<clipPath id="clip0">
<rect width="63.6456" height="68" fill="white"/>
</clipPath>
</defs>
</svg>
