<svg width="23" height="26" viewBox="0 0 23 26" fill="none" xmlns="http://www.w3.org/2000/svg">
<path d="M22.2047 11.9174C21.7425 11.3683 21.0069 11.2276 20.4066 11.5197C19.7888 10.5443 18.5087 10.5922 17.9087 11.2558L14.5822 14.9332L11.0454 14.3993L12.9998 12.7133C13.1792 12.5587 13.3152 12.3611 13.3998 12.1405H14.8604C15.8989 12.1405 16.744 11.243 16.744 10.14V7.42235C16.9843 7.52933 17.9195 7.90573 18.6193 6.96404C19.1497 6.25032 19.0296 5.20461 18.3658 4.64465L13.2872 0.360758C12.717 -0.120253 11.9206 -0.120253 11.3504 0.360758L8.25706 2.97009C8.10262 3.10017 8.07697 3.3386 8.19945 3.50262C8.32211 3.66644 8.54662 3.69368 8.70088 3.56361L11.7942 0.954273C12.1031 0.693734 12.5346 0.693734 12.8432 0.954273L17.9218 5.23817C18.2873 5.54647 18.3369 6.0936 18.0548 6.5002C17.6043 7.14938 16.9414 6.69837 16.8728 6.64073L12.5408 2.98628C12.4107 2.87673 12.2269 2.87673 12.0968 2.98628L7.76455 6.64073C7.40047 6.94785 6.86187 6.88904 6.57993 6.49645C6.17608 5.93451 6.53923 5.38699 6.7156 5.23817L7.4408 4.62649C7.59506 4.49622 7.62089 4.25799 7.49823 4.09397C7.37557 3.93014 7.15124 3.90271 6.9968 4.03298L6.27179 4.64465C5.94618 4.9194 5.26558 5.95919 6.02107 6.96779C6.7117 7.89014 7.68612 7.54196 7.89354 7.43992V10.14C7.89354 10.4862 7.9755 10.8178 8.12938 11.1111C7.29026 11.4445 6.53347 12.0025 5.95082 12.7293L3.64365 15.6066L0.955671 17.1862C0.521706 17.4413 0.207616 17.8607 0.0717577 18.3672C-0.0642862 18.8738 -0.00555692 19.406 0.236609 19.8657L2.87181 24.867C3.20932 25.5073 3.84307 25.8707 4.49355 25.8707C4.79017 25.8707 5.09033 25.7951 5.36743 25.636L7.17187 24.5992C7.62256 24.3402 7.9545 23.8896 8.08292 23.3628C8.21116 22.8358 8.12659 22.2707 7.85079 21.8122L4.31607 15.937L6.49407 13.2207C7.13767 12.418 8.02623 11.8517 8.9949 11.6267L12.0077 10.9369C12.3185 10.8763 12.5129 11.0385 12.5387 11.0616C12.5458 11.0693 12.5465 11.0693 12.5558 11.0776C12.7032 11.2079 12.7868 11.3993 12.7855 11.603C12.7844 11.8063 12.6984 11.9968 12.5497 12.1251L9.96096 14.3582C9.85093 14.4534 9.80428 14.6085 9.8422 14.7536C9.88011 14.8988 9.99534 15.0064 10.1358 15.0275L15.5921 15.8512C16.2513 15.9509 16.9144 15.7383 17.4118 15.2683L20.4986 12.3513C20.8407 12.028 21.3673 12.0599 21.6724 12.4225C21.9555 12.7589 21.9553 13.2657 21.6719 13.6017L18.1966 17.7205C17.6019 18.4256 16.7921 18.9127 15.9171 19.0925L8.66148 20.5827C8.46782 20.6224 8.34125 20.8214 8.3788 21.0268C8.41188 21.208 8.5193 21.3675 8.79696 21.3268L16.0526 19.8366C17.0798 19.6256 18.0301 19.0538 18.7282 18.2264L22.2034 14.1073C22.7297 13.4834 22.7303 12.5421 22.2047 11.9174ZM7.39192 23.1729C7.312 23.5014 7.11333 23.7712 6.83232 23.9324L5.02788 24.9693C4.48426 25.2817 3.79642 25.0697 3.4946 24.4969L0.859214 19.4956C0.710532 19.2131 0.674477 18.8863 0.75811 18.575C0.841558 18.2637 1.03447 18.006 1.30098 17.8492L3.75275 16.4086L7.24919 22.2204C7.42129 22.5062 7.47202 22.8445 7.39192 23.1729ZM8.84343 10.8859C8.84287 10.8861 8.84231 10.8863 8.84175 10.8863C8.68954 10.6726 8.60721 10.4138 8.60721 10.14V6.89792L12.3189 3.76711L16.0303 6.89792V10.14C16.0303 10.8251 15.5055 11.3825 14.8604 11.3825H14.4288V8.01172C14.4288 7.18017 13.7917 6.50375 13.0087 6.50375H11.6288C10.8458 6.50375 10.2087 7.18017 10.2087 8.01172V10.5735L8.84343 10.8859ZM11.8711 10.1929C11.8682 10.1935 11.8652 10.1941 11.8622 10.1949L10.9222 10.4101V8.01172C10.9222 7.59821 11.2391 7.26168 11.6286 7.26168H13.0087C13.3983 7.26168 13.7152 7.59821 13.7152 8.01172V11.3825H13.484C13.4355 11.0417 13.0573 9.97149 11.8711 10.1929ZM16.9375 14.702C16.5972 15.0234 16.1433 15.1686 15.6926 15.1007L15.4529 15.0646L18.4234 11.7809C18.7553 11.4139 19.5632 11.4733 19.8288 11.9697L16.9375 14.702Z" fill="#C32925"/>
<path d="M3.86645 23.423C4.0352 23.739 4.3097 23.9664 4.63941 24.0631C4.75296 24.0964 4.86726 24.1124 4.97989 24.1124C5.54153 24.1124 6.05802 23.7163 6.21469 23.1143C6.30576 22.7641 6.26301 22.3972 6.09426 22.0812C5.9255 21.7652 5.651 21.538 5.3213 21.4413C4.9916 21.3446 4.6461 21.39 4.34855 21.569C4.051 21.7484 3.83708 22.0398 3.74601 22.3899C3.65495 22.7403 3.69769 23.107 3.86645 23.423ZM4.43385 22.5918C4.47418 22.4369 4.56897 22.3078 4.70055 22.2284C4.78716 22.1763 4.88269 22.1499 4.97933 22.1499C5.03007 22.1499 5.08099 22.157 5.13117 22.1718C5.27725 22.2146 5.39861 22.3153 5.47332 22.4552C5.54804 22.5952 5.56699 22.7574 5.52666 22.9124V22.9126C5.48633 23.0675 5.39174 23.1966 5.25997 23.2759C5.1282 23.3553 4.97524 23.3754 4.82935 23.3326C4.68327 23.2898 4.5619 23.1891 4.48719 23.0491C4.41248 22.9092 4.39352 22.747 4.43385 22.5918Z" fill="#C32925"/>
</svg>
