<svg width="15" height="15" viewBox="0 0 15 15" fill="none" xmlns="http://www.w3.org/2000/svg">
<g clip-path="url(#clip0)">
<path d="M10.1087 5.86956C10.2887 5.86956 10.4348 5.72346 10.4348 5.54346V1.63042C10.4348 0.731739 9.7037 0 8.80434 0H1.63042C0.731097 0 0 0.731739 0 1.63042V13.3695C0 14.2682 0.731097 15 1.63042 15H8.80434C9.7037 15 10.4348 14.2682 10.4348 13.3695V9.45651C10.4348 9.27651 10.2887 9.13041 10.1087 9.13041C9.92867 9.13041 9.7826 9.27651 9.7826 9.45651V13.3695C9.7826 13.9089 9.3437 14.3478 8.80434 14.3478H1.63042C1.09107 14.3478 0.652163 13.9089 0.652163 13.3695V1.63042C0.652163 1.09107 1.09107 0.652163 1.63042 0.652163H8.80434C9.3437 0.652163 9.7826 1.09107 9.7826 1.63042V5.54346C9.7826 5.72346 9.9287 5.86956 10.1087 5.86956Z" fill="#C32925"/>
<path d="M14.674 7.17383H4.23918C4.05918 7.17383 3.91309 7.31993 3.91309 7.49993C3.91309 7.67993 4.05918 7.82599 4.23918 7.82599H14.674C14.854 7.82599 15 7.67989 15 7.49989C15 7.31989 14.854 7.17383 14.674 7.17383Z" fill="#C32925"/>
<path d="M14.9046 7.27065L12.9481 5.31413C12.8209 5.18696 12.6142 5.18696 12.487 5.31413C12.3598 5.4413 12.3598 5.64805 12.487 5.77523L14.2126 7.50088L12.487 9.22653C12.3598 9.3537 12.3598 9.56045 12.487 9.68762C12.5509 9.75087 12.6344 9.78285 12.7179 9.78285C12.8013 9.78285 12.8848 9.7509 12.9481 9.68829L14.9046 7.73178C15.0318 7.60457 15.0318 7.39782 14.9046 7.27065Z" fill="#C32925"/>
</g>
<defs>
<clipPath id="clip0">
<rect width="15" height="15" fill="white"/>
</clipPath>
</defs>
</svg>
