<svg width="24" height="28" viewBox="0 0 24 28" fill="none" xmlns="http://www.w3.org/2000/svg">
<path d="M22.7389 0H1.26107C0.56572 0 0 0.56572 0 1.26101V3.80941C0 4.19733 0.134986 4.57656 0.379987 4.87735L9.25098 15.7645C9.37943 15.9222 9.45027 16.1211 9.45027 16.3246V26.6044C9.45027 26.8947 9.59769 27.1591 9.84462 27.3117C9.97901 27.3948 10.1298 27.4367 10.2812 27.4367C10.408 27.4367 10.5352 27.4073 10.6536 27.3481L13.8526 25.7486C14.2825 25.5336 14.5497 25.1014 14.5497 24.6207V16.3246C14.5497 16.1211 14.6205 15.9222 14.749 15.7645L23.62 4.87729C23.865 4.57656 24 4.19733 24 3.80935V1.26101C24 0.56572 23.4343 0 22.7389 0ZM13.7459 16.3246V24.6208C13.7459 24.7951 13.649 24.9518 13.4931 25.0297L10.2941 26.6293C10.2891 26.6318 10.2803 26.6362 10.2672 26.6281C10.2541 26.62 10.2541 26.6103 10.2541 26.6046V16.3246C10.2541 16.3057 10.2535 16.2868 10.2528 16.268H13.7471C13.7465 16.2868 13.7459 16.3057 13.7459 16.3246ZM23.1962 3.43644H21.8799C21.6579 3.43644 21.478 3.61633 21.478 3.83835C21.478 4.06036 21.6579 4.24025 21.8799 4.24025H23.0842C23.059 4.28564 23.0299 4.32899 22.9969 4.36956L14.126 15.2567C14.0725 15.3222 14.0246 15.3918 13.9819 15.4641H10.0182C9.97548 15.3918 9.92757 15.3223 9.87414 15.2567L1.00315 4.36956C0.970089 4.32899 0.941045 4.28564 0.915859 4.24025H2.1205C2.34251 4.24025 2.5224 4.06036 2.5224 3.83835C2.5224 3.61633 2.34251 3.43644 2.1205 3.43644H0.803862V1.26101C0.803862 1.00889 1.00894 0.803808 1.26107 0.803808H22.739C22.9912 0.803808 23.1962 1.00889 23.1962 1.26101V3.43644H23.1962Z" fill="#818181"/>
<path d="M20.1605 3.43652H3.83745C3.61544 3.43652 3.43555 3.61642 3.43555 3.83843C3.43555 4.06044 3.61544 4.24033 3.83745 4.24033H20.1604C20.3825 4.24033 20.5623 4.06044 20.5623 3.83843C20.5623 3.61642 20.3825 3.43652 20.1605 3.43652Z" fill="#818181"/>
</svg>
