<svg width="50" height="56" viewBox="0 0 50 56" fill="none" xmlns="http://www.w3.org/2000/svg">
<path d="M48.9083 26.8566H40.8282V1.09181C40.8282 0.650318 40.5621 0.252165 40.1542 0.0831653C39.7462 -0.0859434 39.2766 0.00772689 38.9645 0.319743L35.8717 3.41239L32.7792 0.319852C32.3529 -0.106468 31.6616 -0.106468 31.2352 0.319852L28.1425 3.4125L25.0502 0.319852C24.6239 -0.106468 23.9326 -0.106468 23.5062 0.319852L20.4135 3.4125L17.3207 0.319852C16.8944 -0.106468 16.2031 -0.106468 15.7768 0.319852L12.6842 3.4125L9.59175 0.319852C9.16543 -0.106468 8.47414 -0.106468 8.04772 0.319852L4.95507 3.4125L1.86253 0.319852C1.43883 -0.103848 0.753549 -0.106031 0.326138 0.313848C0.101678 0.534486 -0.00716721 0.828488 0.000365719 1.12053V50.2197C0.000365719 53.3499 2.54693 55.8965 5.67713 55.8965H44.3217C44.3219 55.8965 44.322 55.8965 44.3223 55.8965C44.3226 55.8965 44.3229 55.8965 44.3232 55.8965C47.4534 55.8965 50 53.3499 50 50.2197V27.9482C50 27.3453 49.5112 26.8566 48.9083 26.8566ZM5.67713 53.713C3.75078 53.713 2.18371 52.1458 2.18371 50.2196V3.72888L4.1831 5.72827C4.60942 6.15459 5.30071 6.15459 5.72714 5.72827L8.81979 2.63563L11.9124 5.72827C12.3388 6.15459 13.03 6.15459 13.4565 5.72827L16.5491 2.63563L19.6419 5.72827C20.0682 6.15459 20.7595 6.15459 21.1858 5.72827L24.2784 2.63563L27.3711 5.72827C27.7974 6.15459 28.4887 6.15459 28.9151 5.72827L32.0078 2.63563L35.1004 5.72827C35.5268 6.15459 36.2181 6.15459 36.6443 5.72827L38.6454 3.72735V27.9482C38.6454 27.9582 38.6466 27.9679 38.6469 27.9778V50.2196C38.6469 51.5364 39.0989 52.7489 39.854 53.713H5.67713ZM47.8165 50.2196C47.8165 52.1458 46.2494 53.713 44.3231 53.713C42.3969 53.713 40.8297 52.1458 40.8297 50.2196V29.04H47.8165V50.2196Z" fill="#C32925"/>
<path d="M20.4143 17.3426C19.3308 17.3426 18.4493 16.5878 18.4493 15.6601C18.4493 14.7324 19.3309 13.9776 20.4143 13.9776C21.4979 13.9776 22.3793 14.7324 22.3793 15.6601C22.3793 16.2631 22.8681 16.7519 23.4711 16.7519C24.074 16.7519 24.5628 16.2631 24.5628 15.6601C24.5628 13.8805 23.2654 12.3789 21.5061 11.9311V11.1916C21.5061 10.5886 21.0173 10.0999 20.4143 10.0999C19.8114 10.0999 19.3226 10.5886 19.3226 11.1916V11.9311C17.5632 12.3789 16.2659 13.8806 16.2659 15.6601C16.2659 17.7917 18.1269 19.5259 20.4143 19.5259C21.4979 19.5259 22.3793 20.2808 22.3793 21.2085C22.3793 22.1363 21.4979 22.891 20.4143 22.891C19.3308 22.891 18.4493 22.1362 18.4493 21.2085C18.4493 20.6056 17.9606 20.1168 17.3576 20.1168C16.7546 20.1168 16.2659 20.6056 16.2659 21.2085C16.2659 22.9881 17.5633 24.4897 19.3226 24.9375V25.8284C19.3226 26.4313 19.8114 26.9201 20.4143 26.9201C21.0173 26.9201 21.5061 26.4313 21.5061 25.8284V24.9375C23.2655 24.4897 24.5628 22.9881 24.5628 21.2085C24.5628 19.0769 22.7017 17.3426 20.4143 17.3426Z" fill="#C32925"/>
<path d="M31.3826 17.3428H29.2548C28.6519 17.3428 28.1631 17.8315 28.1631 18.4345C28.1631 19.0375 28.6519 19.5262 29.2548 19.5262H31.3826C31.9856 19.5262 32.4743 19.0375 32.4743 18.4345C32.4743 17.8315 31.9856 17.3428 31.3826 17.3428Z" fill="#C32925"/>
<path d="M11.574 17.3428H9.44622C8.84326 17.3428 8.35449 17.8315 8.35449 18.4345C8.35449 19.0375 8.84326 19.5262 9.44622 19.5262H11.574C12.177 19.5262 12.6657 19.0375 12.6657 18.4345C12.6657 17.8315 12.177 17.3428 11.574 17.3428Z" fill="#C32925"/>
<path d="M31.9348 29.4774H14.6393C14.0364 29.4774 13.5476 29.9662 13.5476 30.5691C13.5476 31.1721 14.0364 31.6609 14.6393 31.6609H31.9348C32.5378 31.6609 33.0266 31.1721 33.0266 30.5691C33.0264 29.9662 32.5378 29.4774 31.9348 29.4774Z" fill="#C32925"/>
<path d="M9.66558 29.7973C9.46252 29.5942 9.18086 29.4774 8.89373 29.4774C8.60661 29.4774 8.32494 29.5942 8.12188 29.7973C7.91882 30.0004 7.802 30.282 7.802 30.5691C7.802 30.8563 7.91882 31.1379 8.12188 31.341C8.32494 31.5441 8.60661 31.6609 8.89373 31.6609C9.18086 31.6609 9.46252 31.5441 9.66558 31.341C9.86864 31.1379 9.98546 30.8563 9.98546 30.5691C9.98546 30.282 9.86864 30.0004 9.66558 29.7973Z" fill="#C32925"/>
<path d="M31.9348 36.6826H14.6393C14.0364 36.6826 13.5476 37.1714 13.5476 37.7743C13.5476 38.3773 14.0364 38.8661 14.6393 38.8661H31.9348C32.5378 38.8661 33.0266 38.3773 33.0266 37.7743C33.0264 37.1714 32.5378 36.6826 31.9348 36.6826Z" fill="#C32925"/>
<path d="M9.66558 37.0025C9.46252 36.7994 9.18086 36.6826 8.89373 36.6826C8.60661 36.6826 8.32494 36.7994 8.12188 37.0025C7.91882 37.2056 7.802 37.4872 7.802 37.7743C7.802 38.0615 7.91882 38.3431 8.12188 38.5462C8.32494 38.7493 8.60661 38.8661 8.89373 38.8661C9.18086 38.8661 9.46252 38.7493 9.66558 38.5462C9.86864 38.3431 9.98546 38.0615 9.98546 37.7743C9.98546 37.4872 9.86864 37.2056 9.66558 37.0025Z" fill="#C32925"/>
<path d="M31.9348 43.8878H14.6393C14.0364 43.8878 13.5476 44.3766 13.5476 44.9795C13.5476 45.5825 14.0364 46.0713 14.6393 46.0713H31.9348C32.5378 46.0713 33.0266 45.5825 33.0266 44.9795C33.0266 44.3766 32.5378 43.8878 31.9348 43.8878Z" fill="#C32925"/>
<path d="M9.66558 44.2077C9.46252 44.0046 9.18086 43.8878 8.89373 43.8878C8.60661 43.8878 8.32494 44.0046 8.12188 44.2077C7.91882 44.4108 7.802 44.6924 7.802 44.9795C7.802 45.2667 7.91882 45.5483 8.12188 45.7514C8.32494 45.9545 8.60661 46.0713 8.89373 46.0713C9.18086 46.0713 9.46252 45.9545 9.66558 45.7514C9.86864 45.5483 9.98546 45.2667 9.98546 44.9795C9.98546 44.6924 9.86864 44.4108 9.66558 44.2077Z" fill="#C32925"/>
</svg>
