<svg width="24" height="21" viewBox="0 0 24 21" fill="none" xmlns="http://www.w3.org/2000/svg">
<path d="M16.0827 7.3479C15.7004 7.3479 15.3906 7.56052 15.3906 7.82287V16.7998C15.3906 17.0619 15.7004 17.2747 16.0827 17.2747C16.4649 17.2747 16.7747 17.0619 16.7747 16.7998V7.82287C16.7747 7.56052 16.4649 7.3479 16.0827 7.3479Z" fill="#C32925"/>
<path d="M7.91663 7.3479C7.53439 7.3479 7.22461 7.56052 7.22461 7.82287V16.7998C7.22461 17.0619 7.53439 17.2747 7.91663 17.2747C8.29886 17.2747 8.60864 17.0619 8.60864 16.7998V7.82287C8.60864 7.56052 8.29886 7.3479 7.91663 7.3479Z" fill="#C32925"/>
<path d="M1.96549 6.03792V17.7402C1.96549 18.4318 2.33503 19.0814 2.98057 19.5475C3.62313 20.0148 4.51737 20.2801 5.45324 20.2812H18.5468C19.4829 20.2801 20.3771 20.0148 21.0194 19.5475C21.665 19.0814 22.0345 18.4318 22.0345 17.7402V6.03792C23.3177 5.80415 24.1493 4.95329 23.9776 4.04955C23.8057 3.14599 22.6841 2.47009 21.3563 2.4699H17.8131V1.87619C17.8172 1.37692 17.5295 0.897495 17.0146 0.544793C16.4996 0.192277 15.8 -0.00401936 15.0725 6.24071e-05H8.92747C8.20002 -0.00401936 7.50042 0.192277 6.98545 0.544793C6.47048 0.897495 6.18285 1.37692 6.18691 1.87619V2.4699H2.64374C1.3159 2.47009 0.194315 3.14599 0.0223877 4.04955C-0.149269 4.95329 0.682254 5.80415 1.96549 6.03792ZM18.5468 19.3313H5.45324C4.27002 19.3313 3.34956 18.6337 3.34956 17.7402V6.07967H20.6504V17.7402C20.6504 18.6337 19.73 19.3313 18.5468 19.3313ZM7.57098 1.87619C7.56638 1.62887 7.70803 1.39083 7.96376 1.21624C8.21922 1.04166 8.56686 0.945734 8.92747 0.950001H15.0725C15.4331 0.945734 15.7808 1.04166 16.0362 1.21624C16.292 1.39065 16.4336 1.62887 16.429 1.87619V2.4699H7.57098V1.87619ZM2.64374 3.41984H21.3563C22.0442 3.41984 22.6019 3.8026 22.6019 4.27479C22.6019 4.74697 22.0442 5.12973 21.3563 5.12973H2.64374C1.95576 5.12973 1.39808 4.74697 1.39808 4.27479C1.39808 3.8026 1.95576 3.41984 2.64374 3.41984Z" fill="#C32925"/>
<path d="M12.0006 7.3479C11.6184 7.3479 11.3086 7.56052 11.3086 7.82287V16.7998C11.3086 17.0619 11.6184 17.2747 12.0006 17.2747C12.3829 17.2747 12.6927 17.0619 12.6927 16.7998V7.82287C12.6927 7.56052 12.3829 7.3479 12.0006 7.3479Z" fill="#C32925"/>
</svg>
