<svg width="238" height="66" viewBox="0 0 238 66" fill="none" xmlns="http://www.w3.org/2000/svg">
<path d="M226.085 14.6665C219.633 14.6665 214.2 19.5554 214.2 26.3998C214.2 33.2443 218.954 38.1332 226.085 38.1332C233.216 38.1332 238.297 31.5332 237.97 25.3941C237.643 19.2551 232.537 14.6665 226.085 14.6665Z" fill="#002A54"/>
<path d="M226.111 17.6001C221.497 17.6001 217.356 21.0223 217.611 26.1557C217.866 31.289 221.011 34.7112 226.111 34.7112C231.211 34.7112 234.854 30.0668 234.611 25.4223C234.368 20.7779 230.725 17.6001 226.111 17.6001Z" fill="white"/>
<path d="M101.515 18.5775V15.1553H116.329V18.5775H110.743V37.6442H107.343V18.5775H101.515Z" fill="#002A54"/>
<path d="M119.729 37.6443V15.1554C119.729 15.1554 125.071 15.1552 129.443 15.1554C133.814 15.1555 136 19.8 136 23.9555C136 28.1111 134.541 29.3536 131.629 31.7776L135.271 37.6443L131.629 37.6442L128.714 32.7553L122.886 32.7554V37.6443H119.729Z" fill="#002A54"/>
<path d="M141.343 37.6442V15.1553H144.743V37.6442H141.343Z" fill="#002A54"/>
<path d="M173.643 37.6442V15.1553H176.557C180.524 20.5331 188.457 31.3375 188.457 31.5331V15.1553H191.614V37.6442H188.457L177.043 21.7553V37.6442H173.643Z" fill="#002A54"/>
<path d="M197.686 15.1553V37.6442H201.086V28.111H209.586V24.6888H201.086V18.8221H212.014V15.1553H197.686Z" fill="#002A54"/>
<path d="M149.842 31.2888C149.81 27.8665 149.842 15.1553 149.842 15.1553H153.242C153.242 15.1553 153.269 29.3323 153.36 31.2883C153.451 33.2443 156.885 34.711 158.946 34.711C161.006 34.711 164.657 33.9776 164.9 31.2888C165.142 28.5999 164.9 15.1553 164.9 15.1553H168.542C168.542 15.1553 168.785 28.3554 168.542 31.2888C168.3 34.2221 163.56 37.8653 158.946 37.6442C154.331 37.423 149.874 34.711 149.842 31.2888Z" fill="#002A54"/>
<path d="M122.886 18.5779V29.3334H129.2C131.143 29.3334 132.843 26.4001 132.843 23.4667C132.843 20.5335 131.629 18.8223 129.2 18.5779C126.771 18.3335 122.886 18.5779 122.886 18.5779Z" fill="white"/>
<path d="M44.6859 5.44045L13.5146 23.4033C13.211 23.5782 12.8284 23.3817 12.7959 23.0311C12.5625 20.5121 12.7303 19.2175 14.0859 18.1516L44.6514 0.327228C44.6744 0.313846 44.6988 0.302192 44.7236 0.292867C45.8223 -0.119407 46.3976 -0.0796783 47.3573 0.307121L81.2938 19.7918C81.5711 19.951 81.6231 20.3323 81.3924 20.5544C79.3864 22.4848 78.0327 22.9092 75.5759 22.0788C75.5448 22.0683 75.5147 22.0543 75.4861 22.0376L47.3887 5.45893C47.3678 5.44661 47.3458 5.43576 47.3233 5.42681C46.3716 5.0469 45.7996 4.97792 44.6859 5.44045Z" fill="#D9D9D9"/>
<path d="M44.6859 5.44045L13.5146 23.4033C13.211 23.5782 12.8284 23.3817 12.7959 23.0311C12.5625 20.5121 12.7303 19.2175 14.0859 18.1516L44.6514 0.327228C44.6744 0.313846 44.6988 0.302192 44.7236 0.292867C45.8223 -0.119407 46.3976 -0.0796783 47.3573 0.307121L81.2938 19.7918C81.5711 19.951 81.6231 20.3323 81.3924 20.5544C79.3864 22.4848 78.0327 22.9092 75.5759 22.0788C75.5448 22.0683 75.5147 22.0543 75.4861 22.0376L47.3887 5.45893C47.3678 5.44661 47.3458 5.43576 47.3233 5.42681C46.3716 5.0469 45.7996 4.97792 44.6859 5.44045Z" fill="#002A54"/>
<path d="M51.2432 46.0179C48.9958 46.2441 23.0427 46.0517 19.1799 46.0217C18.9071 46.0195 18.706 45.7913 18.7283 45.5177C18.9063 43.331 19.8062 41.8544 21.805 41.3855C21.8394 41.3774 21.8753 41.3734 21.9108 41.3734H49.5432C49.8113 41.3734 50.0289 41.1546 50.0289 40.8846V23.2846C50.0289 23.0145 49.8113 22.7957 49.5432 22.7957H41.5289C41.2606 22.7957 41.0432 23.0145 41.0432 23.2846V32.7196C41.0432 32.7845 41.03 32.8499 41.0047 32.9096C40.0161 35.2481 39.0992 36.018 37.1795 36.2047C36.9039 36.2316 36.6718 36.0073 36.6718 35.7286V21.6461C36.6718 21.5979 36.6789 21.5495 36.693 21.5035C37.1635 19.9712 37.6891 19.1718 39.7305 18.1979C39.7946 18.1674 39.8656 18.1514 39.9364 18.1514H51.2043C51.2301 18.1514 51.2568 18.1536 51.282 18.1578C53.5911 18.5404 54.3459 19.328 54.8734 21.5201C54.8817 21.5551 54.886 21.5916 54.8865 21.6276C54.9006 22.7345 55.1211 40.4645 54.886 42.5957C54.6432 44.7957 53.6718 45.7734 51.2432 46.0179Z" fill="#D9D9D9"/>
<path d="M51.2432 46.0179C48.9958 46.2441 23.0427 46.0517 19.1799 46.0217C18.9071 46.0195 18.706 45.7913 18.7283 45.5177C18.9063 43.331 19.8062 41.8544 21.805 41.3855C21.8394 41.3774 21.8753 41.3734 21.9108 41.3734H49.5432C49.8113 41.3734 50.0289 41.1546 50.0289 40.8846V23.2846C50.0289 23.0145 49.8113 22.7957 49.5432 22.7957H41.5289C41.2606 22.7957 41.0432 23.0145 41.0432 23.2846V32.7196C41.0432 32.7845 41.03 32.8499 41.0047 32.9096C40.0161 35.2481 39.0992 36.018 37.1795 36.2047C36.9039 36.2316 36.6718 36.0073 36.6718 35.7286V21.6461C36.6718 21.5979 36.6789 21.5495 36.693 21.5035C37.1635 19.9712 37.6891 19.1718 39.7305 18.1979C39.7946 18.1674 39.8656 18.1514 39.9364 18.1514H51.2043C51.2301 18.1514 51.2568 18.1536 51.282 18.1578C53.5911 18.5404 54.3459 19.328 54.8734 21.5201C54.8817 21.5551 54.886 21.5916 54.8865 21.6276C54.9006 22.7345 55.1211 40.4645 54.886 42.5957C54.6432 44.7957 53.6718 45.7734 51.2432 46.0179Z" fill="#002A54"/>
<path d="M69.2147 46.018H60.3912C60.0673 46.018 59.8341 45.7038 59.9332 45.3935C60.7696 42.7853 61.7235 41.7012 64.1147 41.3735H72.6099C72.9576 41.3735 73.1922 41.732 73.0504 42.0516C71.8385 44.776 70.8341 45.9838 69.2147 46.018Z" fill="#D9D9D9"/>
<path d="M69.2147 46.018H60.3912C60.0673 46.018 59.8341 45.7038 59.9332 45.3935C60.7696 42.7853 61.7235 41.7012 64.1147 41.3735H72.6099C72.9576 41.3735 73.1922 41.732 73.0504 42.0516C71.8385 44.776 70.8341 45.9838 69.2147 46.018Z" fill="#002A54"/>
<path d="M78.5883 55.796H10.0492C9.74764 55.796 9.51833 55.5218 9.57507 55.2235C10.0095 52.9409 10.6262 51.3774 12.8716 51.1516C15.1737 50.9198 75.0906 51.1276 81.3209 51.1496C81.6167 51.1506 81.8047 51.417 81.7522 51.7104C81.3505 53.9554 80.6729 54.9356 78.7767 55.7569C78.7175 55.7828 78.6529 55.796 78.5883 55.796Z" fill="#D9D9D9"/>
<path d="M78.5883 55.796H10.0492C9.74764 55.796 9.51833 55.5218 9.57507 55.2235C10.0095 52.9409 10.6262 51.3774 12.8716 51.1516C15.1737 50.9198 75.0906 51.1276 81.3209 51.1496C81.6167 51.1506 81.8047 51.417 81.7522 51.7104C81.3505 53.9554 80.6729 54.9356 78.7767 55.7569C78.7175 55.7828 78.6529 55.796 78.5883 55.796Z" fill="#002A54"/>
<path d="M87.5839 65.8181H0.632784C0.313581 65.8181 0.0808057 65.5125 0.174106 65.2055C0.955362 62.6325 2.11657 61.156 4.37177 60.9292H90.777C91.0645 60.9292 91.2903 61.18 91.2505 61.467C90.8916 64.0537 89.9561 64.9435 87.7548 65.7863C87.7004 65.8073 87.6421 65.8181 87.5839 65.8181Z" fill="#D9D9D9"/>
<path d="M87.5839 65.8181H0.632784C0.313581 65.8181 0.0808057 65.5125 0.174106 65.2055C0.955362 62.6325 2.11657 61.156 4.37177 60.9292H90.777C91.0645 60.9292 91.2903 61.18 91.2505 61.467C90.8916 64.0537 89.9561 64.9435 87.7548 65.7863C87.7004 65.8073 87.6421 65.8181 87.5839 65.8181Z" fill="#002A54"/>
<path d="M119.485 63.0666V56.2222H121.428V63.0666H119.485Z" fill="#002A54"/>
<path d="M131.629 56.2222V63.0666H133.572V59.3999L135.515 61.5999L137.215 59.3999V63.0666H139.157V56.2222H137.215L135.515 58.9111L133.572 56.2222H131.629Z" fill="#002A54"/>
<path d="M153.971 55.2445H153L153.729 53.7778H154.7L153.971 55.2445Z" fill="#002A54"/>
<path d="M168.786 63.0666L166.357 56.2222H168.543L169.757 60.1333L170.972 56.2222H173.157L170.729 63.0666H168.786Z" fill="#002A54"/>
<path d="M183.114 56.2222H187.729V57.6888H184.571V58.9111H187.243V60.3777H184.571V61.3555H187.729V63.0666H183.114V56.2222Z" fill="#002A54"/>
<path d="M198.172 63.0666V56.2222H200.115V63.0666H198.172Z" fill="#002A54"/>
<path d="M213.472 63.0666C211.772 63.0666 210.833 62.6129 210.8 60.8666H212.257C212.265 61.4469 212.541 61.8468 213.472 61.8444C214.268 61.7989 214.686 61.3555 214.686 61.1111C214.686 60.8666 214.443 60.3777 213.714 60.3777L211.772 60.1333C210.557 59.6444 210.8 58.4222 210.8 57.9333C211.043 56.7111 212.014 56.2222 213.472 56.2222C214.929 56.2222 215.945 56.7863 216.143 58.1777H214.929C214.724 57.5578 214.443 57.1999 213.714 57.1999C212.986 57.1999 212.257 57.1999 212.257 57.9333C212.257 58.6666 212.13 58.9893 213.714 59.1555C215.537 59.3467 216.422 60.475 216.143 61.5999C215.864 62.7249 215.172 63.0666 213.472 63.0666Z" fill="#002A54"/>
<path d="M153.483 55.7334C151.375 55.7334 149.6 57.3629 149.6 59.6445C149.6 61.9262 151.153 63.5556 153.483 63.5556C155.813 63.5556 157.473 61.3556 157.366 59.3091C157.259 57.2631 155.591 55.7334 153.483 55.7334Z" fill="#002A54"/>
<path d="M153.486 57.689C152.432 57.689 151.487 58.4712 151.546 59.6445C151.604 60.8179 152.322 61.6001 153.486 61.6001C154.65 61.6001 155.482 60.5387 155.426 59.4768C155.371 58.4155 154.539 57.689 153.486 57.689Z" fill="white"/>
</svg>
