<svg width="281" height="272" viewBox="0 0 281 272" fill="none" xmlns="http://www.w3.org/2000/svg">
<path d="M256.469 172C243.186 172 232 182 232 196C232 210 241.788 220 256.469 220C271.15 220 281.611 206.5 280.938 193.943C280.264 181.386 269.752 172 256.469 172Z" fill="#002A54"/>
<path d="M256.523 178C247.023 178 238.498 185 239.023 195.5C239.548 206 246.023 213 256.523 213C267.023 213 274.523 203.5 274.023 194C273.523 184.5 266.023 178 256.523 178Z" fill="white"/>
<path d="M0 180V173H30.5V180H19V219H12V180H0Z" fill="#002A54"/>
<path d="M37.5 219V173C37.5 173 48.5 172.999 57.5 173C66.5 173 71 182.5 71 191C71 199.5 67.9966 202.041 62 207L69.5 219L62 219L56 209L44 209V219H37.5Z" fill="#002A54"/>
<path d="M82 219V173H89V219H82Z" fill="#002A54"/>
<path d="M148.5 219V173H154.5C162.667 184 179 206.1 179 206.5V173H185.5V219H179L155.5 186.5V219H148.5Z" fill="#002A54"/>
<path d="M198 173V219H205V199.5H222.5V192.5H205V180.5H227.5V173H198Z" fill="#002A54"/>
<path d="M99.5 206C99.4336 199 99.5 173 99.5 173H106.5C106.5 173 106.555 201.998 106.742 205.999C106.93 210 114 213 118.242 213C122.484 213 130 211.5 130.5 206C131 200.5 130.5 173 130.5 173H138C138 173 138.5 200 138 206C137.5 212 127.742 219.452 118.242 219C108.742 218.547 99.5664 213 99.5 206Z" fill="#002A54"/>
<path d="M44 180V202H57C61 202 64.5 196 64.5 190C64.5 184 62 180.5 57 180C52 179.5 44 180 44 180Z" fill="white"/>
<path d="M132 11.1282L67.8237 47.8703C67.1987 48.2282 66.4109 47.8262 66.344 47.1091C65.8634 41.9565 66.209 39.3086 68.9999 37.1282L131.929 0.669331C131.976 0.641958 132.026 0.61812 132.078 0.599046C134.339 -0.244242 135.524 -0.162978 137.5 0.628203L207.369 40.4833C207.94 40.8088 208.047 41.5889 207.572 42.043C203.442 45.9916 200.655 46.8597 195.597 45.1612C195.533 45.1397 195.471 45.111 195.412 45.0769L137.564 11.166C137.521 11.1408 137.476 11.1186 137.43 11.1003C135.47 10.3232 134.293 10.1821 132 11.1282Z" fill="#D9D9D9"/>
<path d="M132 11.1282L67.8237 47.8703C67.1987 48.2282 66.4109 47.8262 66.344 47.1091C65.8634 41.9565 66.209 39.3086 68.9999 37.1282L131.929 0.669331C131.976 0.641958 132.026 0.61812 132.078 0.599046C134.339 -0.244242 135.524 -0.162978 137.5 0.628203L207.369 40.4833C207.94 40.8088 208.047 41.5889 207.572 42.043C203.442 45.9916 200.655 46.8597 195.597 45.1612C195.533 45.1397 195.471 45.111 195.412 45.0769L137.564 11.166C137.521 11.1408 137.476 11.1186 137.43 11.1003C135.47 10.3232 134.293 10.1821 132 11.1282Z" fill="#002A54"/>
<path d="M145.5 94.1279C140.873 94.5906 87.4402 94.197 79.4873 94.1356C78.9257 94.1313 78.5116 93.6645 78.5575 93.1048C78.924 88.6319 80.7769 85.6117 84.8919 84.6525C84.9629 84.636 85.0368 84.6279 85.1098 84.6279H142C142.552 84.6279 143 84.1802 143 83.6279V47.6279C143 47.0756 142.552 46.6279 142 46.6279H125.5C124.948 46.6279 124.5 47.0756 124.5 47.6279V66.9269C124.5 67.0596 124.473 67.1933 124.421 67.3154C122.385 72.0988 120.498 73.6735 116.545 74.0555C115.978 74.1104 115.5 73.6517 115.5 73.0817V44.2765C115.5 44.178 115.515 44.079 115.544 43.9849C116.512 40.8505 117.595 39.2154 121.797 37.2233C121.929 37.1609 122.076 37.1282 122.221 37.1282H145.42C145.473 37.1282 145.528 37.1327 145.58 37.1413C150.334 37.9239 151.888 39.535 152.974 44.0187C152.991 44.0903 153 44.165 153.001 44.2387C153.03 46.5028 153.484 82.7687 153 87.1279C152.5 91.6279 150.5 93.6279 145.5 94.1279Z" fill="#D9D9D9"/>
<path d="M145.5 94.1279C140.873 94.5906 87.4402 94.197 79.4873 94.1356C78.9257 94.1313 78.5116 93.6645 78.5575 93.1048C78.924 88.6319 80.7769 85.6117 84.8919 84.6525C84.9629 84.636 85.0368 84.6279 85.1098 84.6279H142C142.552 84.6279 143 84.1802 143 83.6279V47.6279C143 47.0756 142.552 46.6279 142 46.6279H125.5C124.948 46.6279 124.5 47.0756 124.5 47.6279V66.9269C124.5 67.0596 124.473 67.1933 124.421 67.3154C122.385 72.0988 120.498 73.6735 116.545 74.0555C115.978 74.1104 115.5 73.6517 115.5 73.0817V44.2765C115.5 44.178 115.515 44.079 115.544 43.9849C116.512 40.8505 117.595 39.2154 121.797 37.2233C121.929 37.1609 122.076 37.1282 122.221 37.1282H145.42C145.473 37.1282 145.528 37.1327 145.58 37.1413C150.334 37.9239 151.888 39.535 152.974 44.0187C152.991 44.0903 153 44.165 153.001 44.2387C153.03 46.5028 153.484 82.7687 153 87.1279C152.5 91.6279 150.5 93.6279 145.5 94.1279Z" fill="#002A54"/>
<path d="M182.5 94.1279H164.334C163.667 94.1279 163.187 93.4853 163.391 92.8506C165.113 87.5156 167.077 85.2982 172 84.6279H189.49C190.206 84.6279 190.689 85.3611 190.397 86.0148C187.902 91.5874 185.834 94.058 182.5 94.1279Z" fill="#D9D9D9"/>
<path d="M182.5 94.1279H164.334C163.667 94.1279 163.187 93.4853 163.391 92.8506C165.113 87.5156 167.077 85.2982 172 84.6279H189.49C190.206 84.6279 190.689 85.3611 190.397 86.0148C187.902 91.5874 185.834 94.058 182.5 94.1279Z" fill="#002A54"/>
<path d="M201.799 114.128H60.6891C60.0683 114.128 59.5962 113.567 59.713 112.957C60.6075 108.288 61.8771 105.09 66.4999 104.628C71.2396 104.154 194.598 104.579 207.425 104.624C208.034 104.626 208.421 105.171 208.313 105.771C207.486 110.363 206.091 112.368 202.187 114.048C202.065 114.101 201.932 114.128 201.799 114.128Z" fill="#D9D9D9"/>
<path d="M201.799 114.128H60.6891C60.0683 114.128 59.5962 113.567 59.713 112.957C60.6075 108.288 61.8771 105.09 66.4999 104.628C71.2396 104.154 194.598 104.579 207.425 104.624C208.034 104.626 208.421 105.171 208.313 105.771C207.486 110.363 206.091 112.368 202.187 114.048C202.065 114.101 201.932 114.128 201.799 114.128Z" fill="#002A54"/>
<path d="M220.319 134.628H41.3021C40.6449 134.628 40.1656 134.003 40.3577 133.375C41.9662 128.112 44.3569 125.092 49 124.628H226.893C227.485 124.628 227.95 125.141 227.868 125.728C227.129 131.019 225.203 132.839 220.671 134.563C220.559 134.606 220.439 134.628 220.319 134.628Z" fill="#D9D9D9"/>
<path d="M220.319 134.628H41.3021C40.6449 134.628 40.1656 134.003 40.3577 133.375C41.9662 128.112 44.3569 125.092 49 124.628H226.893C227.485 124.628 227.95 125.141 227.868 125.728C227.129 131.019 225.203 132.839 220.671 134.563C220.559 134.606 220.439 134.628 220.319 134.628Z" fill="#002A54"/>
<path d="M37 271V257H41V271H37Z" fill="#002A54"/>
<path d="M62 257V271H66V263.5L70 268L73.5 263.5V271H77.5V257H73.5L70 262.5L66 257H62Z" fill="#002A54"/>
<path d="M108 255H106L107.5 252H109.5L108 255Z" fill="#002A54"/>
<path d="M138.5 271L133.5 257H138L140.5 265L143 257H147.5L142.5 271H138.5Z" fill="#002A54"/>
<path d="M168 257H177.5V260H171V262.5H176.5V265.5H171V267.5H177.5V271H168V257Z" fill="#002A54"/>
<path d="M199 271V257H203V271H199Z" fill="#002A54"/>
<path d="M230.5 271C227 271 225.068 270.072 225 266.5H228C228.016 267.687 228.585 268.505 230.5 268.5C232.14 268.408 233 267.5 233 267C233 266.5 232.5 265.5 231 265.5L227 265C224.5 264 225 261.5 225 260.5C225.5 258 227.5 257 230.5 257C233.5 257 235.592 258.154 236 261H233.5C233.078 259.732 232.5 259 231 259C229.5 259 228 259 228 260.5C228 262 227.738 262.66 231 263C234.752 263.391 236.575 265.699 236 268C235.425 270.301 234 271 230.5 271Z" fill="#002A54"/>
<path d="M106.995 256C102.655 256 99 259.333 99 264C99 268.667 102.198 272 106.995 272C111.792 272 115.21 267.5 114.99 263.314C114.77 259.129 111.335 256 106.995 256Z" fill="#002A54"/>
<path d="M107 260C104.831 260 102.885 261.6 103.005 264C103.125 266.4 104.603 268 107 268C109.397 268 111.109 265.829 110.995 263.657C110.881 261.486 109.169 260 107 260Z" fill="white"/>
</svg>
