<svg width="131" height="109" viewBox="0 0 131 109" fill="none" xmlns="http://www.w3.org/2000/svg">
<g clip-path="url(#clip0)">
<path d="M69.5347 84.2018C69.5347 95.9709 69.5603 96.5501 69.9949 96.2257C70.7873 95.6002 70.9918 95.5771 71.682 96.0636L72.3467 96.5269V88.3025C72.3467 83.7616 72.449 80.0548 72.5768 80.0548C72.7557 80.0548 86.816 96.3416 87.6852 97.5926C87.8896 97.8938 88.1453 98.1255 88.2476 98.1255C88.3754 98.1255 88.4521 92.5421 88.4521 85.7309V73.3131L87.7108 73.6838C87.1484 73.9386 86.7649 73.9618 86.2791 73.7996C85.8957 73.6606 85.5633 73.5679 85.4867 73.5679C85.4355 73.5679 85.3844 77.1357 85.3844 81.4912C85.3844 89.067 85.3589 89.4144 84.9242 88.9512C84.6942 88.6732 82.3679 86.0783 79.7603 83.1593C74.7498 77.5064 70.4549 72.7339 69.8925 72.1779C69.5858 71.8999 69.5347 73.7996 69.5347 84.2018Z" fill="#C32925"/>
<path d="M116.828 73.3594C113.786 73.7533 110.437 75.4213 108.826 77.3442C106.219 80.4487 105.528 85.2444 107.088 89.3682C109.542 95.8551 117.978 98.4267 124.855 94.7662C126.389 93.9553 128.638 91.7313 129.456 90.2022C130.249 88.7659 130.888 86.2173 130.888 84.5725C130.888 82.9508 130.249 80.4023 129.482 78.966C128.204 76.6029 124.957 74.2861 122.068 73.6143C120.483 73.2436 118.362 73.1509 116.828 73.3594ZM121.531 75.6762C123.219 76.2322 124.931 77.6686 125.724 79.1281C126.031 79.7073 126.414 80.9815 126.568 81.9546C127.411 86.7503 125.059 91.8471 121.174 93.6773C119.614 94.4187 119.384 94.465 117.671 94.3492C112.993 94.048 110.437 90.9204 110.437 85.5224C110.437 81.9082 111.715 78.8501 114.016 76.9736C116.189 75.1897 118.796 74.7495 121.531 75.6762Z" fill="#C32925"/>
<path d="M45.0696 73.9154C44.3793 74.1703 44.2261 74.3788 44.2261 74.9348C44.2261 75.5835 44.2771 75.6067 45.0952 75.4908L45.99 75.375L46.0666 82.8581C46.1434 90.0399 46.1944 90.4107 46.7569 91.7081C47.5493 93.5383 49.3132 95.1369 51.2561 95.7856C52.611 96.2489 53.1479 96.2952 55.8832 96.2257C58.6186 96.1562 59.1299 96.0636 60.4081 95.4844C62.9645 94.3492 64.7028 92.0093 65.1886 88.9742C65.3164 88.0707 65.4442 84.6651 65.4442 81.3754V75.3982L66.3389 75.5603C67.2338 75.6993 67.2338 75.6993 67.2338 74.8885C67.2338 74.1008 67.1826 74.0776 65.9555 73.7996C64.3706 73.4521 63.5269 73.6143 62.9645 74.4251C62.5811 74.958 62.5299 75.8383 62.4788 82.0009C62.4533 88.511 62.4021 89.0669 61.8908 90.2717C60.8938 92.6348 58.7976 94.0017 56.1133 94.0248C54.196 94.048 52.5854 93.4225 51.4607 92.2641C50.0035 90.7581 49.8501 89.7852 49.8501 82.3716C49.8501 78.0161 49.7479 75.4677 49.5689 74.958C49.0832 73.7069 46.8847 73.1972 45.0696 73.9154Z" fill="#C32925"/>
<path d="M0.281206 74.4483C0.43459 74.8885 0.43459 75.3286 0.281206 75.7225L0 76.348H3.32333H6.64668V85.3602V94.3955L7.23464 94.9979C7.92488 95.7161 9.22865 95.9477 10.6858 95.6002C11.6317 95.3454 11.7595 95.2527 11.7595 94.6504C11.7595 94.0248 11.6828 93.9553 10.9926 93.9553H10.2256V85.1517V76.348H13.37H16.5144V75.0738L16.4888 73.7996H8.25721H0.0255642L0.281206 74.4483Z" fill="#C32925"/>
<path d="M19.9399 84.9431C19.9399 95.0442 19.9655 96.0867 20.349 95.9477C21.3459 95.6002 21.9851 95.5539 22.8542 95.7624L23.7746 95.9941V90.8046C23.7746 87.005 23.8512 85.615 24.0812 85.615C24.2346 85.615 24.8482 86.0552 25.4361 86.6112C26.1775 87.3062 26.919 88.4877 27.9671 90.6656C29.552 93.8858 30.6002 95.1137 32.4152 95.7854C33.2332 96.0867 33.2844 96.0867 34.128 95.3454L34.9971 94.5807L33.8724 93.9322C32.3896 93.075 31.6483 91.9861 30.8046 89.4376C30.1144 87.3757 29.0151 85.5687 28.2483 85.3138C27.5836 85.059 27.8137 84.8041 28.9641 84.5261C30.319 84.1786 31.8017 83.0666 32.543 81.8387C32.9776 81.0742 33.1054 80.4718 33.1054 79.1281C33.1054 76.6029 32.2873 75.4213 29.7821 74.3556C28.6061 73.8459 28.1971 73.7996 24.2346 73.7996H19.9399V84.9431ZM27.4813 76.209C28.7595 76.6955 29.3986 77.7844 29.3986 79.4525C29.3986 80.7035 29.3219 80.8657 28.4273 81.6765C27.4558 82.5801 26.1009 83.0666 24.6181 83.0666H23.7746V79.4756V75.8847H25.1805C25.9731 75.8847 26.9956 76.0237 27.4813 76.209Z" fill="#C32925"/>
<path d="M38.3462 83.8774C38.3462 91.1751 38.4228 94.0942 38.6529 94.5345C39.2153 95.6697 41.107 96.1331 42.9221 95.5539C43.5613 95.3454 43.7146 95.1832 43.7146 94.6272C43.7146 94.0248 43.6379 93.9552 42.8199 93.9552H41.9251V83.8774V73.7996H40.1357H38.3462V83.8774Z" fill="#C32925"/>
<path d="M92.7978 83.9006V94.0017L91.9031 93.909C91.0339 93.8162 91.0083 93.8395 91.0083 94.5809C91.0083 95.2527 91.1107 95.3454 91.9798 95.5539C94.2039 96.1331 95.6355 95.6002 96.1212 94.0017C96.249 93.5382 96.3768 91.1288 96.3768 88.6732V84.225H99.7768H103.151L103.177 83.1824L103.202 82.1399H99.7768H96.3768V79.244V76.348H100.467H104.557V75.0738V73.7996H98.6776H92.7978V83.9006Z" fill="#C32925"/>
<path d="M53.9401 101.091C53.9401 101.323 53.8123 101.624 53.6333 101.786C53.4032 101.994 53.4288 102.064 53.7867 102.064C54.2213 102.064 55.1927 101.23 55.2183 100.836C55.2183 100.743 54.9371 100.674 54.5791 100.674C54.1445 100.674 53.9401 100.79 53.9401 101.091Z" fill="#C32925"/>
<path d="M26.7144 105.655V108.783H27.5324H28.3505L28.4272 105.655L28.5039 102.527H27.6092H26.7144V105.655Z" fill="#C32925"/>
<path d="M35.1509 105.655V108.783H35.9179H36.6848L36.608 107.439C36.5569 106.674 36.5569 105.771 36.608 105.4C36.6848 104.659 36.5569 104.52 38.7299 107.925L39.2923 108.829L40.6216 106.767L41.9253 104.728V106.744V108.783H42.769H43.587V105.655V102.527H42.5134C41.6697 102.527 41.4141 102.62 41.4141 102.921C41.4141 103.361 39.6758 106.234 39.4201 106.234C39.1133 106.234 37.375 103.13 37.5028 102.805C37.5794 102.62 37.2728 102.527 36.378 102.527H35.1509V105.655Z" fill="#C32925"/>
<path d="M51.9722 102.968C50.7196 103.5 50.106 104.427 50.106 105.771C50.106 107.138 50.7196 108.041 51.9722 108.574C53.3527 109.13 54.7842 109.13 56.1135 108.551C58.2865 107.601 58.6955 105.122 56.9572 103.524C56.1903 102.828 55.8579 102.713 54.5542 102.62C53.4038 102.527 52.7903 102.62 51.9722 102.968ZM54.7842 103.663C56.5226 104.265 57.085 106.188 55.8579 107.277C54.9888 108.087 53.1481 108.087 52.279 107.277C51.1798 106.304 51.4864 104.497 52.8669 103.825C53.685 103.408 53.9662 103.385 54.7842 103.663Z" fill="#C32925"/>
<path d="M64.754 105.354C65.5976 106.929 66.2878 108.342 66.2878 108.481C66.2878 108.667 66.6458 108.783 67.2337 108.783C67.8473 108.783 68.1796 108.667 68.1796 108.481C68.1796 108.296 68.8188 106.929 69.6112 105.423C70.4293 103.941 71.0683 102.666 71.0683 102.62C71.0683 102.574 70.6593 102.527 70.1736 102.527C69.5856 102.527 69.2788 102.643 69.2788 102.852C69.2788 103.014 68.8188 104.033 68.2819 105.099L67.2593 107.045L66.2368 105.122C65.6744 104.056 65.2909 103.037 65.3676 102.852C65.4698 102.597 65.2397 102.527 64.3705 102.527H63.2202L64.754 105.354Z" fill="#C32925"/>
<path d="M77.2035 102.574C77.2035 102.62 77.1523 104.033 77.1267 105.724L77.0757 108.783H79.8877C81.4472 108.783 82.9554 108.852 83.2877 108.922C83.7735 109.061 83.8501 108.991 83.8501 108.412V107.74L81.2682 107.809L78.7118 107.879L78.7884 106.999L78.8652 106.118L80.6035 106.165C82.214 106.188 82.3162 106.165 82.3162 105.655C82.3162 105.145 82.2652 105.145 80.5267 105.261L78.7372 105.377V104.52V103.686H81.1659C83.5945 103.686 83.5945 103.686 83.5945 103.106V102.527H80.3989C78.635 102.527 77.2035 102.55 77.2035 102.574Z" fill="#C32925"/>
<path d="M90.1899 105.655L90.2667 108.783H91.0847H91.9028V105.655V102.527H91.008H90.1133L90.1899 105.655Z" fill="#C32925"/>
<path d="M99.8025 102.759C99.0867 103.014 98.4221 103.871 98.4221 104.566C98.4221 105.539 99.4191 106.164 101.311 106.327C103.203 106.512 103.791 106.883 103.151 107.485C102.436 108.111 99.1889 107.833 99.1889 107.114C99.1889 106.674 98.7799 106.975 98.5243 107.601C98.2431 108.25 98.2431 108.25 99.5724 108.644C101.285 109.13 102.41 109.107 103.535 108.597C104.557 108.134 105.043 107.392 104.864 106.558C104.685 105.724 103.816 105.284 101.848 105.076C100.902 104.96 100.033 104.751 99.9303 104.566C99.2913 103.639 102.282 103.269 103.56 104.126L104.225 104.589L104.532 103.987C104.915 103.246 104.711 103.107 102.947 102.759C101.49 102.481 100.544 102.481 99.8025 102.759Z" fill="#C32925"/>
</g>
<g clip-path="url(#clip1)">
<path d="M63.7539 0.254743C62.8028 0.742395 59.0433 2.83493 56.3022 4.40341C55.7689 4.70911 50.9352 7.43485 45.5608 10.4627C40.1865 13.4905 35.5468 16.107 35.2485 16.2744C34.9501 16.4419 34.5585 16.6602 34.372 16.7585C34.1892 16.8531 34.0326 16.9368 34.0289 16.9404C34.0027 16.955 34.9091 18.6144 35.2373 19.1603C35.4424 19.4988 36.0354 20.4922 36.5538 21.362C37.0722 22.2317 37.5272 22.9996 37.5683 23.0615L37.6391 23.1816L37.7771 23.1235C38.1576 22.9741 39.6979 22.1262 42.4839 20.5431C43.9161 19.728 50.8271 15.8232 56.9885 12.3478C57.4286 12.1003 58.6518 11.4198 59.711 10.8375C61.9637 9.59653 63.0342 8.99242 63.7764 8.54845C64.0709 8.37013 64.3171 8.22455 64.3245 8.22455C64.3283 8.22455 66.2266 9.29084 68.5427 10.5937C70.8552 11.9001 74.0515 13.6979 75.6402 14.5931C77.2291 15.4884 79.5564 16.8058 80.8057 17.5227C87.2543 21.2092 90.3237 22.905 90.9541 23.1235L91.1106 23.1744L91.2077 22.9487C91.3681 22.5812 91.7558 21.9079 92.8114 20.1648C93.356 19.2659 93.934 18.2942 94.0944 18.0067C94.3741 17.5154 94.6425 16.9623 94.6165 16.944C94.609 16.9404 94.3442 16.7985 94.0272 16.6311C93.0799 16.1362 91.1816 15.0735 88.4888 13.5269C87.094 12.7262 85.2141 11.6563 84.3115 11.1541C82.7376 10.2734 81.3466 9.48736 75.2859 6.05197C67.7036 1.75409 64.5222 0 64.3133 0C64.276 0 64.0262 0.116455 63.7539 0.254743Z" fill="#C32925"/>
<path d="M57.7824 22.5485L57.7002 22.603V30.1361V37.6655H64.3203H70.9404V30.1506C70.9404 22.683 70.9404 22.6357 70.8658 22.5629C70.7912 22.4901 70.7427 22.4901 64.3279 22.4901C58.5395 22.4901 57.857 22.4973 57.7824 22.5485Z" fill="#C32925"/>
<path d="M41.9985 43.3172C41.9985 45.4717 42.006 45.8865 42.0507 45.9485C42.103 46.0176 42.379 46.0176 64.3726 46.0285L86.642 46.0357V43.3974V40.7589H64.3203H41.9985V43.3172Z" fill="#C32925"/>
<path d="M36.2925 49.6203V52.2588H64.302H92.3113V49.6203V46.9818H64.302H36.2925V49.6203Z" fill="#C32925"/>
<path d="M28.833 56.2436V58.8821H64.3203H99.8076V56.2436V53.6053H64.3203H28.833V56.2436Z" fill="#C32925"/>
</g>
<defs>
<clipPath id="clip0">
<rect width="130.888" height="36.9172" fill="white" transform="translate(0 72.0828)"/>
</clipPath>
<clipPath id="clip1">
<rect width="70.9746" height="58.945" fill="white" transform="translate(28.833)"/>
</clipPath>
</defs>
</svg>
