<svg width="334" height="500" viewBox="0 0 334 500" fill="none" xmlns="http://www.w3.org/2000/svg">
<g opacity="0.2">
<g clip-path="url(#clip0_577_28)">
<path d="M42.6415 54.6441L-134.237 152.996C-135.96 153.954 -138.131 152.878 -138.316 150.958C-139.64 137.166 -138.688 130.078 -130.996 124.241L42.4459 26.6476C42.5762 26.5744 42.7146 26.5106 42.8557 26.4595C49.0898 24.2022 52.3545 24.4197 57.8004 26.5375L250.37 133.222C251.944 134.094 252.239 136.182 250.929 137.397C239.546 147.967 231.865 150.291 217.924 145.744C217.748 145.687 217.577 145.61 217.415 145.519L57.9784 54.7453C57.8599 54.6779 57.7348 54.6184 57.6071 54.5694C52.207 52.4893 48.9611 52.1116 42.6415 54.6441Z" fill="#D9D9D9"/>
<path d="M42.6415 54.6441L-134.237 152.996C-135.96 153.954 -138.131 152.878 -138.316 150.958C-139.64 137.166 -138.688 130.078 -130.996 124.241L42.4459 26.6476C42.5762 26.5744 42.7146 26.5106 42.8557 26.4595C49.0898 24.2022 52.3545 24.4197 57.8004 26.5375L250.37 133.222C251.944 134.094 252.239 136.182 250.929 137.397C239.546 147.967 231.865 150.291 217.924 145.744C217.748 145.687 217.577 145.61 217.415 145.519L57.9784 54.7453C57.8599 54.6779 57.7348 54.6184 57.6071 54.5694C52.207 52.4893 48.9611 52.1116 42.6415 54.6441Z" fill="#002A54"/>
<path d="M79.8498 276.819C67.0972 278.058 -80.1715 277.004 -102.091 276.84C-103.639 276.828 -104.78 275.579 -104.654 274.08C-103.643 262.107 -98.5365 254.023 -87.195 251.455C-86.9993 251.411 -86.7956 251.389 -86.5944 251.389H70.2033C71.7247 251.389 72.9595 250.191 72.9595 248.712V152.347C72.9595 150.869 71.7247 149.67 70.2033 149.67H24.7269C23.2047 149.67 21.9708 150.869 21.9708 152.347V204.007C21.9708 204.362 21.8958 204.72 21.7525 205.047C16.1429 217.851 10.9396 222.066 0.0464528 223.089C-1.51711 223.236 -2.83456 222.008 -2.83456 220.482V143.376C-2.83456 143.112 -2.79404 142.847 -2.71384 142.595C-0.0439571 134.205 2.93847 129.828 14.5223 124.496C14.8855 124.329 15.2888 124.241 15.6906 124.241H79.6293C79.7754 124.241 79.927 124.253 80.0703 124.276C93.1731 126.371 97.4561 130.684 100.449 142.686C100.496 142.877 100.521 143.077 100.524 143.275C100.604 149.335 101.855 246.413 100.521 258.081C99.1429 270.127 93.6306 275.481 79.8498 276.819Z" fill="#D9D9D9"/>
<path d="M79.8498 276.819C67.0972 278.058 -80.1715 277.004 -102.091 276.84C-103.639 276.828 -104.78 275.579 -104.654 274.08C-103.643 262.107 -98.5365 254.023 -87.195 251.455C-86.9993 251.411 -86.7956 251.389 -86.5944 251.389H70.2033C71.7247 251.389 72.9595 250.191 72.9595 248.712V152.347C72.9595 150.869 71.7247 149.67 70.2033 149.67H24.7269C23.2047 149.67 21.9708 150.869 21.9708 152.347V204.007C21.9708 204.362 21.8958 204.72 21.7525 205.047C16.1429 217.851 10.9396 222.066 0.0464528 223.089C-1.51711 223.236 -2.83456 222.008 -2.83456 220.482V143.376C-2.83456 143.112 -2.79404 142.847 -2.71384 142.595C-0.0439571 134.205 2.93847 129.828 14.5223 124.496C14.8855 124.329 15.2888 124.241 15.6906 124.241H79.6293C79.7754 124.241 79.927 124.253 80.0703 124.276C93.1731 126.371 97.4561 130.684 100.449 142.686C100.496 142.877 100.521 143.077 100.524 143.275C100.604 149.335 101.855 246.413 100.521 258.081C99.1429 270.127 93.6306 275.481 79.8498 276.819Z" fill="#002A54"/>
<path d="M181.827 276.819H131.759C129.921 276.819 128.598 275.099 129.16 273.4C133.906 259.12 139.319 253.184 152.888 251.39H201.093C203.066 251.39 204.397 253.352 203.593 255.102C196.716 270.019 191.016 276.632 181.827 276.819Z" fill="#D9D9D9"/>
<path d="M181.827 276.819H131.759C129.921 276.819 128.598 275.099 129.16 273.4C133.906 259.12 139.319 253.184 152.888 251.39H201.093C203.066 251.39 204.397 253.352 203.593 255.102C196.716 270.019 191.016 276.632 181.827 276.819Z" fill="#002A54"/>
<path d="M235.018 330.356H-153.901C-155.612 330.356 -156.913 328.854 -156.591 327.221C-154.126 314.723 -150.627 306.163 -137.886 304.926C-124.822 303.657 215.171 304.795 250.524 304.916C252.203 304.921 253.27 306.38 252.972 307.986C250.693 320.278 246.848 325.645 236.088 330.142C235.752 330.284 235.385 330.356 235.018 330.356Z" fill="#D9D9D9"/>
<path d="M235.018 330.356H-153.901C-155.612 330.356 -156.913 328.854 -156.591 327.221C-154.126 314.723 -150.627 306.163 -137.886 304.926C-124.822 303.657 215.171 304.795 250.524 304.916C252.203 304.921 253.27 306.38 252.972 307.986C250.693 320.278 246.848 325.645 236.088 330.142C235.752 330.284 235.385 330.356 235.018 330.356Z" fill="#002A54"/>
<path d="M286.062 385.231H-207.335C-209.146 385.231 -210.467 383.558 -209.938 381.877C-205.505 367.788 -198.915 359.704 -186.118 358.462H304.181C305.812 358.462 307.094 359.836 306.868 361.407C304.831 375.57 299.523 380.442 287.032 385.057C286.723 385.172 286.393 385.231 286.062 385.231Z" fill="#D9D9D9"/>
<path d="M286.062 385.231H-207.335C-209.146 385.231 -210.467 383.558 -209.938 381.877C-205.505 367.788 -198.915 359.704 -186.118 358.462H304.181C305.812 358.462 307.094 359.836 306.868 361.407C304.831 375.57 299.523 380.442 287.032 385.057C286.723 385.172 286.393 385.231 286.062 385.231Z" fill="#002A54"/>
</g>
</g>
<defs>
<clipPath id="clip0_577_28">
<rect width="518.156" height="361.371" fill="white" transform="translate(-210.924 24.856)"/>
</clipPath>
</defs>
</svg>
