<svg width="296" height="539" viewBox="0 0 296 539" fill="none" xmlns="http://www.w3.org/2000/svg">
<g opacity="0.2">
<path d="M-4.21603 2.32581C-12.1361 6.77809 -43.4408 25.883 -66.266 40.2033C-70.7069 42.9942 -110.957 67.8804 -155.708 95.5244C-200.46 123.168 -239.094 147.058 -241.579 148.586C-244.063 150.115 -247.324 152.108 -248.877 153.005C-250.399 153.869 -251.703 154.633 -251.734 154.666C-251.952 154.799 -244.405 169.95 -241.672 174.934C-239.964 178.024 -235.026 187.094 -230.709 195.035C-226.392 202.976 -222.604 209.987 -222.262 210.552L-221.672 211.649L-220.523 211.118C-217.355 209.754 -204.529 202.013 -181.33 187.559C-169.404 180.117 -111.857 144.466 -60.5514 112.735C-56.8868 110.476 -46.7013 104.263 -37.8813 98.9467C-19.1229 87.6166 -10.2095 82.1011 -4.02905 78.0476C-1.57657 76.4195 0.473557 75.0904 0.535324 75.0904C0.567047 75.0904 16.3738 84.8256 35.6598 96.7204C54.9157 108.649 81.5307 125.062 94.7598 133.236C107.99 141.409 127.37 153.437 137.773 159.983C191.47 193.64 217.028 209.123 222.277 211.118L223.581 211.583L224.389 209.522C225.725 206.167 228.954 200.02 237.743 184.105C242.278 175.898 247.091 167.026 248.426 164.402C250.755 159.916 252.991 154.866 252.774 154.7C252.712 154.666 250.507 153.371 247.867 151.842C239.979 147.324 224.172 137.621 201.749 123.501C190.135 116.191 174.481 106.422 166.965 101.837C153.86 93.7965 142.277 86.6198 91.8098 55.2546C28.6729 16.0149 2.18144 0 0.441833 0C0.131317 0 -1.94887 1.06324 -4.21603 2.32581Z" fill="#00274E"/>
<path d="M-53.941 205.869L-54.6255 206.367V275.145V343.888H0.499466H55.6245V275.276C55.6245 207.097 55.6244 206.665 55.0034 206.001C54.3823 205.336 53.9783 205.336 0.562923 205.336C-47.637 205.336 -53.3199 205.402 -53.941 205.869Z" fill="#00274E"/>
<path d="M-185.375 395.486C-185.375 415.157 -185.313 418.944 -184.941 419.51C-184.506 420.141 -182.208 420.141 0.931458 420.24L186.367 420.306V396.218V372.129H0.495728H-185.375V395.486Z" fill="#00274E"/>
<path d="M-232.89 453.034V477.123H0.343124H233.574V453.034V428.944H0.343124H-232.89V453.034Z" fill="#00274E"/>
<path d="M-295 513.505V537.594H0.5H296V513.505V489.417H0.5H-295V513.505Z" fill="#00274E"/>
</g>
</svg>
