<svg width="290" height="539" viewBox="0 0 290 539" fill="none" xmlns="http://www.w3.org/2000/svg">
<g opacity="0.2">
<path d="M-10.2165 2.32581C-18.1366 6.77809 -49.4412 25.883 -72.2665 40.2033C-76.7074 42.9942 -116.957 67.8804 -161.709 95.5244C-206.461 123.168 -245.095 147.058 -247.579 148.586C-250.064 150.115 -253.325 152.108 -254.877 153.005C-256.399 153.869 -257.704 154.633 -257.735 154.666C-257.952 154.799 -250.405 169.95 -247.672 174.934C-245.964 178.024 -241.027 187.094 -236.71 195.035C-232.393 202.976 -228.604 209.987 -228.262 210.552L-227.672 211.649L-226.523 211.118C-223.355 209.754 -210.529 202.013 -187.33 187.559C-175.405 180.117 -117.857 144.466 -66.5518 112.735C-62.8873 110.476 -52.7018 104.263 -43.8818 98.9467C-25.1234 87.6166 -16.21 82.1011 -10.0295 78.0476C-7.57706 76.4195 -5.52693 75.0904 -5.46516 75.0904C-5.43344 75.0904 10.3733 84.8256 29.6593 96.7204C48.9152 108.649 75.5302 125.062 88.7593 133.236C101.99 141.409 121.369 153.437 131.772 159.983C185.47 193.64 211.028 209.123 216.277 211.118L217.581 211.583L218.389 209.522C219.724 206.167 222.953 200.02 231.743 184.105C236.277 175.898 241.09 167.026 242.426 164.402C244.755 159.916 246.99 154.866 246.773 154.7C246.712 154.666 244.506 153.371 241.867 151.842C233.978 147.324 218.172 137.621 195.749 123.501C184.134 116.191 168.481 106.422 160.965 101.837C147.859 93.7965 136.276 86.6198 85.8093 55.2546C22.6725 16.0149 -3.81905 0 -5.55865 0C-5.86917 0 -7.94936 1.06324 -10.2165 2.32581Z" fill="#C32925"/>
<path d="M-59.9405 205.869L-60.625 206.367V275.145V343.888H-5.50005H49.6249V275.276C49.6249 207.097 49.6249 206.665 49.0039 206.001C48.3828 205.336 47.9788 205.336 -5.43659 205.336C-53.6365 205.336 -59.3195 205.402 -59.9405 205.869Z" fill="#C32925"/>
<path d="M-191.376 395.486C-191.376 415.157 -191.314 418.944 -190.941 419.51C-190.506 420.141 -188.208 420.141 -5.06903 420.24L180.366 420.306V396.218V372.129H-5.50476H-191.376V395.486Z" fill="#C32925"/>
<path d="M-238.89 453.034V477.123H-5.65688H227.574V453.034V428.944H-5.65688H-238.89V453.034Z" fill="#C32925"/>
<path d="M-301 513.505V537.594H-5.5H290V513.505V489.417H-5.5H-301V513.505Z" fill="#C32925"/>
</g>
</svg>
