<svg width="628" height="494" viewBox="0 0 628 494" fill="none" xmlns="http://www.w3.org/2000/svg">
<g clip-path="url(#clip0)">
<path d="M342.047 179H227V248.793H342.047V179Z" fill="#E6E6E6"/>
<path d="M342.047 274H227V338.866H342.047V274Z" fill="#E6E6E6"/>
<path d="M505.004 76.9155H366.947V179.612H505.004V76.9155Z" fill="#E6E6E6"/>
<path d="M505.004 209.873H366.947V312.569H505.004V209.873Z" fill="#E6E6E6"/>
<path d="M451.818 186.99V164.881C451.818 157.023 454.942 149.488 460.503 143.932C466.063 138.376 473.605 135.254 481.469 135.254C489.333 135.254 496.874 138.376 502.435 143.932C507.995 149.488 511.119 157.023 511.119 164.881V186.99C511.118 188.045 510.698 189.056 509.951 189.802C509.205 190.548 508.192 190.968 507.136 190.969H455.801C454.745 190.968 453.733 190.548 452.986 189.802C452.24 189.056 451.82 188.045 451.818 186.99Z" fill="#2F2E41"/>
<path d="M525.314 474.714L514.855 477.606L498.715 438.678L514.15 434.41L525.314 474.714Z" fill="#FFB8B8"/>
<path d="M506.558 476.686L526.727 471.109L530.241 483.798L497.374 492.886C496.912 491.22 496.784 489.479 496.996 487.763C497.207 486.047 497.755 484.39 498.608 482.886C499.461 481.381 500.602 480.06 501.966 478.996C503.33 477.932 504.891 477.147 506.558 476.686Z" fill="#2F2E41"/>
<path d="M416.283 482.752H405.432L400.27 440.932H416.285L416.283 482.752Z" fill="#FFB8B8"/>
<path d="M397.68 479.654H418.607V492.819H384.504C384.504 491.09 384.845 489.378 385.507 487.781C386.169 486.184 387.14 484.732 388.363 483.51C389.587 482.287 391.039 481.317 392.638 480.656C394.236 479.994 395.95 479.654 397.68 479.654Z" fill="#2F2E41"/>
<path d="M403.197 249.035C403.972 250.08 404.966 250.942 406.11 251.561C407.254 252.18 408.52 252.541 409.819 252.619C411.118 252.696 412.418 252.488 413.628 252.009C414.837 251.53 415.927 250.792 416.82 249.846L445.665 262.809L443.042 246.598L416.052 236.773C414.363 235.379 412.221 234.652 410.032 234.731C407.843 234.809 405.758 235.688 404.174 237.199C402.589 238.71 401.615 240.75 401.435 242.932C401.255 245.113 401.882 247.285 403.197 249.035H403.197Z" fill="#FFB8B8"/>
<path d="M463.132 346.525C454.069 346.525 444.687 345.176 436.801 341.165C432.615 339.077 428.905 336.149 425.903 332.563C422.902 328.977 420.673 324.81 419.357 320.324C415.248 307.325 420.429 294.554 425.439 282.204C428.543 274.551 431.476 267.322 432.237 260.197L432.502 257.668C433.687 246.306 434.711 236.493 440.377 232.813C443.314 230.905 447.263 230.796 452.45 232.479L501.17 248.293L499.379 340.7L499.083 340.799C498.828 340.885 481.653 346.525 463.132 346.525Z" fill="#2F2E41"/>
<path d="M451.598 203.711C451.598 203.711 475.496 196.637 494.083 199.29C494.083 199.29 483.462 257.658 487.002 277.114C490.542 296.57 425.488 284.631 438.764 266.059L443.19 243.95C443.19 243.95 434.339 235.106 442.305 224.494L451.598 203.711Z" fill="#C32925"/>
<path d="M439.843 344.773L410.391 339.256L420.673 260.188C421.365 257.98 437.294 207.884 444.528 205.173C449.781 203.325 455.153 201.834 460.607 200.71L461.654 200.5L455.749 209.352L432.237 265.645L439.843 344.773Z" fill="#2F2E41"/>
<path d="M424.498 473.063L386.443 466.726L407.799 379.595L439.577 260.438L439.89 262.554C439.915 262.712 442.884 278.278 486.933 271.371L487.321 271.31L487.428 271.687L540.668 459.648L497.307 466.869L457.758 329.733L424.498 473.063Z" fill="#2F2E41"/>
<path d="M477.242 359.57L477.266 358.901C477.292 358.159 479.911 284.285 479.036 254.575C478.159 224.764 487.818 198.948 487.916 198.691L487.994 198.483L488.208 198.422C500.705 194.855 511.546 205.502 511.655 205.61L511.807 205.762L508.248 235.102L523.486 341.793L477.242 359.57Z" fill="#2F2E41"/>
<path d="M475.377 190.455C487.383 190.455 497.116 180.73 497.116 168.734C497.116 156.738 487.383 147.013 475.377 147.013C463.371 147.013 453.639 156.738 453.639 168.734C453.639 180.73 463.371 190.455 475.377 190.455Z" fill="#FFB8B8"/>
<path d="M444.805 166.649C444.812 160.436 447.285 154.479 451.682 150.086C456.079 145.692 462.041 143.221 468.26 143.214H472.685C478.904 143.221 484.865 145.692 489.263 150.086C493.66 154.479 496.133 160.436 496.14 166.649V167.092H486.787L483.598 158.167L482.96 167.092H478.126L476.517 162.589L476.195 167.092H444.805V166.649Z" fill="#2F2E41"/>
<path d="M473.238 193.456C472.799 192.862 472.537 192.156 472.482 191.419C472.426 190.683 472.581 189.946 472.926 189.293C477.616 180.38 484.182 163.912 475.467 153.755L474.84 153.025H500.143V190.982L477.157 195.034C476.925 195.075 476.689 195.096 476.452 195.097C475.825 195.097 475.206 194.948 474.648 194.663C474.089 194.377 473.606 193.964 473.238 193.456Z" fill="#2F2E41"/>
<path d="M371.366 36.7419C353.661 21.8141 331.995 12.3501 309.004 9.50148C286.014 6.65285 262.691 10.5424 241.872 20.6969C221.054 30.8514 203.639 46.833 191.745 66.6969C179.851 86.5608 173.992 109.451 174.881 132.581C175.77 155.711 183.368 178.085 196.751 196.979C210.133 215.874 228.724 230.474 250.26 239.004C271.796 247.534 295.349 249.625 318.053 245.024C340.758 240.422 361.634 229.327 378.141 213.086L524.728 336.674C526.959 338.558 529.847 339.48 532.757 339.236C535.668 338.993 538.362 337.604 540.248 335.376C542.134 333.147 543.056 330.261 542.812 327.353C542.568 324.445 541.178 321.753 538.948 319.869L538.932 319.855L392.345 196.267C409.374 171.847 416.662 141.954 412.781 112.444C408.9 82.9349 394.131 55.9372 371.366 36.7419ZM361.916 184.367C350.496 197.889 335.32 207.725 318.306 212.629C301.291 217.534 283.204 217.287 266.33 211.92C249.456 206.553 234.554 196.307 223.508 182.478C212.462 168.649 205.769 151.857 204.274 134.227C202.779 116.596 206.55 98.9188 215.11 83.4299C223.67 67.9409 236.635 55.336 252.364 47.2092C268.094 39.0824 285.882 35.7987 303.48 37.7733C321.077 39.7479 337.693 46.8921 351.227 58.3025H351.227C360.213 65.8787 367.618 75.1492 373.019 85.5848C378.419 96.0203 381.709 107.416 382.702 119.123C383.694 130.829 382.37 142.616 378.803 153.81C375.237 165.005 369.499 175.388 361.916 184.367Z" fill="#3F3D56"/>
<path opacity="0.3" d="M235.748 195.047C218.572 180.564 207.474 160.157 204.66 137.878C201.845 115.598 207.519 93.0762 220.555 74.7832C218.843 76.5058 217.188 78.3099 215.59 80.1954C208.007 89.1742 202.269 99.5572 198.703 110.752C195.136 121.946 193.811 133.733 194.804 145.439C195.797 157.146 199.087 168.542 204.487 178.977C209.888 189.413 217.292 198.683 226.279 206.26C235.265 213.836 245.656 219.569 256.86 223.133C268.064 226.696 279.86 228.02 291.576 227.028C303.292 226.037 314.697 222.749 325.142 217.353C335.586 211.957 344.864 204.558 352.446 195.58C354.041 193.692 355.542 191.758 356.95 189.779C341.096 205.696 319.831 215.073 297.378 216.049C274.925 217.025 252.925 209.528 235.748 195.047Z" fill="black"/>
<path d="M482.356 287.008C483.62 287.316 484.937 287.344 486.213 287.09C487.489 286.835 488.693 286.304 489.742 285.534C490.79 284.764 491.657 283.774 492.28 282.633C492.904 281.492 493.27 280.229 493.353 278.931L523.829 270.479L511.44 259.687L484.399 269.368C482.208 269.374 480.096 270.183 478.462 271.642C476.829 273.1 475.788 275.107 475.536 277.281C475.284 279.455 475.839 281.647 477.096 283.439C478.353 285.232 480.225 286.502 482.356 287.008Z" fill="#FFB8B8"/>
<path d="M495.023 282.534L493.168 264.93L518.625 250.895L502.028 230.82L504.736 208.269L511.48 205.381L511.69 205.651C514.87 209.737 542.761 245.695 542.761 250.141C542.761 254.706 537.425 268.114 530.125 271.761C523.084 275.279 496.642 282.116 495.52 282.406L495.023 282.534Z" fill="#2F2E41"/>
<path d="M627.114 494H289.895C289.66 494 289.435 493.907 289.269 493.741C289.103 493.575 289.01 493.35 289.01 493.116C289.01 492.881 289.103 492.656 289.269 492.49C289.435 492.325 289.66 492.231 289.895 492.231H627.114C627.349 492.231 627.574 492.325 627.74 492.49C627.906 492.656 627.999 492.881 627.999 493.116C627.999 493.35 627.906 493.575 627.74 493.741C627.574 493.907 627.349 494 627.114 494Z" fill="#CCCCCC"/>
<path d="M266.172 116.047C266.172 121.62 265.208 126.516 263.281 130.734C261.354 134.927 258.594 138.156 255 140.422C251.432 142.661 247.318 143.781 242.656 143.781C238.047 143.781 233.932 142.661 230.312 140.422C226.719 138.156 223.932 134.94 221.953 130.773C220 126.607 219.01 121.802 218.984 116.359V113.156C218.984 107.609 219.961 102.714 221.914 98.4688C223.893 94.224 226.667 90.9818 230.234 88.7422C233.828 86.4766 237.943 85.3438 242.578 85.3438C247.214 85.3438 251.315 86.4635 254.883 88.7031C258.477 90.9167 261.25 94.1198 263.203 98.3125C265.156 102.479 266.146 107.336 266.172 112.883V116.047ZM256.289 113.078C256.289 106.776 255.091 101.945 252.695 98.5859C250.326 95.2266 246.953 93.5469 242.578 93.5469C238.307 93.5469 234.961 95.2266 232.539 98.5859C230.143 101.919 228.919 106.646 228.867 112.766V116.047C228.867 122.297 230.078 127.128 232.5 130.539C234.948 133.951 238.333 135.656 242.656 135.656C247.031 135.656 250.391 133.99 252.734 130.656C255.104 127.323 256.289 122.453 256.289 116.047V113.078ZM312.109 122.297C312.109 128.833 310.625 134.055 307.656 137.961C304.688 141.841 300.703 143.781 295.703 143.781C291.068 143.781 287.357 142.258 284.57 139.211V159.25H275.078V100.734H283.828L284.219 105.031C287.005 101.646 290.794 99.9531 295.586 99.9531C300.742 99.9531 304.779 101.88 307.695 105.734C310.638 109.562 312.109 114.888 312.109 121.711V122.297ZM302.656 121.477C302.656 117.258 301.81 113.911 300.117 111.438C298.451 108.964 296.055 107.727 292.93 107.727C289.049 107.727 286.263 109.328 284.57 112.531V131.281C286.289 134.562 289.102 136.203 293.008 136.203C296.029 136.203 298.385 134.992 300.078 132.57C301.797 130.122 302.656 126.424 302.656 121.477ZM343.867 131.516C343.867 129.823 343.164 128.534 341.758 127.648C340.378 126.763 338.073 125.982 334.844 125.305C331.615 124.628 328.919 123.768 326.758 122.727C322.018 120.435 319.648 117.115 319.648 112.766C319.648 109.12 321.185 106.073 324.258 103.625C327.331 101.177 331.237 99.9531 335.977 99.9531C341.029 99.9531 345.104 101.203 348.203 103.703C351.328 106.203 352.891 109.445 352.891 113.43H343.398C343.398 111.607 342.721 110.096 341.367 108.898C340.013 107.674 338.216 107.062 335.977 107.062C333.893 107.062 332.188 107.544 330.859 108.508C329.557 109.471 328.906 110.76 328.906 112.375C328.906 113.833 329.518 114.966 330.742 115.773C331.966 116.581 334.44 117.401 338.164 118.234C341.888 119.042 344.805 120.018 346.914 121.164C349.049 122.284 350.625 123.638 351.641 125.227C352.682 126.815 353.203 128.742 353.203 131.008C353.203 134.81 351.628 137.896 348.477 140.266C345.326 142.609 341.198 143.781 336.094 143.781C332.63 143.781 329.544 143.156 326.836 141.906C324.128 140.656 322.018 138.938 320.508 136.75C318.997 134.562 318.242 132.206 318.242 129.68H327.461C327.591 131.919 328.438 133.651 330 134.875C331.562 136.073 333.633 136.672 336.211 136.672C338.711 136.672 340.612 136.203 341.914 135.266C343.216 134.302 343.867 133.052 343.867 131.516Z" fill="#C32925"/>
</g>
<defs>
<clipPath id="clip0">
<rect width="628" height="494" fill="white"/>
</clipPath>
</defs>
</svg>
