<svg width="77" height="116" viewBox="0 0 77 116" fill="none" xmlns="http://www.w3.org/2000/svg">
<path d="M57.3002 82.3928C54.5065 82.3928 51.9717 80.9635 50.52 78.5691C49.9749 77.6701 48.8076 77.3851 47.9132 77.9328C47.0187 78.4802 46.7349 79.653 47.28 80.5518C48.2897 82.217 49.6565 83.5615 51.2475 84.5237L49.2816 93.4873L44.5418 88.0041C45.4023 87.0103 45.1946 85.8492 44.4533 85.2017C43.6633 84.5113 42.4649 84.5949 41.7772 85.3892L38.4419 89.2426L30.0403 79.8641C30.7552 78.4848 31.1887 76.9706 31.3124 75.3926C47.5727 80.2014 63.8383 67.8722 63.8383 50.9363V35.1839C63.8383 34.1314 62.989 33.2781 61.9414 33.2781C60.8938 33.2781 60.0444 34.1314 60.0444 35.1839V50.9363C60.0444 62.8896 50.3647 72.6145 38.4666 72.6145C26.5684 72.6145 16.8887 62.8898 16.8887 50.9363V34.7627C21.5132 34.499 25.4468 31.5819 26.8487 26.2953C34.7471 31.3771 43.6007 34.6695 52.8919 35.9762C53.9334 36.122 54.889 35.3923 55.0336 34.3529C55.1787 33.3107 54.4555 32.3473 53.4181 32.2013C43.9571 30.8708 34.7246 27.3135 26.521 21.4789C25.2668 20.5866 23.5205 21.4944 23.528 23.0467C23.5283 23.0941 23.5105 27.8207 19.9418 29.9775C17.6852 31.3416 15.4027 30.9011 15.01 30.8968C14.0404 30.8875 13.2188 31.6184 13.1083 32.5825C13.0874 32.7669 13.0948 32.1391 13.0948 47.8325C11.8276 47.1721 10.9607 45.8581 10.9607 44.3459V21.1288C10.9607 18.6329 12.9817 16.6025 15.466 16.6025C16.2416 16.6025 16.9392 16.128 17.2273 15.4045C19.8185 8.89653 26.0007 4.69144 32.9777 4.69144H49.2458C58.5999 4.69144 66.2095 12.3367 66.2095 21.7341V44.3459C66.2095 45.3983 67.0589 46.2517 68.1065 46.2517C69.1541 46.2517 70.0034 45.3983 70.0034 44.3459V21.7341C70.0034 10.2351 60.6918 0.879883 49.2458 0.879883H32.9777C24.8398 0.879883 17.5846 5.55618 14.1777 12.8913C10.2112 13.5152 7.1668 16.9715 7.1668 21.1288V44.3459C7.1668 47.9919 9.70588 51.0561 13.114 51.8787C13.468 61.6122 19.2791 69.97 27.5591 73.9474V74.45C27.5591 76.5733 26.7348 78.5682 25.2384 80.0675C22.5843 82.7263 19.2397 82.3928 19.6324 82.3928C8.81122 82.3928 0.0532227 91.1903 0.0532227 102.063V113.321C0.0532227 114.373 0.902584 115.226 1.95018 115.226C2.99777 115.226 3.84713 114.373 3.84713 113.321V102.063C3.84713 93.2977 10.9074 86.2041 19.6329 86.2044C20.463 86.2044 21.2918 86.1157 22.1112 85.9397L24.7582 98.008C25.0933 99.5362 27.0229 100.027 28.043 98.8475L31.7803 94.5243L29.471 113.084C29.341 114.129 30.0787 115.081 31.118 115.212C32.1594 115.342 33.1058 114.6 33.2357 113.557L35.9045 92.1073C36.0252 92.2419 37.0796 93.4299 37.2148 93.5497C37.9978 94.2401 39.1905 94.17 39.8867 93.3813C40.2618 92.9499 39.2915 94.0702 41.0244 92.0682L43.6979 113.557C43.8276 114.6 44.7737 115.342 45.8156 115.211C46.8551 115.081 47.5926 114.129 47.4626 113.084L45.1533 94.524L48.8906 98.8473C49.9121 100.029 51.8408 99.5334 52.1754 98.0078L54.8223 85.939C55.6259 86.1105 56.4544 86.2039 57.3005 86.2039C66.025 86.2041 73.086 93.2969 73.086 102.063V113.321C73.086 114.373 73.9353 115.226 74.9829 115.226C76.0305 115.226 76.8799 114.373 76.8799 113.321V102.063C76.8799 91.1913 68.1228 82.3923 57.3002 82.3928ZM27.6515 93.4873L25.6851 84.5211C26.4083 84.0823 27.0867 83.5599 27.712 82.9624L32.3112 88.0965L27.6515 93.4873Z" fill="#C32925"/>
</svg>
