<svg width="23" height="24" viewBox="0 0 23 24" fill="none" xmlns="http://www.w3.org/2000/svg">
<path d="M16.8757 5.54221C16.148 5.54221 15.5581 4.9219 15.5581 4.15666V1.38555C15.5581 0.620312 16.148 0 16.8757 0C17.6034 0 18.1932 0.620312 18.1932 1.38555V4.15666C18.1932 4.9219 17.6034 5.54221 16.8757 5.54221Z" fill="#C32925"/>
<path d="M20.4333 2.77124H19.511V4.1568C19.511 5.6848 18.3289 6.92792 16.8759 6.92792C15.4228 6.92792 14.2407 5.6848 14.2407 4.1568V2.77124H8.97044V4.1568C8.97044 5.6848 7.78831 6.92792 6.33529 6.92792C4.88228 6.92792 3.70015 5.6848 3.70015 4.1568V2.77124H2.77785C1.44592 2.77124 0.362305 3.91077 0.362305 5.31143V8.40585H22.8489V5.31143C22.8489 3.91077 21.7652 2.77124 20.4333 2.77124Z" fill="#C32925"/>
<path d="M6.33515 5.54221C5.60745 5.54221 5.01758 4.9219 5.01758 4.15666V1.38555C5.01758 0.620312 5.60745 0 6.33515 0C7.06284 0 7.65272 0.620312 7.65272 1.38555V4.15666C7.65272 4.9219 7.06284 5.54221 6.33515 5.54221Z" fill="#C32925"/>
<path d="M0.362305 9.79126V21.1067C0.362305 22.5073 1.44592 23.6469 2.77785 23.6469H20.4333C21.7652 23.6469 22.8489 22.5073 22.8489 21.1067V9.79126H0.362305ZM12.2979 18.7974C12.2979 20.3254 11.1158 21.5685 9.66278 21.5685C8.35539 21.5685 7.23348 20.543 7.05297 19.1831C7.03615 19.0562 7.02763 18.9265 7.02763 18.7974C7.02763 18.4148 7.32259 18.1046 7.68642 18.1046C8.05024 18.1046 8.3452 18.4148 8.3452 18.7974C8.3452 18.8626 8.34951 18.9279 8.35794 18.9916C8.44802 19.6708 9.009 20.183 9.66278 20.183C10.3893 20.183 10.9803 19.5614 10.9803 18.7974C10.9803 18.0334 10.3893 17.4118 9.66278 17.4118C9.29895 17.4118 9.00399 17.1017 9.00399 16.7191C9.00399 16.3365 9.29895 16.0263 9.66278 16.0263C10.3893 16.0263 10.9803 15.4047 10.9803 14.6407C10.9803 13.8767 10.3893 13.2552 9.66278 13.2552C9.03447 13.2552 8.49075 13.7246 8.36993 14.3714C8.29975 14.7469 7.95318 14.9914 7.59656 14.9177C7.23954 14.8439 7.00695 14.4798 7.07709 14.1044C7.3189 12.8095 8.40634 11.8696 9.66278 11.8696C11.1158 11.8696 12.2979 13.1127 12.2979 14.6407C12.2979 15.4678 11.9511 16.2109 11.403 16.7191C11.9511 17.2272 12.2979 17.9703 12.2979 18.7974ZM16.1835 20.8758C16.1835 21.2584 15.8886 21.5685 15.5247 21.5685C15.1609 21.5685 14.866 21.2584 14.866 20.8758V13.2552H13.835C13.4712 13.2552 13.1763 12.945 13.1763 12.5624C13.1763 12.1798 13.4712 11.8696 13.835 11.8696H15.5247C15.8886 11.8696 16.1835 12.1798 16.1835 12.5624V20.8758Z" fill="#C32925"/>
</svg>
