<svg width="24" height="25" viewBox="0 0 24 25" fill="none" xmlns="http://www.w3.org/2000/svg">
<path d="M14.4809 4.1595C13.9197 3.5984 13.2781 3.13636 12.5738 2.78621C12.3957 2.69772 12.1798 2.77027 12.0913 2.94829C12.0028 3.12632 12.0753 3.34234 12.2534 3.43083C12.8878 3.74618 13.4659 4.16259 13.9718 4.66853C16.5296 7.22638 16.5296 11.3884 13.9718 13.9462C12.7327 15.1853 11.0853 15.8677 9.33299 15.8677C7.58062 15.8677 5.93322 15.1853 4.69416 13.9462C3.45505 12.7071 2.77267 11.0597 2.77267 9.30737C2.77267 7.55505 3.45505 5.9076 4.69416 4.66853C5.44167 3.92102 6.32749 3.37976 7.3269 3.05977C8.28077 2.75442 9.3101 2.67108 10.3034 2.81876C10.5002 2.84807 10.6832 2.7123 10.7124 2.51566C10.7415 2.31901 10.6059 2.13592 10.4093 2.1067C9.30748 1.94288 8.16568 2.03532 7.10737 2.37416C6.01332 2.7244 5.00275 3.34177 4.18503 4.1595C2.81001 5.53452 2.05273 7.36272 2.05273 9.30737C2.05273 11.252 2.81001 13.0802 4.18503 14.4552C5.56009 15.8303 7.38829 16.5876 9.33294 16.5876C11.2775 16.5876 13.1057 15.8303 14.4808 14.4552C17.3194 11.6167 17.3194 6.99803 14.4809 4.1595Z" fill="#818181"/>
<path d="M23.432 20.697L17.1337 14.3988C18.2526 12.676 18.7725 10.6104 18.6006 8.54783C18.4181 6.35832 17.461 4.29544 15.9057 2.73916C14.1407 0.973193 11.8004 0.000375189 9.31577 0C9.31516 0 9.31493 0 9.31432 0C6.83029 0 4.49 0.972114 2.72497 2.73714C-0.908355 6.37052 -0.908308 12.2824 2.72502 15.9157C4.28125 17.472 6.34437 18.4297 8.53439 18.6126C10.5977 18.7848 12.6635 18.2651 14.3866 17.1458L20.6849 23.444C21.0636 23.8227 21.561 24.0121 22.0584 24.0121C22.5559 24.0121 23.0533 23.8227 23.432 23.444C24.1893 22.6867 24.1893 21.4544 23.432 20.697ZM22.923 22.935C22.4462 23.4117 21.6706 23.4117 21.1939 22.935L14.6861 16.4272C14.6165 16.3575 14.5243 16.3217 14.4315 16.3217C14.3599 16.3217 14.288 16.343 14.2257 16.3865C12.5916 17.5261 10.5922 18.0619 8.59433 17.8952C6.57375 17.7265 4.67014 16.8427 3.23415 15.4067C-0.118583 12.0541 -0.11863 6.59887 3.23406 3.24618C4.86322 1.61702 7.02243 0.719893 9.31432 0.719893C9.31474 0.719893 9.31526 0.719893 9.31568 0.719893C11.608 0.720222 13.7676 1.6181 15.3965 3.24806C16.8317 4.68409 17.7149 6.58752 17.8833 8.60767C18.0494 10.6009 17.5157 12.5967 16.3806 14.2288C16.1363 14.5309 15.4614 15.3394 15.1303 15.6264C14.98 15.7567 14.9639 15.984 15.0941 16.1341C15.1653 16.2163 15.2655 16.2583 15.3662 16.2583C15.4498 16.2583 15.5338 16.2293 15.6019 16.1703C15.9068 15.9059 16.3975 15.3355 16.6955 14.9786L22.923 21.206C23.3996 21.6827 23.3996 22.4583 22.923 22.935Z" fill="#818181"/>
</svg>
