<svg width="277" height="174" viewBox="0 0 277 174" fill="none" xmlns="http://www.w3.org/2000/svg">
<path d="M103.532 72.8223C103.532 72.8223 126.218 73.9156 127.584 81.8419C128.951 89.7682 101.072 82.6618 101.072 82.6618L103.532 72.8223Z" fill="#A0616A"/>
<path d="M83.5795 67.9026L83.2259 68.2561L83.3347 68.3648L83.4857 68.3937L107.25 72.933L103.461 84.2998L80.7341 81.3587L66.6057 73.3614L68.1813 48.4142C68.5544 48.6057 69.0819 48.9238 69.6988 49.4299C70.9697 50.4727 72.6322 52.324 74.1054 55.5381C75.6337 58.8726 77.9178 62.053 79.8084 64.3905C80.7556 65.5616 81.6081 66.5261 82.2244 67.1984C82.5326 67.5346 82.7819 67.798 82.9547 67.9778C83.0411 68.0677 83.1084 68.1367 83.1543 68.1836L83.2069 68.237L83.2208 68.2509L83.2244 68.2546L83.2255 68.2556L83.2258 68.2559C83.2259 68.256 83.2259 68.2561 83.5795 67.9026Z" fill="#FFF8F8" stroke="#C32925"/>
<path opacity="0.1" d="M67.7835 48.1045C67.7835 48.1045 71.61 49.1978 74.6165 55.7575C77.6231 62.3172 83.6361 68.3303 83.6361 68.3303L107.962 72.9768L103.862 85.2762L80.6296 82.2697L66.1436 74.07L67.7835 48.1045Z" fill="#797777"/>
<path d="M253.996 25.4009H225.297V25.9475H253.996V25.4009Z" fill="#27AE60"/>
<path d="M202.884 25.4009H111.868V25.9475H202.884V25.4009Z" fill="#27AE60"/>
<path d="M223.93 91.2715H8.2793V173.541H223.93V91.2715Z" fill="#C32925"/>
<path d="M31.6484 35.1039L34.1083 50.6832L51.0543 51.5032L49.141 28.5442L31.6484 35.1039Z" fill="#E8B2B9"/>
<path d="M13.7457 139.103L12.9258 173.541H38.618L42.4445 159.875L45.4511 173.541H72.2366C72.2366 173.541 72.7832 134.183 69.7767 133.91C66.7701 133.636 13.7457 139.103 13.7457 139.103Z" fill="#2F2E41"/>
<path d="M37.1148 39.2038C45.2662 39.2038 51.8742 32.5958 51.8742 24.4444C51.8742 16.2931 45.2662 9.68506 37.1148 9.68506C28.9635 9.68506 22.3555 16.2931 22.3555 24.4444C22.3555 32.5958 28.9635 39.2038 37.1148 39.2038Z" fill="#E8B2B9"/>
<path d="M12.8543 140.108L20.3861 102.987L20.4063 102.888L20.3862 102.789L10.3577 53.1882L33.1935 44.6193L44.5547 43.2533L44.5709 43.2514L44.5868 43.2484L50.2183 42.1971L54.2081 43.2406L54.2081 43.2406L54.2134 43.2419L54.3346 42.7569C54.2134 43.2419 54.2134 43.242 54.2135 43.242L54.214 43.2421L54.216 43.2426L54.2246 43.2448L54.2592 43.2535L54.3951 43.2881C54.5145 43.3186 54.6901 43.3639 54.9141 43.4226C55.3621 43.54 56.0034 43.7112 56.7758 43.9262C58.3212 44.3561 60.3881 44.9601 62.4787 45.6569C64.5727 46.355 66.675 47.1411 68.298 47.9338C69.1108 48.3307 69.7862 48.7211 70.2763 49.093C70.7857 49.4795 71.0149 49.787 71.0715 49.9948C71.151 50.2863 71.1827 50.9249 71.1487 51.8951C71.1156 52.8403 71.0238 54.0361 70.8898 55.3959C70.6217 58.1144 70.1873 61.4631 69.7264 64.7234C69.2656 67.9827 68.7792 71.1487 68.4079 73.5002C68.2223 74.6758 68.0655 75.6477 67.9551 76.3255C67.8999 76.6644 67.8563 76.9298 67.8265 77.1104L67.7925 77.3163L67.7838 77.3689L67.7817 77.3812L67.7816 77.3821L63.9562 97.6016L63.9366 97.7053L63.9606 97.808L72.33 133.716C72.0684 133.801 71.6908 133.923 71.207 134.075C70.1986 134.392 68.7289 134.839 66.887 135.359C63.2028 136.398 58.032 137.727 52.0866 138.885C40.1802 141.205 25.2302 142.828 12.8971 140.118L12.8543 140.108Z" fill="white" stroke="#EC2527"/>
<path opacity="0.1" d="M22.4922 66.6724V76.7853L54.742 76.8293L24.1321 73.5054L22.4922 66.6724Z" fill="black"/>
<path opacity="0.1" d="M19.7227 94.6021L60.2109 88.8115L19.7227 100.279V94.6021Z" fill="black"/>
<path opacity="0.1" d="M83.99 68.0391L79.6494 83.6799L86.9966 68.5551L83.99 68.0391Z" fill="black"/>
<path d="M49.2621 9.64222L51.9762 8.55564C51.9762 8.55564 46.3012 2.30786 38.4056 2.85118L40.6263 0.406366C40.6263 0.406366 35.1981 -1.76675 30.2634 3.93772C27.6693 6.93643 24.6679 10.4613 22.7968 14.4319H19.8902L21.1033 17.1031L16.8574 19.7742L21.2154 19.2944C20.9557 20.7572 20.9159 22.2505 21.0972 23.725C21.2841 25.2 22.0368 26.5446 23.1964 27.4752C23.1964 27.4752 26.5624 20.5079 26.5624 19.4213V22.1377C26.5624 22.1377 29.2765 19.693 29.2765 18.0631L30.7569 19.9646L31.4971 16.9765L40.6263 19.9646L39.1459 17.5199L44.8208 18.3348L42.6001 15.3467C42.6001 15.3467 49.0153 18.878 49.2621 21.8661C49.5088 24.8542 51.3865 27.6855 51.3865 27.6855C51.3865 27.6855 56.4174 13.7168 49.2621 9.64222Z" fill="#2F2E41"/>
<path d="M168.719 64.2126H63.7637V173.815H168.719V64.2126Z" fill="#D0CDE1"/>
<path d="M152.321 88.2649H74.6973V99.1978H152.321V88.2649Z" fill="#EC2527"/>
<path d="M138.877 117.237H88.041V122.703H138.877V117.237Z" fill="#EC2527"/>
<path d="M138.976 126.803H88.1396V132.27H138.976V126.803Z" fill="#EC2527"/>
<path d="M113.655 136.37H88.2373V141.836H113.655V136.37Z" fill="#EC2527"/>
<path d="M153.686 163.975H141.934V169.442H153.686V163.975Z" fill="#EC2527"/>
<path d="M56.248 78.0153C56.248 78.0153 80.027 74.4621 83.5802 79.6552C87.1334 84.8483 58.4346 87.5815 58.4346 87.5815L56.248 78.0153Z" fill="#E8B2B9"/>
<path d="M10.8022 53.0964H10.8036H12.2588C12.3078 53.1654 12.3682 53.2505 12.439 53.3506C12.6496 53.6485 12.9519 54.0786 13.3182 54.6067C14.051 55.6633 15.039 57.1112 16.0606 58.6777C17.0828 60.245 18.1357 61.9265 18.9997 63.4513C19.8706 64.9882 20.5264 66.3262 20.7818 67.2199C21.3085 69.0634 21.4458 71.4657 21.4458 73.4372C21.4458 74.4169 21.412 75.2788 21.3783 75.8954C21.3614 76.2036 21.3445 76.4501 21.3319 76.6191C21.3256 76.7035 21.3204 76.7686 21.3168 76.8122L21.3126 76.8613L21.3115 76.8734L21.3113 76.8762L21.3112 76.8768L21.3112 76.8768L21.3112 76.8769L21.2613 77.4264L21.8131 77.4221L56.4169 77.1517L59.7096 88.8028C59.3545 88.8504 58.8408 88.9189 58.1889 89.0051C56.8522 89.1817 54.9344 89.4325 52.6099 89.7292C47.9606 90.3226 41.6853 91.0995 35.18 91.8337C28.6738 92.568 21.9417 93.2591 16.3775 93.6812C13.595 93.8923 11.1095 94.0357 9.09255 94.084C7.06224 94.1326 5.54659 94.0833 4.68095 93.923C3.08111 93.6268 2.00687 92.4333 1.33852 90.4976C0.667115 88.553 0.443782 85.9499 0.511632 83.0493C0.647119 77.2572 1.9362 70.4643 2.89306 65.8167C4.30313 58.9678 7.67317 55.1602 9.24204 53.7033C9.66697 53.3116 10.2242 53.0948 10.8022 53.0964Z" fill="white" stroke="#C32925"/>
<path d="M111.868 36.8804C118.057 36.8804 123.074 31.8632 123.074 25.6742C123.074 19.4852 118.057 14.468 111.868 14.468C105.679 14.468 100.662 19.4852 100.662 25.6742C100.662 31.8632 105.679 36.8804 111.868 36.8804Z" fill="#D0CDE1"/>
<path d="M162.98 36.8804C169.169 36.8804 174.186 31.8632 174.186 25.6742C174.186 19.4852 169.169 14.468 162.98 14.468C156.791 14.468 151.773 19.4852 151.773 25.6742C151.773 31.8632 156.791 36.8804 162.98 36.8804Z" fill="#6FCF97"/>
<path d="M214.091 37.1538C211.82 37.1538 209.601 36.4806 207.713 35.2192C205.825 33.9578 204.354 32.165 203.485 30.0674C202.616 27.9698 202.389 25.6616 202.832 23.4348C203.275 21.208 204.368 19.1625 205.974 17.5571C207.579 15.9517 209.625 14.8583 211.851 14.4154C214.078 13.9725 216.386 14.1998 218.484 15.0687C220.581 15.9375 222.374 17.4089 223.636 19.2967C224.897 21.1845 225.57 23.4039 225.57 25.6743C225.567 28.7178 224.356 31.6357 222.204 33.7878C220.052 35.9399 217.134 37.1504 214.091 37.1538ZM214.091 14.7415C211.929 14.7415 209.815 15.3827 208.017 16.584C206.219 17.7853 204.818 19.4928 203.99 21.4905C203.163 23.4882 202.946 25.6865 203.368 27.8072C203.79 29.928 204.831 31.8761 206.36 33.405C207.889 34.934 209.837 35.9753 211.958 36.3971C214.079 36.819 216.277 36.6025 218.275 35.775C220.272 34.9475 221.98 33.5462 223.181 31.7483C224.383 29.9504 225.024 27.8367 225.024 25.6743C225.02 22.7758 223.868 19.9969 221.818 17.9473C219.768 15.8977 216.989 14.7448 214.091 14.7415Z" fill="#6FCF97"/>
<path d="M265.202 37.1538C262.932 37.1538 260.712 36.4806 258.825 35.2192C256.937 33.9578 255.465 32.165 254.596 30.0674C253.728 27.9698 253.5 25.6616 253.943 23.4348C254.386 21.208 255.479 19.1625 257.085 17.5571C258.69 15.9517 260.736 14.8583 262.963 14.4154C265.189 13.9725 267.498 14.1998 269.595 15.0687C271.693 15.9375 273.486 17.4089 274.747 19.2967C276.008 21.1845 276.682 23.4039 276.682 25.6743C276.678 28.7178 275.468 31.6357 273.316 33.7878C271.164 35.9399 268.246 37.1504 265.202 37.1538ZM265.202 14.7415C263.04 14.7415 260.926 15.3827 259.128 16.584C257.33 17.7853 255.929 19.4928 255.102 21.4905C254.274 23.4882 254.058 25.6865 254.479 27.8072C254.901 29.928 255.942 31.8761 257.471 33.405C259 34.934 260.948 35.9753 263.069 36.3971C265.19 36.819 267.388 36.6025 269.386 35.775C271.384 34.9475 273.091 33.5462 274.293 31.7483C275.494 29.9504 276.135 27.8367 276.135 25.6743C276.132 22.7758 274.979 19.9969 272.929 17.9473C270.88 15.8977 268.101 14.7448 265.202 14.7415Z" fill="#6FCF97"/>
<path d="M110.324 30.4418L105.468 23.9671L107.217 22.6549L110.561 27.1128L125.932 11.7417L127.478 13.2876L110.324 30.4418Z" fill="#219653"/>
<path d="M227.702 173.24H4.50879V174H227.702V173.24Z" fill="#3F3D56"/>
<path d="M100.006 76.6453H97.6191V79.157H96.8691V73.4695H100.393V74.0867H97.6191V76.032H100.006V76.6453ZM100.9 77.0046C100.9 76.5906 100.981 76.2182 101.143 75.8875C101.307 75.5567 101.533 75.3015 101.822 75.1218C102.114 74.9421 102.446 74.8523 102.818 74.8523C103.394 74.8523 103.859 75.0515 104.213 75.45C104.57 75.8484 104.748 76.3783 104.748 77.0398V77.0906C104.748 77.502 104.669 77.8718 104.51 78.2C104.354 78.5255 104.128 78.7794 103.834 78.9617C103.542 79.144 103.206 79.2351 102.826 79.2351C102.253 79.2351 101.788 79.0359 101.432 78.6375C101.077 78.239 100.9 77.7117 100.9 77.0554V77.0046ZM101.627 77.0906C101.627 77.5593 101.735 77.9356 101.951 78.2195C102.17 78.5033 102.462 78.6453 102.826 78.6453C103.193 78.6453 103.485 78.502 103.701 78.2156C103.917 77.9265 104.025 77.5229 104.025 77.0046C104.025 76.5411 103.915 76.1661 103.693 75.8796C103.475 75.5906 103.183 75.446 102.818 75.446C102.462 75.446 102.174 75.588 101.955 75.8718C101.736 76.1557 101.627 76.5619 101.627 77.0906ZM107.697 75.5789C107.588 75.5606 107.469 75.5515 107.342 75.5515C106.868 75.5515 106.546 75.7533 106.377 76.157V79.157H105.654V74.9304H106.357L106.369 75.4187C106.606 75.0411 106.942 74.8523 107.377 74.8523C107.518 74.8523 107.624 74.8705 107.697 74.907V75.5789ZM109.045 74.9304L109.064 75.3992C109.374 75.0346 109.792 74.8523 110.318 74.8523C110.91 74.8523 111.312 75.0789 111.525 75.532C111.666 75.3289 111.848 75.1648 112.072 75.0398C112.299 74.9148 112.566 74.8523 112.873 74.8523C113.8 74.8523 114.271 75.3432 114.287 76.325V79.157H113.564V76.3679C113.564 76.0658 113.495 75.8406 113.357 75.6921C113.219 75.5411 112.988 75.4656 112.662 75.4656C112.394 75.4656 112.171 75.5463 111.994 75.7078C111.817 75.8666 111.714 76.0815 111.686 76.3523V79.157H110.959V76.3875C110.959 75.7729 110.658 75.4656 110.057 75.4656C109.583 75.4656 109.258 75.6674 109.084 76.071V79.157H108.361V74.9304H109.045ZM117.99 78.739C117.709 79.0697 117.296 79.2351 116.752 79.2351C116.301 79.2351 115.958 79.1049 115.721 78.8445C115.486 78.5815 115.368 78.1934 115.365 77.6804V74.9304H116.088V77.6609C116.088 78.3015 116.348 78.6218 116.869 78.6218C117.421 78.6218 117.788 78.4161 117.971 78.0046V74.9304H118.693V79.157H118.006L117.99 78.739ZM120.58 79.157H119.857V73.157H120.58V79.157ZM124.35 79.157C124.308 79.0736 124.274 78.9252 124.248 78.7117C123.912 79.0606 123.511 79.2351 123.045 79.2351C122.628 79.2351 122.286 79.1179 122.018 78.8835C121.752 78.6466 121.619 78.3471 121.619 77.9851C121.619 77.545 121.786 77.2039 122.119 76.9617C122.455 76.7169 122.926 76.5945 123.533 76.5945H124.236V76.2625C124.236 76.0098 124.161 75.8093 124.01 75.6609C123.859 75.5098 123.636 75.4343 123.342 75.4343C123.084 75.4343 122.868 75.4994 122.693 75.6296C122.519 75.7598 122.432 75.9174 122.432 76.1023H121.705C121.705 75.8914 121.779 75.6882 121.928 75.4929C122.079 75.295 122.282 75.1388 122.537 75.0242C122.795 74.9096 123.077 74.8523 123.385 74.8523C123.872 74.8523 124.253 74.9747 124.529 75.2195C124.805 75.4617 124.949 75.7963 124.959 76.2234V78.1687C124.959 78.5567 125.008 78.8653 125.107 79.0945V79.157H124.35ZM123.15 78.6062C123.377 78.6062 123.592 78.5476 123.795 78.4304C123.998 78.3132 124.145 78.1609 124.236 77.9734V77.1062H123.67C122.785 77.1062 122.342 77.3653 122.342 77.8835C122.342 78.1101 122.417 78.2872 122.568 78.4148C122.719 78.5424 122.913 78.6062 123.15 78.6062ZM128.135 75.5789C128.025 75.5606 127.907 75.5515 127.779 75.5515C127.305 75.5515 126.984 75.7533 126.814 76.157V79.157H126.092V74.9304H126.795L126.807 75.4187C127.044 75.0411 127.38 74.8523 127.814 74.8523C127.955 74.8523 128.062 74.8705 128.135 74.907V75.5789ZM129.588 79.157H128.865V74.9304H129.588V79.157ZM128.807 73.8093C128.807 73.6921 128.842 73.5932 128.912 73.5125C128.985 73.4317 129.092 73.3914 129.232 73.3914C129.373 73.3914 129.48 73.4317 129.553 73.5125C129.626 73.5932 129.662 73.6921 129.662 73.8093C129.662 73.9265 129.626 74.0242 129.553 74.1023C129.48 74.1804 129.373 74.2195 129.232 74.2195C129.092 74.2195 128.985 74.1804 128.912 74.1023C128.842 74.0242 128.807 73.9265 128.807 73.8093ZM130.557 77.0046C130.557 76.5906 130.637 76.2182 130.799 75.8875C130.963 75.5567 131.189 75.3015 131.479 75.1218C131.77 74.9421 132.102 74.8523 132.475 74.8523C133.05 74.8523 133.515 75.0515 133.869 75.45C134.226 75.8484 134.404 76.3783 134.404 77.0398V77.0906C134.404 77.502 134.325 77.8718 134.166 78.2C134.01 78.5255 133.785 78.7794 133.49 78.9617C133.199 79.144 132.863 79.2351 132.482 79.2351C131.91 79.2351 131.445 79.0359 131.088 78.6375C130.734 78.239 130.557 77.7117 130.557 77.0554V77.0046ZM131.283 77.0906C131.283 77.5593 131.391 77.9356 131.607 78.2195C131.826 78.5033 132.118 78.6453 132.482 78.6453C132.85 78.6453 133.141 78.502 133.357 78.2156C133.574 77.9265 133.682 77.5229 133.682 77.0046C133.682 76.5411 133.571 76.1661 133.35 75.8796C133.131 75.5906 132.839 75.446 132.475 75.446C132.118 75.446 131.83 75.588 131.611 75.8718C131.393 76.1557 131.283 76.5619 131.283 77.0906Z" fill="black"/>
</svg>
