<svg width="24" height="27" viewBox="0 0 24 27" fill="none" xmlns="http://www.w3.org/2000/svg">
<path d="M23.4432 13.8665C22.2235 12.6523 20.8135 13.7888 20.8135 13.7888V7.39658C20.8135 7.18193 20.6395 7.00777 20.4249 7.00777C20.21 7.00777 20.036 7.18193 20.036 7.39658V14.3357C20.036 14.3357 18.1821 15.7972 17.3852 16.1545V4.64511C17.3852 4.11008 17.8204 3.67489 18.3554 3.67489H19.0658C19.6008 3.67489 20.036 4.11008 20.036 4.64511V5.80487C20.036 6.01973 20.21 6.19369 20.4249 6.19369C20.6395 6.19369 20.8135 6.01973 20.8135 5.80487V4.64511C20.8135 3.68137 20.0296 2.89746 19.0658 2.89746H18.3554C17.3917 2.89746 16.6076 3.68137 16.6076 4.64511V16.4627C16.3757 16.5277 16.1378 16.5718 15.896 16.5951V8.39819C15.896 7.42959 15.108 6.64163 14.1396 6.64163H13.4464C12.478 6.64163 11.6901 7.42959 11.6901 8.39819V12.3597L10.9783 12.7375V11.4192C10.9783 10.5472 10.2689 9.83782 9.39707 9.83782H8.35375C7.48175 9.83782 6.77256 10.5472 6.77256 11.4192V14.97L5.50304 15.6437L1.93809 16.6625C1.3178 16.8397 0.799787 17.246 0.479824 17.8061C0.159658 18.3665 0.0727824 19.0189 0.235194 19.6433L0.633933 21.1775C0.6878 21.3852 0.900028 21.5098 1.108 21.4559C1.31578 21.4018 1.44052 21.1896 1.38645 20.9816L0.987714 19.4476C0.75645 18.5578 1.26778 17.6627 2.15193 17.4102L5.4113 16.4787L7.86104 23.0169C8.02508 23.4547 7.99915 24.7037 6.7033 25.164L4.2402 25.7236C3.38177 25.9184 2.53589 25.4038 2.31435 24.5517L1.81435 22.6276C1.76028 22.4199 1.54805 22.2951 1.34028 22.349C1.13231 22.403 1.00776 22.6153 1.06163 22.8233L1.56182 24.7475C1.84291 25.8285 2.8032 26.5427 3.87224 26.5427C4.65777 26.5427 6.87564 25.9222 6.87564 25.9222C7.5506 25.7691 8.12613 25.3317 8.45439 24.7226C8.72535 24.22 8.80574 23.6416 8.6895 23.0906L17.211 21.0043C17.9158 20.8316 18.5849 20.4968 19.1454 20.0361L23.2924 16.6287C24.5566 15.5074 23.815 14.2365 23.4432 13.8665ZM13.4464 7.41927H14.1396C14.6793 7.41927 15.1183 7.85851 15.1183 8.39819V16.6146L12.6649 16.6135C12.4396 16.6115 12.5955 16.4627 12.6078 16.4525L13.3144 15.8803C13.9735 15.3462 14.4041 14.6039 14.5938 13.6733C14.7143 13.083 14.4891 12.4921 14.0066 12.1312C13.5558 11.7943 12.976 11.7295 12.4677 11.9522V8.39819C12.4677 7.85851 12.9067 7.41927 13.4464 7.41927ZM7.55019 11.4192C7.55019 10.9761 7.91066 10.6155 8.35375 10.6155H9.39707C9.84016 10.6155 10.2008 10.9761 10.2008 11.4192V13.1502L7.54999 14.5573V11.4192H7.55019ZM22.7989 16.0281L18.6517 19.4355C18.1807 19.8227 17.6185 20.104 17.0262 20.249L8.44184 22.3508L6.13324 16.1899L12.7249 12.691C12.9928 12.5486 13.298 12.5723 13.5408 12.7539C13.7836 12.9356 13.8925 13.2211 13.832 13.518C13.6791 14.2671 13.3403 14.8586 12.8249 15.276L12.1184 15.8485C11.8288 16.083 11.7221 16.4615 11.8464 16.8128C11.9707 17.164 12.2919 17.3912 12.6645 17.3912L15.4974 17.3924H15.4994C16.5079 17.3924 17.4771 17.0858 18.3022 16.5056L21.4682 14.2792C21.9115 13.9674 22.5083 14.0225 22.8869 14.4101C23.105 14.6328 23.5319 15.2948 22.7989 16.0281Z" fill="#C32925"/>
<path d="M6.37214 23.2663C6.37214 22.4217 5.68503 21.7344 4.84037 21.7344C3.9957 21.7344 3.30859 22.4217 3.30859 23.2663C3.30859 24.1108 3.9957 24.7981 4.84037 24.7981C5.68503 24.7981 6.37214 24.1108 6.37214 23.2663ZM4.08623 23.2663C4.08623 22.8504 4.42441 22.512 4.84037 22.512C5.25611 22.512 5.59451 22.8504 5.59451 23.2663C5.59451 23.6821 5.25632 24.0205 4.84037 24.0205C4.42441 24.0205 4.08623 23.6821 4.08623 23.2663Z" fill="#C32925"/>
<path d="M2.04438 12.2078L7.69638 6.51226L8.96773 7.1698C9.42317 7.40532 9.97744 7.32472 10.3468 6.96912L13.4233 4.00764C13.4233 4.00764 13.3387 5.52868 14.6195 5.52868C15.2789 5.52868 15.8155 4.99203 15.8155 4.33246V1.19601C15.8155 1.19237 15.8153 1.18852 15.8153 1.18467C15.8111 0.366337 15.2127 0 14.6195 0H11.5104C10.8509 0 10.3144 0.536647 10.3144 1.19601C10.3144 2.5107 11.6524 2.39203 11.6524 2.39203L9.30531 4.65121L8.01554 3.98415C7.54916 3.74276 6.9872 3.83125 6.61701 4.20387L0.346551 10.5227C-0.118003 10.9909 -0.115168 11.7497 0.353031 12.2143C0.578625 12.4381 1.34897 12.9032 2.04438 12.2078ZM0.898386 11.0705L7.16885 4.75165C7.24985 4.67024 7.37986 4.52768 7.65831 4.6749L9.19555 5.46995C9.34358 5.5465 9.52382 5.52037 9.6439 5.40474L12.8865 2.28348C13.0007 2.17352 13.0367 2.00503 12.9774 1.85801C12.9181 1.71079 12.7755 1.6146 12.6167 1.6146H11.5104C11.2798 1.6146 11.092 1.42687 11.092 1.19601C11.092 0.965357 11.2798 0.777631 11.5104 0.777631H14.6195C14.7339 0.777631 15.0377 0.777631 15.0377 1.19358C15.0377 1.19703 15.0379 1.20047 15.0379 1.20411V4.33246C15.0379 4.56312 14.8502 4.75084 14.6195 4.75084C14.3887 4.75084 14.2009 4.56312 14.2009 4.33246V3.09372C14.2009 2.93779 14.1078 2.79684 13.9644 2.73589C13.821 2.67473 13.655 2.70551 13.5426 2.81365L9.80753 6.40898C9.67833 6.53332 9.48433 6.56167 9.32516 6.47925L7.80027 5.69048C7.6494 5.61251 7.46532 5.64147 7.34564 5.76197L1.49254 11.66C1.23738 11.9152 0.979591 11.7406 0.900613 11.6622C0.736987 11.4996 0.735974 11.2341 0.898386 11.0705Z" fill="#C32925"/>
</svg>
