<?xml version="1.0" standalone="no"?>
<!DOCTYPE svg PUBLIC "-//W3C//DTD SVG 20010904//EN"
 "http://www.w3.org/TR/2001/REC-SVG-20010904/DTD/svg10.dtd">
<svg version="1.0" xmlns="http://www.w3.org/2000/svg"
 width="260.000000pt" height="260.000000pt" viewBox="0 0 260.000000 260.000000"
 preserveAspectRatio="xMidYMid meet">
<metadata>
Created by potrace 1.14, written by Peter Selinger 2001-2017
</metadata>
<g transform="translate(0.000000,260.000000) scale(0.100000,-0.100000)"
fill="#000000" stroke="none">
<path d="M0 1300 l0 -1300 1300 0 1300 0 0 1300 0 1300 -1300 0 -1300 0 0
-1300z m1519 528 c119 -66 217 -122 219 -124 2 -1 -9 -22 -25 -47 l-28 -46
-193 110 -192 109 -163 -91 c-89 -50 -176 -100 -194 -110 l-32 -20 -27 46
c-14 25 -25 47 -23 49 7 6 433 246 437 246 3 0 102 -55 221 -122z m-124 -318
l0 -105 -97 -3 -98 -3 0 111 0 111 98 -3 97 -3 0 -105z m225 -190 l0 -40 -325
0 -325 0 0 33 c0 19 3 37 7 40 3 4 150 7 325 7 l318 0 0 -40z m88 -92 l3 -38
-410 0 -411 0 0 40 0 40 408 -2 407 -3 3 -37z m102 -98 l0 -40 -512 2 -513 3
-3 38 -3 37 515 0 516 0 0 -40z m-411 -263 l51 -57 0 60 c0 47 3 60 15 60 12
0 15 -17 15 -97 l-1 -98 -64 70 -64 70 -1 -62 c0 -35 -4 -63 -10 -63 -6 0 -10
39 -10 97 0 55 4 93 9 88 4 -6 31 -36 60 -68z m-489 53 c0 -5 -12 -10 -26 -10
-25 0 -25 -1 -23 -72 1 -40 -1 -74 -5 -75 -21 -9 -26 4 -26 72 0 73 -1 75 -25
75 -14 0 -25 5 -25 10 0 6 28 10 65 10 37 0 65 -4 65 -10z m111 0 c24 -14 24
-46 0 -67 -20 -17 -17 -32 17 -75 8 -10 10 -18 3 -22 -9 -6 -29 15 -58 60 -10
17 -12 14 -12 -18 -1 -31 -5 -38 -21 -38 -18 0 -20 7 -20 78 0 43 3 82 7 85
10 11 62 8 84 -3z m91 -76 c2 -47 1 -87 0 -89 -2 -2 -10 -1 -18 2 -20 8 -20
173 0 173 11 0 15 -20 18 -86z m58 22 c0 -68 14 -96 48 -96 36 0 47 18 52 87
4 51 9 69 21 71 14 2 14 -6 7 -70 -10 -83 -29 -108 -82 -108 -56 0 -70 19 -76
104 -4 68 -3 76 13 76 14 0 17 -10 17 -64z m435 54 c4 -6 -8 -10 -29 -10 -32
0 -36 -3 -36 -25 0 -20 5 -25 28 -26 l27 -2 -27 -4 c-26 -4 -28 -8 -28 -48 0
-27 -5 -45 -14 -48 -8 -3 -16 -4 -18 -2 -1 2 -2 42 0 89 l3 86 44 0 c24 0 47
-4 50 -10z m180 -15 c18 -17 25 -35 25 -64 0 -88 -122 -124 -177 -52 -23 30
-16 89 13 116 38 35 105 35 139 0z m-788 -242 c-3 -10 -5 -4 -5 12 0 17 2 24
5 18 2 -7 2 -21 0 -30z m87 25 c5 -10 7 -10 12 0 10 22 24 13 24 -15 0 -16 -4
-23 -8 -18 -9 13 -42 16 -42 3 0 -5 -4 -6 -10 -3 -15 9 -12 45 4 45 8 0 17 -6
20 -12z m149 -2 c7 -17 -11 -36 -34 -36 -19 0 -29 18 -21 38 6 16 49 15 55 -2z
m71 2 c5 -10 7 -10 12 0 3 6 10 12 15 12 5 0 3 -11 -3 -25 -6 -14 -14 -25 -18
-25 -4 0 -12 11 -18 25 -6 14 -8 25 -3 25 5 0 12 -6 15 -12z m116 2 c-21 -7
-22 -8 -5 -10 l20 -1 -20 -8 c-19 -8 -18 -9 5 -13 25 -5 25 -5 -2 -7 -24 -1
-28 3 -28 24 0 21 5 25 28 24 l27 -1 -25 -8z m90 -9 c0 -11 -4 -23 -10 -26 -6
-4 -10 5 -10 19 0 14 5 26 10 26 6 0 10 -9 10 -19z m76 10 c-19 -7 -19 -8 3
-14 28 -7 19 -27 -12 -26 -21 0 -21 1 -2 9 17 7 17 9 3 9 -10 1 -18 8 -18 16
0 9 9 15 23 14 20 0 21 -1 3 -8z"/>
<path d="M970 885 c0 -20 4 -26 18 -23 9 2 17 12 17 23 0 11 -8 21 -17 23 -14
3 -18 -3 -18 -23z"/>
<path d="M1683 905 c-53 -37 -33 -135 27 -135 58 0 92 88 50 130 -24 24 -48
25 -77 5z"/>
<path d="M1190 675 c0 -8 7 -15 15 -15 8 0 15 7 15 15 0 8 -7 15 -15 15 -8 0
-15 -7 -15 -15z"/>
</g>
</svg>
